{"glyphs":{"0":{"ha":688,"x_min":47,"x_max":650,"o":"m 350 974 q 612 819 511 974 q 650 669 650 746 q 557 464 650 553 q 471 259 471 381 l 456 248 l 246 248 q 220 320 220 248 q 140 464 214 380 q 47 657 47 553 l 47 680 q 197 934 47 833 q 350 974 276 974 m 108 683 q 235 473 108 548 l 237 473 l 237 475 q 151 640 151 548 l 151 674 q 275 867 151 786 q 382 893 330 893 l 391 893 q 463 882 423 893 l 465 882 l 465 884 q 347 916 402 916 l 345 916 q 119 755 186 916 q 108 683 108 715 m 241 213 l 448 213 q 471 187 471 213 q 456 170 467 176 l 246 170 q 226 190 226 170 l 226 199 q 241 213 226 203 m 258 147 l 439 147 q 442 144 442 147 l 448 147 q 471 124 471 140 q 448 101 469 101 l 241 101 q 226 124 226 109 q 258 147 226 147 m 278 78 l 414 78 q 422 69 418 78 l 422 49 q 347 0 422 9 q 272 52 272 7 q 269 60 272 55 q 278 78 273 78 z "},"1":{"ha":753,"x_min":34,"x_max":713,"o":"m 364 968 q 708 697 621 968 q 713 638 713 667 l 713 620 q 577 362 713 503 q 545 258 545 302 l 545 122 q 459 45 545 55 l 405 0 l 355 0 q 274 50 347 0 q 206 113 206 61 l 206 222 q 124 416 206 347 q 34 633 34 529 q 229 932 34 826 q 364 968 299 964 m 88 620 q 215 394 88 536 l 256 317 l 351 317 l 351 534 q 369 552 351 541 l 382 552 q 401 520 401 545 l 401 317 l 491 317 q 532 389 498 317 q 663 629 663 536 q 545 855 663 755 q 378 914 459 914 q 97 697 177 914 q 88 620 88 644 m 301 715 l 446 715 q 459 701 452 715 l 459 692 q 446 679 459 686 l 305 679 q 292 692 299 679 l 292 706 q 301 715 293 715 m 301 652 l 450 652 q 459 643 459 650 l 459 629 q 450 620 459 620 l 301 620 q 292 629 292 620 l 292 643 q 301 652 293 652 m 301 597 l 450 597 q 459 588 459 596 l 459 574 q 450 566 459 566 l 301 566 q 292 574 292 566 l 292 588 q 301 597 293 597 m 260 254 l 260 231 q 269 222 262 222 l 482 222 q 491 231 491 222 l 491 254 l 260 254 m 260 176 l 260 145 l 491 145 l 491 176 l 260 176 z "},"2":{"ha":753,"x_min":34,"x_max":713,"o":"m 364 968 l 405 968 q 663 810 547 968 q 713 656 713 724 l 713 625 q 577 362 713 513 q 541 267 559 338 l 441 267 q 432 276 432 267 l 432 489 q 441 498 433 498 l 473 498 q 568 588 568 498 q 496 661 547 661 l 482 661 q 405 588 405 644 l 405 534 q 396 525 405 525 l 355 525 q 346 534 346 525 l 346 574 q 264 661 346 649 l 260 661 q 183 593 183 645 l 183 574 q 278 498 183 498 l 310 498 q 319 489 319 496 l 319 276 q 310 267 319 267 l 215 267 q 183 349 205 270 q 39 606 39 513 q 34 633 34 606 q 269 955 34 854 q 364 968 317 968 m 256 633 l 269 633 q 319 574 310 633 q 264 525 303 525 l 260 525 q 206 579 206 536 q 256 633 218 633 m 486 633 l 491 633 q 541 584 541 626 q 486 525 534 525 q 432 584 439 525 q 486 633 432 629 m 355 498 l 396 498 q 405 489 405 496 l 405 276 q 396 267 405 267 l 355 267 q 346 276 346 267 l 346 489 q 355 498 348 498 m 215 222 l 536 222 q 545 213 545 220 l 545 163 q 536 154 545 154 l 215 154 q 206 163 206 154 l 206 213 q 215 222 208 222 m 215 113 l 532 113 q 541 100 541 113 q 464 50 513 50 q 401 5 406 5 q 378 0 385 5 q 278 54 344 0 q 206 104 225 54 l 206 109 l 215 113 z "},"3":{"ha":757,"x_min":34,"x_max":713,"o":"m 351 968 l 396 968 q 686 765 575 968 q 713 629 713 692 q 568 353 713 516 q 541 203 541 309 q 545 181 545 196 q 541 176 545 176 l 545 154 q 459 50 545 50 q 373 0 406 0 q 296 41 344 0 l 229 68 q 201 122 201 102 l 201 276 q 102 448 201 336 q 34 625 34 543 l 34 638 q 283 960 34 865 q 351 968 326 968 m 88 643 l 88 625 q 224 385 88 530 q 256 285 251 317 q 500 335 500 323 q 613 498 517 387 q 659 638 659 576 q 469 901 659 810 q 391 914 426 914 l 369 914 q 364 919 364 914 q 120 765 221 919 q 88 643 88 701 m 369 860 l 378 860 q 391 846 385 860 l 391 769 q 373 751 391 762 q 355 765 355 758 l 355 846 q 369 860 355 852 m 264 833 l 269 833 q 319 751 319 779 l 319 747 q 305 733 319 740 l 301 733 q 251 814 283 733 l 251 819 q 264 833 251 825 m 477 833 q 496 819 496 826 q 437 733 467 733 l 423 751 q 477 833 461 833 m 193 755 q 269 692 269 721 l 256 684 q 174 728 232 684 l 174 742 q 193 755 174 749 m 554 751 l 564 751 q 572 742 572 750 l 572 733 q 500 684 564 718 l 491 684 q 477 697 484 684 l 477 706 q 554 751 511 741 m 156 647 l 237 647 q 251 633 244 647 l 251 629 q 220 611 243 611 l 161 611 q 142 629 153 611 l 142 633 q 156 647 142 640 m 505 647 l 591 647 q 600 638 600 646 l 600 625 q 564 611 597 611 l 523 611 q 496 625 499 611 l 496 638 q 505 647 497 647 m 256 579 q 269 566 262 579 l 269 557 q 183 507 235 521 l 174 520 l 174 534 q 256 579 235 579 m 496 579 q 572 530 566 545 l 572 520 q 559 507 572 514 l 550 507 q 477 557 486 541 l 477 566 q 496 579 477 577 m 296 525 l 310 525 q 319 516 319 524 l 319 511 q 269 430 311 471 l 264 430 q 251 444 258 430 l 251 448 q 296 525 262 492 m 437 525 l 450 525 q 496 444 494 472 q 482 430 496 437 l 473 430 q 423 516 423 493 l 437 525 m 364 507 l 378 507 q 391 493 385 507 l 391 416 q 378 403 391 410 l 369 403 q 355 416 362 403 l 355 498 q 364 507 357 507 m 256 231 l 256 199 q 491 249 483 240 l 491 271 l 256 231 m 256 117 q 491 168 491 157 l 486 190 l 256 145 l 256 117 z "},"4":{"ha":755,"x_min":34,"x_max":715,"o":"m 379 972 q 652 827 536 972 q 715 631 715 732 q 570 354 715 507 q 543 295 551 295 l 438 295 q 429 304 429 295 l 429 481 q 515 591 429 519 q 534 627 534 606 q 515 631 526 631 l 220 631 q 211 622 211 630 q 315 500 315 509 l 315 304 q 307 295 315 295 l 206 295 q 165 372 199 295 q 34 622 34 504 l 34 645 q 243 945 34 835 q 379 972 281 963 m 261 618 l 492 618 l 492 604 q 406 495 406 521 l 406 304 q 397 295 406 295 l 347 295 q 338 304 338 295 l 338 513 q 252 608 338 519 q 261 618 254 618 m 211 268 l 543 268 q 547 254 543 263 q 543 236 543 246 l 202 236 l 202 259 q 211 268 203 268 m 211 209 l 502 209 q 506 204 506 209 l 515 209 l 543 209 l 547 186 q 543 182 543 186 q 547 177 547 182 l 538 172 l 211 172 q 202 182 202 172 l 202 200 q 211 209 203 209 m 211 145 l 538 145 q 547 136 547 144 l 543 127 q 547 113 547 119 l 211 113 q 202 123 202 113 l 202 136 q 211 145 203 145 m 224 86 l 529 86 l 529 77 q 447 37 521 60 l 406 0 l 342 0 q 243 59 304 41 q 216 82 229 59 l 224 86 z "},"5":{"ha":755,"x_min":34,"x_max":717,"o":"m 375 974 q 685 774 573 974 q 717 633 717 698 q 571 351 717 514 q 544 269 553 314 l 548 259 l 548 146 q 466 50 548 50 q 393 0 411 0 l 343 0 q 243 59 305 41 q 202 127 214 59 l 202 259 q 102 441 202 342 q 34 623 34 547 l 34 633 q 284 960 34 868 q 375 974 319 969 m 89 646 l 89 610 q 216 391 89 538 q 252 309 234 365 l 284 309 l 212 642 l 275 715 l 284 715 q 343 591 304 703 l 357 591 q 430 660 357 651 q 444 678 437 678 l 448 678 q 475 646 453 678 q 503 660 493 660 q 539 646 518 660 q 466 309 466 323 l 498 309 q 612 492 498 361 q 662 633 662 572 q 466 901 662 819 q 371 919 433 913 q 106 737 203 919 q 89 646 89 685 m 279 665 q 252 623 266 633 q 325 309 313 309 l 430 309 q 489 596 489 582 l 475 587 l 471 587 q 444 628 444 606 q 366 555 401 628 l 339 555 q 284 665 325 559 l 279 665 z "},"6":{"ha":489,"x_min":34,"x_max":448,"o":"m 243 970 q 408 755 307 970 q 448 571 448 654 l 448 559 q 363 301 448 422 q 326 307 341 307 l 157 307 q 120 301 141 307 q 34 568 34 425 q 181 934 34 743 q 243 970 219 970 m 181 789 q 193 746 184 746 q 255 755 237 755 l 261 755 l 261 768 q 243 817 261 817 q 181 789 181 802 m 98 719 l 102 719 q 172 768 172 739 l 172 792 l 163 792 q 98 740 98 777 l 98 719 m 181 639 q 243 617 192 633 q 261 654 261 617 q 258 663 261 657 q 261 722 261 697 l 261 728 q 187 713 187 728 q 181 639 185 711 m 98 703 l 98 697 q 163 642 98 656 l 172 642 l 172 691 q 148 719 172 710 q 98 703 98 711 m 148 283 l 338 283 q 381 249 381 277 l 381 239 l 366 239 q 148 163 357 239 l 144 163 q 102 197 102 168 l 102 249 q 148 283 102 277 m 366 218 l 372 218 q 381 209 376 218 l 381 197 q 120 92 372 182 l 114 92 q 102 104 109 92 l 102 114 q 264 181 102 126 q 366 218 349 218 m 353 153 l 353 101 q 267 3 353 37 q 243 0 256 0 l 231 0 q 132 62 171 0 l 132 74 q 353 153 346 153 z "},"7":{"ha":795,"x_min":34,"x_max":760,"o":"m 397 974 q 672 729 500 974 q 760 500 760 589 q 612 329 760 408 q 571 319 612 319 l 571 315 q 595 289 592 315 l 595 286 q 555 255 595 255 l 239 255 q 199 289 199 255 q 222 315 202 315 l 222 319 q 168 339 184 319 q 34 500 34 410 q 218 857 34 636 q 397 974 328 974 m 64 511 q 208 349 64 428 q 229 319 229 328 l 564 319 q 672 406 570 345 q 729 514 729 452 q 548 857 729 653 q 397 947 460 947 q 128 702 290 947 q 64 511 71 602 m 420 712 l 423 705 l 423 635 q 578 625 527 625 l 578 621 q 359 517 557 604 l 356 524 l 356 585 l 359 591 q 215 614 224 614 l 215 621 q 420 712 219 621 m 232 242 l 561 242 q 595 212 595 237 l 595 208 q 557 178 595 178 l 232 178 q 199 212 199 182 q 232 242 199 236 m 239 165 l 555 165 q 595 134 595 165 l 595 131 q 564 101 591 101 l 222 101 q 199 138 199 110 q 239 165 205 165 m 286 84 l 511 84 q 517 77 517 83 q 460 0 511 0 l 340 0 q 279 54 279 11 l 279 77 q 286 84 280 84 z "},"8":{"ha":753,"x_min":34,"x_max":716,"o":"m 375 976 q 682 783 568 976 q 716 631 716 705 q 600 373 716 492 q 545 256 562 332 l 545 253 q 564 234 556 250 l 564 221 q 545 196 561 196 q 564 164 564 176 l 564 161 q 545 130 564 149 q 564 104 561 130 l 564 92 q 533 69 553 69 l 498 69 l 498 51 q 441 0 498 10 l 305 0 q 249 60 256 0 l 249 69 l 220 69 q 182 101 182 73 q 201 130 186 130 l 201 136 q 182 161 186 136 l 182 164 q 201 189 186 189 l 201 193 q 182 231 182 204 q 204 253 182 242 q 119 404 180 354 q 34 616 34 509 l 34 650 q 214 935 34 823 q 375 976 296 976 m 62 638 l 62 629 q 179 382 62 497 q 233 256 214 341 l 511 256 q 536 332 517 256 q 634 461 564 378 q 684 610 684 542 l 684 657 q 549 894 684 783 q 381 944 465 944 l 362 944 q 103 789 206 944 q 62 638 62 715 m 287 730 q 539 644 423 730 q 549 612 549 628 l 549 591 q 492 496 536 496 q 482 492 486 492 q 451 518 451 492 q 479 603 451 527 q 328 660 479 633 l 302 660 q 274 648 278 660 l 274 644 q 249 556 274 556 q 198 635 205 556 q 249 730 198 715 l 287 730 m 277 69 l 277 60 q 312 28 277 28 l 435 28 q 470 57 470 28 l 470 69 l 277 69 z "},"9":{"ha":746,"x_min":34,"x_max":702,"o":"m 368 974 q 673 775 566 974 q 702 637 702 703 q 583 378 702 500 q 522 220 553 348 q 469 195 495 195 l 277 195 q 204 262 204 195 q 110 432 191 345 q 34 640 34 525 q 176 911 34 801 q 368 974 269 974 m 72 640 q 195 388 72 509 q 245 243 218 360 q 267 233 256 233 l 469 233 q 507 309 497 233 q 598 454 517 366 q 664 640 664 534 q 463 920 664 835 q 361 936 414 936 q 106 779 204 936 q 72 640 72 709 m 305 886 l 327 886 q 333 880 333 884 q 214 788 260 857 q 144 756 154 756 q 233 863 170 830 q 305 886 273 886 m 163 779 l 163 775 l 166 775 q 239 838 205 785 q 286 870 273 867 l 286 873 l 283 873 q 163 779 199 846 m 380 744 l 380 706 q 456 700 444 703 l 456 693 l 352 646 q 330 687 352 687 q 277 693 327 687 l 277 696 q 380 744 277 703 m 229 722 q 258 687 252 722 q 248 665 248 671 q 298 287 298 310 l 289 281 l 277 281 q 248 406 264 281 q 208 671 216 671 q 198 681 203 671 l 198 693 q 229 722 198 718 m 513 722 q 541 690 541 712 q 522 665 534 665 q 469 287 519 622 l 459 281 l 447 281 q 437 296 439 281 l 488 668 q 481 687 481 678 l 481 703 q 513 722 492 722 m 176 703 q 179 700 176 700 q 166 637 166 668 l 166 621 q 185 539 166 589 q 160 498 160 509 l 154 498 q 103 630 103 549 q 135 684 103 684 q 176 703 138 687 m 116 652 l 116 612 q 154 514 116 561 l 157 514 q 172 542 157 519 q 154 630 154 597 q 160 684 160 681 q 116 652 116 672 m 235 186 l 500 186 q 532 155 532 180 l 532 145 q 510 117 532 126 l 513 101 q 472 60 503 60 q 406 0 472 7 l 333 0 q 267 47 278 0 q 239 69 267 64 q 223 107 223 83 q 226 117 226 113 q 204 145 210 117 l 204 155 q 235 186 210 186 m 233 157 l 233 148 q 239 142 233 142 l 503 142 q 507 148 503 148 q 488 161 503 161 l 248 161 l 233 157 m 254 111 q 252 101 254 107 q 254 92 254 95 l 478 92 q 485 98 485 92 l 485 104 q 478 111 485 111 l 254 111 m 292 63 l 292 60 q 330 28 292 31 l 406 28 q 444 60 444 31 l 444 63 l 292 63 z "}," ":{"ha":345,"x_min":0,"x_max":0,"o":""},"!":{"ha":943,"x_min":88,"x_max":849,"o":"m 459 1057 l 470 1057 q 654 1000 564 1057 q 706 959 677 985 q 754 901 739 924 q 817 700 817 805 l 817 690 q 752 486 817 584 q 707 432 737 464 q 639 330 670 385 q 604 243 604 265 l 604 76 q 594 75 604 75 l 585 41 q 345 20 582 41 l 344 20 l 344 41 q 336 74 344 42 l 326 74 q 326 75 326 74 l 326 243 q 260 379 322 283 q 218 436 241 410 q 168 500 183 473 q 113 690 113 592 l 113 701 q 165 886 113 796 q 349 1038 230 992 q 459 1057 406 1057 m 133 695 q 205 482 133 579 q 239 445 217 468 q 307 342 276 399 q 346 243 346 273 l 346 96 l 380 96 l 380 96 q 377 127 377 119 l 377 127 l 377 127 l 377 130 q 376 133 377 131 q 377 134 376 134 l 375 168 l 375 168 l 375 168 q 372 231 372 208 l 372 250 q 379 262 372 259 q 382 263 382 263 l 384 263 q 392 260 385 263 q 407 254 401 258 q 414 231 412 248 q 420 163 418 195 l 419 163 l 420 162 l 420 158 q 420 152 420 156 l 420 152 l 420 151 l 420 96 l 435 96 q 436 96 436 96 q 435 96 436 96 l 436 98 q 436 142 436 132 q 436 147 436 143 q 436 147 436 147 l 436 149 q 434 188 435 163 q 434 188 434 188 l 434 191 l 434 214 q 432 229 434 219 q 439 236 433 236 q 454 232 441 236 q 471 229 471 232 q 478 208 475 223 q 486 146 484 186 l 485 146 l 486 145 l 486 136 q 486 132 486 135 l 486 131 l 486 129 q 486 127 486 127 l 486 125 l 486 116 q 486 116 486 116 l 486 115 l 486 114 l 486 111 q 486 111 486 111 l 486 106 l 486 96 l 495 96 q 498 124 497 107 q 498 125 498 125 l 498 135 q 498 136 498 136 l 498 140 l 498 155 l 499 158 q 498 158 499 158 l 499 163 l 499 186 q 500 187 499 186 q 499 189 499 188 l 500 191 q 499 193 499 192 l 500 195 q 499 196 500 196 l 500 198 l 500 227 q 499 231 500 228 q 500 231 499 231 l 499 234 l 499 239 q 498 241 499 241 l 499 242 q 496 260 498 254 q 505 268 498 268 q 510 267 509 267 q 521 270 518 269 l 522 269 l 524 270 q 536 261 530 270 q 543 214 543 241 q 544 205 543 214 q 543 204 544 204 l 544 202 l 544 196 q 544 194 544 195 q 544 194 544 194 l 544 189 l 544 178 l 545 175 q 544 175 545 175 l 545 171 l 545 162 q 545 161 545 161 q 545 160 545 160 l 545 145 q 545 144 545 144 l 545 142 l 545 138 q 546 134 545 136 q 545 133 546 133 l 546 131 l 546 127 l 546 122 l 546 122 l 546 121 q 547 96 547 101 l 548 96 l 548 96 l 550 111 q 549 111 550 111 l 550 114 l 550 117 q 548 170 550 138 q 557 179 550 179 q 564 180 562 179 q 578 170 574 180 q 583 145 583 155 l 583 145 l 583 243 q 648 386 583 281 q 696 451 669 420 q 745 515 733 490 q 796 695 796 599 q 723 908 796 812 q 680 955 712 924 q 558 1022 621 1004 q 464 1036 513 1036 q 277 977 363 1036 q 228 934 260 966 q 218 924 228 933 q 186 879 195 895 q 133 695 133 793 m 745 983 l 746 983 q 753 976 753 982 l 753 975 q 746 966 753 971 q 731 957 737 957 q 723 964 723 958 q 731 973 723 970 q 745 983 741 983 m 511 969 q 523 958 519 969 q 526 935 526 945 q 526 934 526 935 q 526 931 526 932 l 526 930 l 526 928 l 526 926 l 526 924 l 526 922 q 526 921 526 922 l 526 910 q 526 909 526 909 q 521 858 524 888 q 521 857 521 857 l 520 850 q 521 850 520 850 l 520 846 l 520 833 q 520 833 520 833 l 520 832 l 520 830 q 520 829 520 829 q 520 828 520 828 q 520 822 520 824 l 520 819 l 528 819 q 551 821 531 819 q 564 817 564 819 q 566 808 565 817 q 566 807 566 808 q 566 806 566 806 q 565 786 565 795 l 565 783 q 555 772 563 772 l 551 772 q 536 770 538 770 q 536 770 536 770 l 534 770 l 523 770 q 511 769 515 770 q 492 777 505 769 q 489 785 489 785 l 489 787 l 489 788 q 496 881 489 792 q 500 920 498 918 q 498 925 498 924 l 499 926 q 498 927 499 926 q 505 966 501 966 q 511 969 507 969 m 353 966 l 356 966 q 381 960 357 966 l 399 954 q 403 947 403 950 q 394 939 403 941 q 381 878 394 932 q 379 860 379 868 q 379 859 379 859 l 379 857 q 379 854 379 856 l 379 853 q 379 850 379 852 l 379 850 l 379 849 q 387 814 379 828 q 391 812 390 812 q 410 832 399 814 q 425 876 416 842 q 434 939 428 895 l 433 939 q 422 949 425 939 l 422 949 q 429 958 423 958 q 437 954 431 958 q 473 946 442 954 q 477 939 477 943 q 469 932 475 932 l 460 933 l 460 933 l 460 928 q 460 926 460 927 q 460 925 460 926 q 460 922 460 924 q 460 921 460 921 l 460 918 l 460 907 q 459 903 460 905 q 460 903 459 903 l 459 901 q 454 836 459 875 q 431 782 448 804 q 392 761 412 761 q 353 791 369 761 q 346 821 346 810 l 347 821 l 346 822 l 346 840 q 347 840 346 840 l 346 841 q 361 924 351 891 q 371 947 366 937 l 370 947 q 350 952 356 951 q 346 959 346 955 q 353 966 347 966 m 164 958 q 175 947 170 958 q 183 936 183 941 q 175 928 182 928 q 167 934 171 928 q 158 941 161 940 q 155 948 155 943 q 164 958 157 958 m 276 940 q 313 929 294 940 q 332 907 326 919 q 337 890 337 896 q 302 859 337 869 l 302 859 q 314 832 312 846 l 313 831 l 314 829 q 297 794 314 814 q 260 780 281 780 q 235 785 239 780 l 235 788 l 235 790 q 243 840 237 804 q 259 924 252 881 q 269 936 262 936 q 275 940 269 938 l 276 940 m 794 935 q 801 926 800 935 q 789 917 801 920 q 768 905 769 905 l 767 905 q 760 913 760 906 q 780 929 760 919 q 794 935 790 935 m 628 915 l 631 915 q 656 895 650 915 l 658 887 q 642 852 658 872 l 643 852 l 654 854 q 656 853 654 854 q 657 854 656 853 q 691 843 674 854 q 708 808 708 831 q 688 766 708 783 l 672 757 q 646 746 660 751 q 623 740 635 740 q 604 734 621 739 q 595 742 595 736 l 593 742 q 583 761 583 742 l 584 762 q 583 763 583 762 l 583 764 q 584 765 583 764 q 583 767 583 766 l 583 768 q 584 769 583 768 q 583 770 583 770 l 583 771 q 584 773 583 772 q 583 774 583 774 l 583 775 q 584 777 583 776 q 583 779 583 777 l 583 779 q 584 780 583 780 l 583 781 l 583 785 q 577 860 583 806 q 577 870 577 863 q 576 871 577 871 q 610 912 576 900 q 628 915 618 915 m 121 888 l 124 888 q 134 880 127 888 q 140 872 140 876 q 132 864 138 864 q 119 873 129 864 q 114 879 114 875 l 114 880 q 121 888 114 886 m 842 884 q 849 876 848 884 l 849 875 q 840 864 849 871 q 824 854 829 854 q 816 862 816 856 q 825 871 816 867 q 842 884 837 884 m 96 831 q 105 825 99 831 q 111 814 111 821 q 102 808 111 809 q 95 814 99 808 q 88 823 88 819 q 96 831 90 831 m 585 718 q 593 711 593 717 l 593 709 q 585 680 585 682 l 587 680 q 600 680 592 680 q 607 673 607 678 l 607 672 q 598 664 607 665 l 583 664 q 579 644 582 664 q 572 607 573 611 q 564 602 568 602 q 556 610 556 603 q 566 656 559 614 q 566 663 566 659 q 565 664 565 663 l 563 663 l 552 663 q 550 636 551 663 q 543 602 547 602 q 538 601 540 601 q 531 609 531 602 q 536 663 534 630 l 533 663 q 525 662 530 663 q 517 669 517 663 q 535 678 517 678 l 537 678 q 543 711 541 711 q 550 716 545 716 l 551 716 q 558 709 558 715 l 558 707 q 554 692 555 702 l 553 679 l 564 679 l 566 680 q 567 679 567 679 q 570 684 570 679 q 581 717 578 717 q 585 718 585 718 m 191 705 q 199 692 199 705 q 199 688 199 692 q 198 684 198 686 l 198 680 q 199 679 198 680 q 198 677 198 678 l 199 675 q 198 674 199 674 l 199 671 l 199 663 q 199 660 199 662 l 199 659 q 199 654 199 658 q 221 685 207 667 q 225 686 224 686 l 227 686 q 235 673 235 686 q 239 638 237 652 l 239 638 q 252 695 248 679 q 258 700 256 700 l 260 700 q 268 692 268 699 q 254 635 264 682 q 241 610 249 610 q 237 609 241 609 l 236 609 q 221 659 226 609 q 206 634 213 650 q 199 614 201 618 q 193 612 197 612 l 193 612 q 184 627 184 612 q 184 628 184 628 l 184 634 q 184 635 184 635 l 184 637 l 184 643 l 183 646 q 184 646 183 646 l 183 650 l 183 656 q 183 661 183 658 q 183 661 183 661 l 183 663 l 183 672 q 182 675 183 673 q 183 677 183 676 l 182 680 q 183 680 182 680 l 182 683 q 183 685 182 684 q 182 686 182 686 l 182 687 q 183 688 182 688 q 182 690 182 689 l 182 690 q 183 692 182 692 l 182 694 l 182 698 q 191 705 184 705 m 307 702 q 317 699 314 699 q 326 690 323 696 q 327 680 326 684 q 308 627 327 661 q 290 614 301 614 q 280 625 280 618 q 279 636 279 625 l 279 638 l 279 639 q 292 688 283 670 q 307 702 299 702 m 465 700 l 467 700 q 477 691 477 698 l 477 690 q 469 683 475 683 q 466 684 467 684 q 456 669 460 679 q 450 637 450 655 q 452 625 450 631 l 453 625 q 460 629 457 629 l 460 629 q 469 621 467 629 q 456 610 469 615 q 450 610 453 610 q 438 618 442 612 q 434 638 434 629 l 435 638 q 434 640 434 640 l 435 644 q 434 644 435 644 q 442 677 435 658 q 457 695 450 692 q 465 700 457 697 m 769 698 l 770 698 q 777 690 776 698 q 767 675 777 688 q 758 656 758 659 q 774 646 768 653 q 777 637 775 644 q 777 636 777 637 q 777 633 777 635 q 762 607 777 625 q 724 558 743 585 q 702 538 705 538 l 700 538 q 692 546 693 538 l 692 547 q 711 566 692 551 q 756 625 731 593 q 762 635 762 632 q 747 643 762 640 q 741 651 741 646 l 741 655 q 764 696 743 669 q 769 698 768 698 m 397 696 q 401 695 401 696 l 404 695 q 418 687 410 694 q 427 663 427 675 q 405 610 427 638 q 390 600 395 602 q 385 599 387 599 q 376 608 378 599 q 391 684 387 657 q 389 688 389 686 l 389 689 q 397 696 389 696 l 397 696 m 353 693 q 364 687 361 693 q 371 677 368 685 q 372 671 372 673 l 372 669 q 354 621 372 646 q 338 612 348 612 l 337 612 q 328 621 332 612 q 328 628 328 624 l 328 629 q 344 685 328 656 q 353 693 349 693 m 663 692 l 664 692 q 679 678 675 692 q 679 673 679 676 l 679 672 q 666 642 679 658 l 666 642 q 686 625 680 632 q 686 623 686 624 l 686 622 q 679 614 685 614 l 678 614 q 665 623 675 614 q 660 627 665 624 q 656 606 659 606 q 651 604 654 604 q 644 611 644 606 l 648 665 l 648 666 l 647 666 q 640 661 644 661 l 640 662 q 625 654 625 661 l 622 642 l 623 642 l 633 644 q 640 637 640 642 l 640 635 q 631 628 640 629 q 618 623 618 627 q 617 612 617 613 q 632 618 621 612 l 633 618 q 640 611 640 616 l 640 610 q 620 597 640 601 q 614 597 617 597 q 602 612 602 598 l 603 623 q 601 627 601 624 l 601 629 q 605 635 601 632 q 614 675 612 671 q 620 678 617 678 q 627 675 627 677 q 641 677 631 676 q 647 673 644 676 l 647 674 l 647 680 q 654 689 647 683 q 663 692 654 690 m 712 686 l 714 686 q 720 682 717 686 q 739 684 731 684 q 745 676 744 684 q 734 669 745 669 q 722 664 722 669 q 720 660 722 663 l 720 657 l 720 657 q 728 659 722 657 q 736 651 736 657 l 736 650 q 722 642 736 643 q 719 640 719 642 l 719 623 q 731 627 722 623 l 732 627 q 739 618 738 627 q 721 608 739 610 l 717 607 q 706 612 709 607 q 703 627 703 614 l 703 637 q 699 644 699 641 q 704 652 699 648 q 707 684 705 681 q 712 686 710 686 m 305 680 q 294 633 294 655 q 310 670 304 648 q 311 677 311 674 q 305 680 308 677 m 405 677 q 395 623 405 671 q 412 663 412 644 q 406 677 412 671 l 405 677 m 507 677 q 514 671 512 677 q 500 614 514 631 q 494 612 495 612 l 492 612 q 482 620 482 616 q 477 640 479 624 q 476 651 476 646 l 476 659 q 485 676 478 676 q 487 676 485 676 q 494 668 494 676 q 492 656 492 662 l 492 654 q 494 634 492 636 q 498 660 498 649 l 498 667 q 507 677 499 677 m 355 674 q 343 635 347 661 l 343 631 q 352 647 348 637 q 357 667 357 659 l 357 670 q 355 674 356 674 l 355 674 m 694 616 q 702 609 700 616 l 702 608 q 695 601 700 601 l 693 601 q 686 610 687 601 q 694 616 686 615 m 349 551 q 351 551 350 551 q 352 551 351 551 q 380 539 366 551 q 391 530 387 539 q 407 488 407 508 l 407 488 q 407 486 407 487 q 393 427 407 445 q 374 416 386 416 q 362 421 367 417 q 342 448 353 429 q 313 490 321 477 q 308 507 308 499 q 334 546 308 525 q 349 551 344 551 m 561 550 l 565 550 q 584 539 573 549 q 594 511 594 526 l 594 508 l 594 507 q 583 472 594 492 l 564 450 q 541 420 550 431 q 516 408 526 408 q 504 418 507 408 q 500 458 500 435 l 500 469 q 500 470 500 470 q 500 471 500 471 q 511 511 500 489 q 533 536 518 522 q 559 550 549 549 q 561 550 559 550 m 435 364 q 452 331 447 364 q 452 326 452 328 q 433 291 452 305 q 425 289 428 289 q 412 298 414 289 q 409 311 410 300 q 425 355 409 335 q 429 361 427 355 q 435 364 431 363 m 479 358 q 489 355 484 358 q 500 341 496 355 q 506 317 506 330 q 489 289 506 298 q 484 288 485 288 l 480 288 q 465 300 467 290 q 465 302 465 300 l 465 307 q 474 356 470 356 q 479 358 476 358 m 583 33 q 593 15 589 22 q 582 -3 583 -2 q 347 -24 578 -3 q 336 -6 336 -7 q 348 12 347 12 l 583 33 m 585 -11 l 585 -12 l 585 -23 q 558 -26 585 -24 q 345 -45 554 -26 l 345 -44 l 345 -33 q 379 -29 345 -32 q 585 -11 381 -29 m 583 -33 q 593 -50 593 -49 q 582 -67 583 -67 l 347 -89 q 336 -71 337 -72 q 348 -53 346 -54 q 583 -33 579 -33 l 583 -33 m 585 -76 l 585 -77 l 585 -87 q 585 -89 585 -89 l 345 -110 l 345 -109 l 345 -98 q 374 -95 345 -96 q 585 -76 374 -94 m 583 -97 l 593 -115 q 581 -132 583 -132 q 346 -153 357 -153 l 346 -153 l 336 -136 q 348 -118 346 -118 l 583 -97 m 585 -140 l 585 -141 l 585 -174 q 544 -200 583 -176 q 543 -197 543 -197 l 387 -197 q 385 -200 387 -200 q 345 -174 348 -177 l 345 -163 q 345 -161 345 -161 l 585 -140 m 404 -205 l 526 -205 l 526 -205 q 500 -220 526 -206 q 499 -222 500 -222 l 431 -222 q 429 -220 430 -222 q 404 -205 406 -207 l 404 -205 z "},"\"":{"ha":1045,"x_min":61,"x_max":929,"o":"m 493 964 l 494 964 q 506 958 506 962 q 508 950 507 958 l 508 950 q 498 936 508 940 q 508 920 508 930 l 508 920 q 498 906 508 910 l 498 905 q 508 890 508 901 l 508 890 q 498 876 508 880 l 498 875 q 508 861 508 871 l 508 860 q 498 845 508 850 q 508 831 508 841 l 508 830 q 494 815 506 815 l 492 815 q 478 829 478 817 l 478 831 q 489 844 478 839 q 479 859 479 850 l 479 860 q 488 873 479 870 l 488 875 q 479 889 479 879 l 479 890 q 488 904 479 900 l 488 905 q 479 920 479 909 l 479 920 q 488 934 479 930 l 488 935 q 479 948 479 941 l 479 950 q 493 964 481 964 m 255 892 l 256 892 q 271 880 268 892 l 271 878 q 269 869 271 873 l 270 869 q 272 869 271 869 q 286 860 279 869 l 288 853 q 284 844 287 846 l 286 844 q 288 844 288 844 q 302 836 296 844 l 304 828 q 300 819 302 821 l 302 819 q 304 820 303 819 q 318 810 312 820 l 320 804 q 317 795 319 798 l 321 795 q 335 783 332 795 l 335 779 q 321 765 334 765 l 320 765 q 305 779 305 767 l 305 780 q 307 789 305 784 l 304 789 q 289 803 289 791 q 292 812 289 808 l 286 812 q 274 821 280 812 l 273 828 q 276 838 273 833 l 270 838 q 258 846 264 838 l 256 852 q 259 861 257 858 l 254 861 q 241 873 246 861 q 241 878 241 875 l 241 878 q 255 892 243 892 m 730 889 l 731 889 q 746 877 743 889 l 746 873 q 731 859 744 859 q 727 860 731 859 q 730 852 730 855 l 730 848 q 717 836 730 840 l 711 836 q 714 827 714 831 l 714 824 q 701 810 714 815 l 695 810 q 698 802 698 806 l 698 800 q 685 787 698 790 l 683 787 q 679 787 682 787 q 682 778 682 783 l 682 777 q 667 763 680 763 l 665 763 q 652 772 655 763 l 652 776 l 652 777 q 665 792 653 792 l 666 792 q 670 791 668 792 l 670 791 q 667 800 667 796 l 667 802 q 682 817 667 812 q 685 816 684 816 l 686 816 q 683 824 683 821 l 683 827 q 699 841 683 837 q 701 841 699 841 l 703 841 q 699 848 699 845 l 699 852 q 715 866 699 861 q 717 865 715 865 l 718 865 q 715 874 715 869 l 715 875 q 730 889 718 889 m 490 769 l 498 769 q 662 706 591 769 q 737 522 737 629 l 737 517 q 672 341 737 429 q 636 287 646 304 q 616 214 616 254 q 606 194 612 201 q 581 175 597 183 q 494 153 536 153 l 494 153 q 399 179 447 153 q 372 212 380 190 q 368 249 370 236 q 339 308 363 268 q 259 453 271 401 q 251 517 251 484 l 251 522 q 314 693 251 621 q 368 736 347 726 q 490 769 425 769 m 273 518 q 330 361 273 439 q 392 246 389 283 q 395 217 394 235 q 427 190 400 202 q 469 178 444 183 q 480 177 471 178 q 476 222 479 186 q 463 247 465 244 q 326 493 326 380 q 334 527 326 527 q 369 532 334 530 l 372 532 q 463 500 423 532 q 463 500 463 500 q 494 542 475 520 q 543 584 529 577 q 599 612 564 600 q 640 621 629 621 q 653 606 651 621 q 662 527 662 568 q 601 338 662 422 q 501 217 572 295 q 505 176 501 203 q 551 186 535 180 q 588 208 575 195 q 594 237 594 214 q 624 312 597 270 q 686 408 669 378 q 713 517 713 460 q 644 688 713 621 q 493 745 581 745 q 321 665 387 745 q 273 518 273 602 m 456 721 q 469 710 469 718 q 451 696 469 698 q 379 659 416 690 q 354 631 370 650 q 348 630 350 630 l 344 630 q 335 640 335 633 l 335 642 q 374 685 335 651 q 456 721 407 711 m 98 699 l 100 699 q 115 684 115 696 l 115 683 q 126 688 119 688 l 127 688 q 142 672 142 686 q 154 677 147 677 l 155 677 q 170 662 170 675 q 182 667 175 667 l 182 667 q 198 649 197 667 q 208 654 203 654 l 210 654 q 225 642 222 654 l 225 639 q 211 625 223 625 l 210 625 q 195 640 197 625 l 195 640 q 184 635 189 635 l 180 635 q 167 648 172 635 l 167 651 q 155 646 162 646 l 155 646 q 139 662 139 648 q 127 657 134 657 l 127 657 q 111 674 113 657 q 101 669 106 669 l 98 669 q 85 682 85 671 l 85 684 q 98 699 87 699 m 889 698 l 891 698 q 905 685 902 698 l 905 682 q 892 667 903 667 l 890 667 q 879 672 884 667 l 879 672 q 863 656 877 656 l 863 656 q 850 661 856 656 q 836 645 849 645 l 835 645 q 823 650 827 645 q 811 634 823 638 l 806 634 q 795 639 802 634 q 785 624 795 627 l 781 624 l 779 624 q 765 637 765 626 l 765 639 q 779 654 767 654 l 781 654 q 791 649 787 654 l 792 649 q 807 665 793 665 l 808 665 q 820 661 815 665 q 836 676 821 676 l 836 676 q 848 671 843 676 q 863 687 849 687 l 863 687 q 876 682 871 687 q 886 697 876 694 l 889 698 m 456 386 q 477 277 456 338 l 478 277 l 478 279 q 498 391 478 317 q 524 457 509 426 q 562 515 536 480 q 570 518 566 518 l 572 518 q 582 505 582 516 l 582 504 q 574 492 582 500 q 532 414 543 448 q 511 342 519 385 q 501 256 501 292 q 583 357 555 314 q 638 530 638 434 q 631 599 638 562 q 573 577 595 589 q 524 541 552 565 q 478 479 490 505 q 456 386 456 439 m 351 509 q 350 496 350 500 q 445 301 350 406 q 433 374 433 346 q 401 440 418 416 q 387 456 387 455 q 386 460 386 459 q 397 473 388 473 q 435 427 411 473 l 435 427 q 452 480 436 442 q 374 511 419 511 q 351 509 362 511 m 797 476 l 799 476 q 813 463 810 476 l 813 463 l 814 463 q 827 470 819 470 q 842 458 838 470 q 842 457 842 458 l 843 457 q 856 465 848 465 q 871 453 867 465 q 871 452 871 452 l 871 452 q 885 459 876 459 q 900 446 895 459 l 901 446 q 912 452 901 450 l 913 452 q 929 435 926 452 q 915 422 929 425 l 913 422 q 899 435 902 422 l 899 435 q 886 429 892 429 l 882 429 q 869 440 873 429 l 869 441 l 869 441 q 856 433 863 433 q 840 445 844 433 q 840 446 840 446 l 840 446 q 826 439 835 439 q 811 452 817 439 l 810 452 q 800 446 810 448 l 798 446 q 783 458 787 446 l 783 461 q 797 476 785 476 m 190 475 l 191 475 q 205 463 202 475 l 205 459 q 192 445 204 445 l 190 445 q 179 450 182 445 l 178 450 q 164 439 174 439 q 151 446 155 439 l 150 446 q 138 434 150 439 l 135 433 q 121 441 126 433 l 121 441 q 108 429 117 429 l 104 429 q 92 435 95 429 l 91 435 q 77 422 91 425 l 75 422 q 61 435 64 422 l 61 437 q 75 452 63 452 l 77 452 q 88 445 88 450 l 89 445 q 100 458 89 452 l 104 458 q 117 450 113 458 l 118 450 q 130 463 118 458 l 133 463 q 146 456 142 463 l 146 456 q 159 468 146 463 l 162 469 q 175 461 171 469 l 176 461 q 190 475 176 472 m 710 318 l 712 318 q 726 306 723 318 l 726 302 q 725 296 726 300 l 726 296 q 732 297 730 297 q 748 281 745 297 q 746 275 747 277 q 753 276 752 276 q 769 259 766 276 q 768 254 769 256 q 775 254 774 254 q 791 238 787 254 q 789 232 790 235 l 789 232 q 797 233 792 233 q 811 220 811 233 l 811 219 q 797 205 809 205 l 795 205 q 781 218 781 207 l 781 220 q 782 227 782 225 q 775 225 779 225 q 760 241 762 225 q 762 247 760 245 q 753 246 755 246 q 739 262 742 246 q 740 269 739 266 q 732 267 734 267 q 717 284 720 267 q 718 290 718 288 l 718 290 q 711 288 715 288 q 696 302 696 290 l 696 304 q 710 318 699 318 m 274 317 l 276 317 q 290 305 286 317 q 290 301 290 303 l 290 300 q 277 286 288 286 l 274 286 q 269 288 273 286 l 269 287 q 269 280 269 282 q 253 264 269 268 q 247 267 250 265 q 248 259 248 260 q 231 243 248 247 q 226 245 228 243 q 227 237 227 239 q 216 223 227 228 q 212 223 215 223 l 210 223 q 204 224 208 223 l 204 224 q 205 218 205 220 l 205 217 q 192 203 204 203 l 190 203 q 176 216 176 205 l 176 218 q 190 233 178 233 l 192 233 q 197 231 193 233 l 197 231 q 197 239 197 236 q 213 254 197 250 q 219 252 217 254 q 218 260 218 258 q 235 275 218 272 q 241 274 238 275 q 239 281 239 279 q 256 297 239 294 q 262 295 260 296 l 262 296 q 260 302 260 299 l 260 302 q 274 317 262 317 m 390 168 q 414 155 395 166 q 494 135 452 135 q 592 166 547 135 q 597 167 597 167 q 608 155 605 167 l 608 155 q 556 121 608 141 q 495 111 526 111 l 491 111 q 380 149 431 111 q 378 157 378 155 q 390 168 378 165 m 390 126 q 414 113 393 126 q 494 96 448 96 q 593 125 554 96 q 597 126 595 126 q 608 113 605 126 l 608 113 q 553 81 608 99 q 496 73 524 73 l 490 73 q 380 107 424 73 q 378 115 378 113 q 390 126 378 123 m 390 85 q 411 74 393 85 q 495 58 441 58 q 593 83 559 58 l 597 84 l 598 84 q 607 74 605 84 l 607 73 q 563 45 607 60 q 537 38 551 41 q 522 10 537 26 q 494 0 508 0 l 492 0 q 450 34 463 0 q 446 39 450 39 q 389 60 422 41 q 378 74 378 66 q 390 85 378 83 m 475 35 q 494 22 481 22 q 513 35 507 22 l 475 35 z "},"#":{"ha":1206,"x_min":81,"x_max":1085,"o":"m 584 959 l 585 959 q 602 945 596 959 q 602 939 602 941 l 602 771 q 590 751 602 755 q 585 750 588 750 l 583 750 q 568 764 572 750 q 567 771 567 768 l 567 939 q 578 958 567 954 q 584 959 582 959 m 239 815 q 260 801 248 815 q 376 684 375 686 q 379 675 379 680 q 365 658 379 663 l 361 658 q 340 672 352 658 q 224 789 226 786 q 221 798 221 793 q 235 815 221 810 q 239 815 237 815 m 929 814 l 930 814 q 946 800 941 814 q 946 798 946 799 l 946 795 q 933 777 946 787 q 817 661 819 663 q 808 658 812 658 q 791 671 795 658 q 790 675 791 671 q 804 696 790 684 q 920 811 919 811 q 929 814 924 814 m 585 671 q 743 609 673 671 q 776 571 768 585 q 814 450 814 514 l 814 444 q 772 321 814 369 q 734 269 741 283 q 720 238 726 257 q 714 200 717 225 q 706 177 711 186 q 681 145 699 164 q 668 139 676 139 l 500 139 q 480 154 490 139 q 460 184 463 174 q 452 225 455 191 q 425 286 448 253 q 382 340 382 338 q 355 444 355 381 l 355 450 q 420 605 355 536 q 585 671 492 671 m 389 449 l 389 447 q 419 348 389 386 q 456 301 444 317 q 486 229 479 267 q 493 195 488 202 q 509 174 498 186 l 558 174 q 545 242 558 195 q 514 315 532 280 q 458 408 491 360 q 454 410 458 410 q 450 415 452 410 l 450 416 q 460 427 450 420 q 479 448 479 441 q 492 470 482 470 q 498 462 496 470 l 498 460 q 490 439 498 453 q 490 428 490 433 l 490 425 q 496 409 490 409 l 497 409 q 512 418 500 409 q 511 427 511 421 q 522 458 511 443 q 542 467 531 467 q 558 460 550 467 q 560 476 559 460 q 570 515 567 515 q 578 519 574 519 q 585 507 585 518 q 574 465 585 497 q 570 432 570 450 q 576 411 570 411 l 577 411 q 586 414 583 412 q 581 433 581 423 l 581 436 q 596 463 581 454 q 609 467 601 467 q 630 452 625 467 q 631 444 631 450 l 631 444 q 610 414 631 428 q 623 411 610 412 l 623 411 q 640 416 632 411 q 636 432 636 425 q 654 463 636 452 q 667 465 662 465 q 684 457 674 465 q 692 467 687 467 l 692 467 q 701 459 699 467 q 692 436 701 456 l 692 433 l 692 431 q 700 416 692 425 q 702 416 701 416 l 705 416 q 715 418 707 416 l 715 418 q 722 412 722 417 q 716 405 722 408 q 654 306 677 347 q 625 242 637 274 q 610 174 610 195 l 661 174 q 680 210 680 197 q 690 255 685 242 q 713 300 699 279 q 749 347 725 317 q 779 447 779 385 l 779 449 q 719 585 779 526 q 644 628 682 617 q 585 637 614 637 q 450 585 509 637 q 389 449 389 526 m 102 469 l 265 469 q 285 458 281 469 q 286 452 286 456 l 286 452 q 271 435 286 439 q 267 435 270 435 l 101 435 q 82 447 86 435 q 81 451 81 450 l 81 453 q 95 469 81 464 q 102 469 100 469 m 904 469 l 1063 469 q 1084 459 1079 469 q 1085 452 1085 454 q 1072 435 1085 439 q 1065 435 1067 435 l 903 435 q 883 447 888 435 l 883 452 l 883 452 q 898 469 883 465 q 904 469 900 469 m 594 433 q 597 420 594 425 q 618 445 618 434 q 608 454 618 452 q 595 441 598 454 q 594 433 594 437 m 524 428 l 524 426 q 534 409 524 414 l 537 409 l 539 409 q 554 426 548 409 q 555 435 555 432 l 555 437 q 543 453 555 450 l 541 453 q 525 436 531 453 q 524 428 524 431 m 649 433 l 649 431 q 661 416 649 420 q 666 416 663 416 l 671 416 q 677 425 675 416 q 678 430 677 425 q 670 451 678 447 l 667 452 l 666 452 q 650 437 654 452 q 649 433 649 435 m 465 414 q 524 315 504 355 q 562 212 549 266 q 567 174 567 184 l 601 174 q 616 244 601 197 q 704 401 636 303 l 704 402 q 686 412 692 402 l 686 412 q 667 403 682 403 q 649 407 658 403 q 623 398 638 398 q 597 405 610 398 q 576 398 585 398 q 562 409 565 398 q 561 410 562 410 q 538 395 551 395 q 517 406 527 395 q 497 395 504 395 q 477 423 477 395 q 465 414 474 420 m 509 129 l 660 129 q 673 116 673 127 l 673 114 q 661 103 669 103 l 508 103 q 496 114 496 106 l 496 116 q 509 129 496 127 m 508 92 l 661 92 q 673 81 673 89 l 673 79 q 660 66 673 68 l 509 66 q 496 79 496 68 l 496 81 q 508 92 499 92 m 519 56 l 650 56 q 660 43 658 56 l 660 42 q 650 30 660 32 l 519 30 q 509 42 509 32 l 509 43 q 519 56 511 56 m 554 19 l 614 19 q 628 7 628 18 l 628 6 q 618 -6 628 -3 q 613 -7 615 -7 l 556 -7 q 542 1 545 -7 q 541 6 541 4 l 541 7 q 554 19 541 18 z "},"$":{"ha":688,"x_min":41,"x_max":652,"o":"m 324 981 l 368 981 l 372 978 l 394 978 q 396 976 396 977 q 395 975 395 976 l 411 975 q 412 972 412 975 l 422 972 q 424 969 424 972 l 433 969 q 444 966 433 966 l 444 964 l 450 964 q 452 961 452 964 l 456 961 q 465 958 463 958 q 472 954 467 956 l 472 952 l 477 952 l 477 949 q 478 951 478 949 q 495 941 493 947 q 502 939 498 941 q 509 936 508 936 q 519 929 514 930 q 528 924 519 926 q 539 915 534 915 q 556 900 546 905 q 579 876 579 879 q 593 861 579 874 q 599 852 593 857 q 600 849 599 849 q 602 850 600 850 q 607 838 602 846 q 611 831 610 836 q 616 823 615 829 l 623 810 q 629 798 627 801 l 629 792 q 633 786 633 792 q 635 785 635 786 l 635 778 q 638 776 638 778 l 638 769 q 641 759 641 769 l 643 760 l 644 758 l 644 747 q 646 745 646 747 l 646 732 q 650 731 650 732 l 650 712 l 651 713 l 652 711 l 652 664 q 650 662 652 662 l 650 644 q 646 642 650 642 l 646 633 q 644 631 646 631 l 644 622 q 641 620 644 620 l 641 613 q 638 612 641 612 l 638 605 q 635 603 638 603 l 635 597 q 631 589 633 594 l 629 589 l 629 583 q 626 575 627 580 q 623 569 624 575 q 621 564 621 569 q 617 558 618 564 q 610 544 616 558 q 607 536 607 540 q 600 524 604 536 q 595 515 597 524 q 592 510 593 515 q 589 505 590 510 q 584 496 586 505 q 581 490 581 496 q 578 485 578 490 q 572 476 572 481 q 567 468 569 476 q 561 459 563 468 q 558 454 559 459 q 553 446 555 454 l 548 442 l 548 437 q 544 431 544 437 q 536 419 541 431 l 535 420 l 534 420 l 534 419 l 536 419 l 536 418 q 530 409 533 418 q 527 403 528 409 q 519 389 524 403 q 516 383 517 389 q 511 375 513 383 q 507 369 508 375 q 505 363 505 369 q 502 358 503 363 q 499 352 500 358 l 497 352 l 497 343 q 494 341 497 341 l 494 315 q 492 314 492 315 l 492 253 q 485 239 488 249 q 479 231 481 239 l 474 227 q 473 229 474 229 l 473 227 l 474 225 l 469 225 l 469 193 l 465 189 l 446 189 l 446 178 l 453 178 q 460 174 456 175 q 466 168 460 172 l 466 161 q 469 159 469 161 l 469 157 q 463 144 465 153 q 453 138 458 144 l 446 138 l 446 135 l 453 135 q 460 132 456 132 q 466 125 460 130 l 466 119 q 469 117 469 119 l 469 115 q 463 102 465 111 q 455 98 458 98 q 453 96 455 96 l 446 96 l 446 93 l 453 93 q 460 90 456 90 q 463 82 463 85 l 466 82 l 466 76 q 469 74 469 76 l 469 73 q 466 71 469 71 l 466 64 q 465 62 466 62 q 463 63 465 63 q 457 56 463 58 q 453 54 456 56 l 444 54 q 428 37 444 51 q 414 25 423 37 l 382 25 q 376 19 382 23 q 370 10 376 14 q 363 0 370 5 l 330 0 q 321 12 323 5 q 319 14 321 12 l 319 16 l 319 17 l 319 17 l 317 16 q 313 22 317 20 q 311 25 311 22 l 281 25 q 268 37 275 29 q 254 48 263 37 q 248 54 248 48 q 246 56 246 54 l 246 62 q 238 65 243 62 q 226 79 226 73 q 224 81 224 79 l 224 83 q 227 85 224 85 l 227 91 q 237 102 227 92 l 246 102 l 246 104 q 238 107 243 104 q 226 122 226 115 q 224 124 224 122 l 224 125 q 227 127 224 127 l 227 134 q 237 144 227 134 l 243 144 l 243 146 l 243 149 q 243 149 243 149 q 233 153 235 149 q 227 159 233 155 l 227 166 q 224 168 224 166 q 227 169 226 169 l 227 176 q 240 186 235 186 l 241 186 l 241 189 l 229 189 q 224 193 228 189 l 224 225 q 212 234 217 225 q 207 242 212 235 q 201 253 205 248 l 201 313 q 199 315 199 313 l 199 341 q 196 343 196 341 l 196 352 q 192 358 193 352 q 189 363 191 358 q 186 369 188 363 q 184 375 185 369 q 180 380 182 375 q 179 384 179 380 l 177 383 q 165 405 170 401 q 159 415 161 415 q 153 425 159 420 q 150 431 153 429 q 147 437 149 431 q 141 446 142 446 q 136 454 137 454 l 136 456 l 136 456 l 136 456 l 136 454 l 134 454 q 131 462 134 458 q 125 471 131 464 q 119 479 125 472 q 111 492 117 487 q 102 505 108 503 q 97 519 102 509 q 92 527 97 520 q 89 532 92 528 l 77 558 l 70 570 q 63 583 66 580 l 63 589 q 60 595 60 589 q 58 597 58 595 l 58 603 q 55 605 55 603 l 55 612 q 52 613 52 612 l 52 620 q 49 622 49 620 l 49 631 l 46 631 l 46 642 q 43 644 43 642 l 43 662 q 41 664 41 662 l 41 711 q 43 713 41 713 l 43 731 q 46 732 43 732 l 46 745 q 49 747 46 747 l 49 757 q 52 759 49 759 l 52 768 q 55 769 52 769 l 55 776 q 58 778 55 778 l 58 785 q 61 792 60 787 l 63 792 l 63 798 q 70 812 66 802 q 73 817 72 812 q 75 823 75 817 q 78 829 77 823 q 83 834 83 830 q 89 842 89 841 q 97 856 97 855 q 101 861 99 856 q 109 871 102 861 q 115 879 113 871 q 136 899 116 879 l 143 905 q 155 916 144 905 q 165 924 160 916 q 175 930 171 924 q 182 934 179 930 q 187 937 182 935 q 203 947 199 943 q 216 952 208 947 l 221 952 q 227 956 221 956 q 235 959 227 958 q 241 962 235 960 q 243 964 241 964 l 249 964 q 258 968 249 967 q 260 969 259 969 l 269 969 q 271 972 269 972 l 281 972 q 283 975 283 972 l 297 975 q 299 978 297 978 l 323 978 q 324 981 323 981 m 314 964 l 314 961 l 294 961 q 292 958 294 958 l 280 958 q 278 956 280 956 l 269 956 q 267 952 269 952 l 260 952 q 258 949 260 949 l 249 949 l 249 947 l 243 947 q 241 944 243 944 l 235 944 q 229 940 235 941 q 228 939 229 939 l 221 939 q 216 935 221 936 q 210 932 216 933 q 204 929 210 930 q 196 924 202 925 q 190 920 196 922 q 182 915 188 916 q 173 909 180 911 q 162 901 168 902 q 150 890 153 890 l 151 888 q 136 876 144 888 q 129 871 134 876 l 128 871 l 129 869 q 114 853 129 867 q 106 842 114 848 q 100 833 106 837 q 97 827 100 830 q 92 819 97 823 q 89 812 92 817 q 85 807 89 811 q 83 801 85 805 q 80 795 83 800 q 77 792 80 792 l 77 785 q 73 778 75 783 l 72 778 l 72 771 q 69 769 72 769 l 69 760 q 66 758 69 758 l 66 749 q 63 747 66 747 l 63 737 q 60 736 63 736 l 60 722 q 58 717 60 717 l 58 656 q 60 654 60 656 l 60 642 q 63 641 63 642 l 63 631 q 66 629 66 631 l 66 620 q 69 618 69 620 l 69 612 q 72 610 72 612 l 72 603 q 75 597 75 603 q 77 595 77 597 l 77 589 q 81 583 80 589 q 84 578 82 583 q 87 572 85 578 q 89 566 89 572 l 90 566 l 92 564 l 90 564 q 106 534 106 536 q 111 529 109 529 q 117 515 111 525 q 123 507 117 514 q 131 493 123 505 q 136 485 131 492 q 139 479 136 484 q 145 471 139 477 q 153 458 148 463 q 156 450 153 456 l 156 449 l 158 450 l 159 450 q 162 442 159 447 q 168 434 162 441 q 170 429 168 433 q 176 420 170 427 q 179 414 176 418 q 184 406 179 413 q 187 400 184 404 q 196 387 190 392 q 201 375 196 385 q 204 369 201 374 q 210 359 205 364 l 210 352 q 212 351 212 352 l 212 338 q 216 336 216 338 l 216 262 q 218 260 218 262 l 218 254 q 222 248 221 254 q 235 234 235 236 l 239 234 q 243 231 243 234 l 253 231 q 255 229 255 231 l 272 229 l 272 334 q 278 347 275 337 q 286 352 285 352 q 294 355 292 355 l 294 434 q 292 436 292 434 l 292 446 q 294 448 292 448 l 294 479 q 292 481 292 479 l 292 482 q 295 493 294 482 l 297 493 l 297 502 q 294 507 294 502 q 286 524 286 519 q 282 530 283 524 q 279 535 281 530 l 277 535 l 277 541 q 273 547 275 541 l 267 559 q 263 566 266 562 q 260 573 263 567 l 255 583 q 252 589 255 585 q 243 604 245 604 q 241 612 243 607 q 238 617 241 613 q 231 631 232 631 l 227 641 q 224 647 224 644 l 222 646 q 218 656 218 654 q 214 662 216 656 l 208 674 q 201 686 204 684 l 201 694 q 203 696 201 696 l 229 696 q 233 699 229 699 l 233 705 q 235 707 233 707 l 235 717 q 238 719 235 719 l 238 728 q 241 736 241 730 q 245 739 243 736 q 252 734 245 736 l 252 727 q 255 725 255 727 l 255 707 q 258 705 258 707 l 258 690 q 260 685 260 690 l 263 685 l 263 703 q 266 705 263 705 l 266 722 l 269 722 l 269 734 q 271 736 269 736 l 278 736 q 280 734 280 735 l 280 727 q 283 725 283 727 l 283 707 q 286 705 286 707 l 286 690 q 289 685 289 690 l 292 685 l 292 703 q 294 705 292 705 l 294 720 q 297 722 294 722 l 297 734 q 299 736 298 736 l 307 736 q 309 734 309 735 l 309 727 q 311 725 311 727 l 311 710 q 314 708 314 710 l 314 690 l 317 690 l 317 685 q 319 684 318 685 l 319 700 q 323 702 319 702 l 323 720 q 326 722 323 722 l 326 732 q 328 736 328 732 l 335 736 q 336 734 336 735 l 336 727 q 339 725 339 727 l 339 710 q 342 708 342 710 l 342 693 q 346 683 346 693 q 345 682 345 683 l 346 682 q 348 684 348 682 l 348 699 q 351 703 348 703 l 351 720 q 353 722 351 722 l 353 732 q 358 736 356 732 l 363 736 q 366 730 364 736 q 368 728 368 730 l 368 715 q 370 710 368 710 l 370 693 q 373 691 373 693 l 373 682 l 376 682 l 376 700 q 379 702 376 702 l 379 717 q 382 719 379 719 l 382 731 q 389 739 382 732 q 396 731 389 737 l 396 719 l 397 717 q 396 715 396 717 q 399 714 399 715 l 399 699 q 401 697 401 699 l 401 682 l 404 682 l 404 694 q 407 696 404 696 l 407 711 q 410 713 407 713 l 410 728 q 414 736 412 730 l 422 736 q 424 734 424 735 l 424 722 q 427 720 427 722 l 427 705 q 429 703 429 705 l 429 685 l 433 685 q 435 690 433 686 l 435 705 q 438 707 435 707 l 438 725 q 441 727 438 727 l 441 734 q 446 736 441 735 q 448 739 447 739 q 453 730 452 734 q 455 728 455 730 l 455 719 q 458 717 458 719 l 458 707 q 460 705 460 707 l 460 699 q 463 696 463 699 l 490 696 q 492 694 492 696 l 492 686 q 485 673 488 683 q 482 668 483 673 q 479 662 480 668 q 475 658 477 662 l 475 658 l 475 653 q 469 648 472 648 q 463 635 469 644 l 460 625 q 452 612 458 625 q 450 604 450 607 q 440 586 447 604 q 433 572 438 586 q 429 564 429 566 q 426 558 427 564 q 418 544 425 558 q 416 536 416 540 q 412 530 413 536 l 410 530 l 411 525 q 406 519 407 525 q 404 513 404 519 q 400 507 401 513 q 397 502 398 507 l 396 502 l 396 493 q 400 481 399 493 q 401 480 401 481 l 399 476 l 399 475 q 401 471 401 475 l 401 459 q 399 458 399 459 l 399 456 l 401 456 l 401 447 l 399 447 l 399 446 l 401 446 l 401 439 l 404 439 l 404 437 q 400 437 403 437 l 401 435 l 399 434 q 399 435 399 435 l 399 355 q 407 352 401 355 q 416 341 416 347 q 419 335 418 341 q 421 334 421 335 l 421 229 l 438 229 q 440 231 438 231 l 450 231 q 452 234 452 231 l 458 234 q 472 249 458 235 q 475 254 472 254 l 475 260 q 477 262 475 262 l 477 336 q 480 338 477 338 l 480 351 q 483 352 480 352 l 483 359 q 490 372 486 363 q 492 378 492 372 q 495 383 494 378 q 498 389 498 383 q 507 403 502 389 q 509 409 509 403 q 515 417 513 409 q 518 422 517 417 q 524 431 522 422 q 526 437 526 431 q 529 442 528 437 q 531 446 531 442 l 532 446 l 534 446 q 536 454 534 448 q 543 462 543 460 q 548 471 548 469 q 553 476 548 473 l 553 482 q 556 486 556 482 q 560 493 559 488 q 568 505 568 498 q 572 510 571 505 q 576 515 576 512 q 579 519 576 519 l 579 524 q 583 530 583 524 q 585 535 585 530 q 590 538 589 538 q 593 547 590 541 q 597 555 597 553 q 600 561 599 555 q 607 575 601 561 q 610 583 610 579 q 614 589 612 583 l 616 589 l 616 595 q 619 603 618 598 l 621 603 l 621 610 q 624 612 621 612 l 624 618 q 627 620 624 620 l 627 629 q 629 631 627 631 l 629 641 q 633 642 629 642 l 633 654 q 635 656 633 656 l 635 717 l 633 717 l 633 736 q 629 737 629 736 l 629 747 q 627 749 627 747 l 627 758 q 624 760 624 758 l 624 769 q 621 771 621 769 l 621 778 l 618 778 l 618 783 q 616 785 616 783 l 616 792 q 612 798 613 792 q 609 803 610 798 q 606 809 608 803 q 604 814 605 809 q 600 820 602 814 q 595 829 597 822 q 592 834 593 829 q 587 841 587 838 q 587 842 587 841 q 578 854 578 850 q 565 870 565 865 q 546 888 547 888 q 530 902 543 888 q 519 910 526 902 q 511 916 514 910 q 502 922 506 916 q 495 924 499 922 q 488 930 492 924 q 481 932 485 930 q 475 936 479 932 q 472 939 472 936 l 465 939 q 458 942 463 941 l 458 944 l 454 944 q 446 947 447 947 q 444 949 444 947 l 434 949 q 433 952 433 949 l 426 952 q 424 956 424 952 l 414 956 q 412 958 412 956 l 400 958 q 399 961 399 958 l 379 961 l 379 964 l 314 964 m 458 959 l 458 958 l 460 958 l 460 959 l 458 959 m 243 705 l 243 698 q 241 696 243 696 l 241 690 q 234 685 241 688 l 216 685 l 216 682 q 219 676 218 682 q 222 671 220 676 q 224 665 223 671 q 228 659 226 665 l 236 644 l 239 639 q 241 634 241 639 q 243 632 243 633 l 243 627 q 246 624 246 627 l 249 621 l 248 621 q 252 612 252 616 q 256 606 255 612 q 275 566 258 604 q 278 561 277 566 q 281 555 279 561 q 289 538 289 543 q 294 532 292 538 q 297 528 294 530 l 297 522 q 301 515 300 522 q 304 510 302 515 q 309 505 309 507 l 311 505 l 311 507 l 379 507 q 380 505 379 505 l 387 505 q 390 513 387 507 q 393 515 390 515 l 393 522 l 391 522 l 391 523 q 397 530 397 523 q 399 535 399 530 q 404 541 404 537 l 424 580 l 431 593 q 439 612 439 609 q 441 617 441 612 q 445 623 444 617 q 448 627 447 623 l 450 627 l 450 632 q 453 639 452 635 q 462 654 460 648 q 469 668 463 654 q 472 675 472 672 q 475 682 474 675 l 477 682 l 477 685 l 457 685 q 451 693 453 687 q 450 695 450 693 l 450 705 q 446 703 448 703 l 446 690 q 444 688 446 688 l 444 670 q 441 668 444 668 l 441 653 q 438 651 441 651 l 438 642 q 433 637 438 641 l 431 637 q 427 642 431 637 l 427 648 q 424 650 424 648 l 424 666 l 422 665 l 421 667 l 421 685 q 418 686 418 685 l 418 693 l 416 693 l 416 676 q 412 674 416 674 l 412 659 q 410 656 412 656 l 410 644 q 406 637 407 642 l 404 637 l 396 644 l 396 659 q 393 661 393 659 l 393 679 q 390 681 390 679 l 390 693 l 387 693 l 387 681 q 385 679 387 679 l 385 664 q 382 662 385 662 l 382 647 q 378 640 379 644 q 374 637 376 640 l 372 637 q 368 642 372 637 l 368 654 q 365 656 365 654 l 365 673 l 362 673 l 362 690 l 359 690 l 359 684 q 356 682 359 682 l 356 665 q 353 663 353 665 l 353 647 q 350 640 351 644 q 346 637 349 640 l 344 637 q 339 642 343 637 l 339 654 q 336 656 336 654 l 336 671 q 334 673 334 671 l 334 690 l 331 690 l 331 684 q 328 682 331 682 l 328 667 q 326 662 328 662 l 326 647 q 321 640 323 644 q 318 637 320 640 l 316 637 q 311 642 315 637 l 311 654 q 309 656 309 654 l 309 671 q 306 673 306 671 l 306 690 l 302 690 q 300 685 302 685 l 300 667 q 297 665 300 665 l 297 650 q 294 648 297 648 l 294 642 q 290 637 294 641 l 288 637 q 283 642 287 637 l 283 651 q 280 653 280 651 l 280 671 q 277 673 277 671 l 277 688 q 275 690 277 690 l 275 690 l 275 690 q 275 688 275 688 q 272 685 275 685 l 272 667 q 269 665 272 665 l 269 650 q 266 648 269 648 l 266 642 l 261 637 l 260 637 q 255 642 258 637 l 255 651 q 252 653 252 651 l 252 668 q 249 670 249 668 l 249 688 q 246 690 246 688 l 246 705 l 243 705 m 237 538 l 238 536 l 236 535 l 235 537 l 237 538 m 260 538 l 260 536 l 258 535 l 258 537 l 260 538 m 434 538 l 435 536 l 433 535 l 433 537 l 434 538 m 576 526 l 578 526 l 578 524 q 576 526 576 524 m 321 522 l 321 522 l 321 519 l 321 519 l 321 522 m 595 493 l 596 491 l 594 490 l 593 492 l 595 493 m 409 485 l 410 483 l 410 482 l 409 482 q 407 484 407 482 l 409 485 m 595 482 l 595 480 l 593 480 q 595 482 593 482 m 260 479 l 260 477 l 258 476 l 258 478 l 260 479 m 237 437 l 237 434 q 235 436 235 434 l 237 437 m 434 437 l 435 435 l 433 434 l 433 436 l 434 437 m 448 437 l 450 435 l 448 434 l 446 436 l 448 437 m 495 437 q 497 435 497 437 l 495 434 l 495 437 m 511 437 l 511 435 l 509 434 l 509 436 l 511 437 m 243 175 q 241 172 243 172 l 241 163 q 243 161 243 163 l 294 161 l 294 158 l 355 158 q 356 155 356 158 l 414 155 q 416 152 416 155 l 450 152 q 452 155 450 155 l 452 163 q 446 166 446 163 l 384 166 q 382 169 382 166 l 323 169 q 321 171 321 169 q 321 172 321 171 l 262 172 q 260 175 260 172 l 243 175 m 245 132 q 241 130 245 130 l 241 121 q 243 119 243 121 l 282 119 q 284 117 284 118 q 283 115 283 117 l 348 115 l 351 113 l 408 113 q 410 110 410 113 l 450 110 q 452 113 450 110 l 452 121 l 437 121 q 435 124 435 121 l 378 124 q 376 127 376 124 l 318 127 q 316 130 316 127 l 258 130 q 257 132 257 130 l 245 132 m 246 90 q 241 87 246 87 l 241 79 q 243 76 243 79 l 279 76 q 284 73 279 73 l 338 73 q 339 71 339 73 l 404 71 l 404 68 l 452 68 l 452 79 l 431 79 q 429 82 429 79 l 372 82 q 370 85 370 82 l 313 85 q 311 87 311 85 l 254 87 q 252 90 252 87 l 246 90 z "},"%":{"ha":692,"x_min":34,"x_max":657,"o":"m 345 970 q 603 836 496 970 q 657 654 657 751 q 572 421 657 560 q 538 278 549 391 q 489 222 511 222 l 441 222 q 439 224 439 222 l 435 222 l 200 222 q 144 350 151 231 q 61 531 144 385 q 34 656 34 593 l 34 668 q 189 928 34 824 q 345 970 267 970 m 85 656 q 153 473 85 579 q 200 316 200 392 q 213 275 200 292 l 249 275 q 258 495 256 462 q 193 565 232 495 q 184 603 184 585 q 211 639 189 639 l 222 639 q 292 569 254 639 q 300 538 300 549 l 300 520 q 319 513 303 520 l 319 515 q 305 574 305 538 l 305 576 q 345 656 311 656 l 350 656 q 390 581 385 656 l 390 578 q 370 511 390 543 l 370 509 q 393 515 389 515 q 390 529 393 517 q 448 637 390 590 q 462 641 456 641 l 473 641 q 500 605 495 641 l 500 598 q 437 493 500 538 l 435 493 l 429 275 l 473 275 l 477 273 q 498 381 491 290 q 590 569 509 415 q 603 648 603 615 l 603 672 q 477 881 603 794 q 352 917 416 917 l 341 917 q 115 775 197 917 q 85 656 85 715 m 345 621 q 336 574 336 591 q 348 534 340 536 q 357 572 357 555 l 357 585 q 350 621 357 604 l 345 621 m 429 531 q 465 603 465 566 q 429 531 429 570 m 222 598 q 262 534 222 570 l 264 534 q 224 598 264 559 l 222 598 m 294 482 l 294 479 q 287 275 287 330 l 390 275 q 393 289 390 277 q 397 462 397 448 l 399 477 q 363 473 374 473 l 343 473 q 294 482 327 473 m 213 206 l 471 206 q 496 186 496 206 l 496 182 q 467 161 496 161 l 401 161 q 381 163 393 161 q 372 161 377 161 q 368 163 368 161 l 345 161 l 227 161 q 191 184 191 161 q 213 206 193 206 m 216 146 l 475 146 q 496 125 496 143 l 496 121 q 473 103 496 103 l 204 103 q 191 123 191 111 l 191 125 q 216 146 191 146 m 238 85 l 448 85 l 448 83 q 357 5 362 5 l 343 0 q 292 36 326 0 q 238 83 255 66 l 238 85 z "},"&":{"ha":692,"x_min":34,"x_max":656,"o":"m 347 968 q 611 819 507 968 q 656 660 656 743 l 656 655 q 566 414 656 555 q 539 284 547 385 q 494 226 515 226 l 421 226 l 432 479 q 492 559 474 500 q 497 586 497 574 q 465 626 497 626 l 461 626 q 403 568 435 626 q 389 517 391 539 l 392 503 q 367 494 385 498 l 365 498 q 387 570 384 507 q 347 642 387 631 q 304 570 304 633 l 304 555 q 318 498 304 530 l 316 498 q 298 510 298 505 l 298 524 q 237 617 298 568 q 215 624 226 624 l 211 624 q 184 591 189 624 q 258 481 184 526 q 249 239 251 376 q 242 226 246 226 l 193 226 q 146 345 146 242 q 63 526 146 380 q 34 658 34 589 q 217 941 34 842 q 347 968 287 968 m 342 608 l 349 608 q 356 575 356 587 l 356 559 q 345 521 353 525 q 334 566 336 521 q 342 608 334 578 m 461 591 l 463 586 q 427 517 443 517 l 425 517 l 425 524 q 461 591 425 554 m 220 586 l 222 586 q 262 524 262 553 l 262 519 l 260 519 q 220 584 220 556 l 220 586 m 296 470 q 345 458 327 460 l 349 460 l 360 460 q 396 465 371 460 l 396 463 q 387 228 396 413 l 382 226 l 287 226 l 282 228 l 291 467 l 296 470 m 215 205 l 472 205 q 497 186 497 205 l 497 177 q 459 161 497 163 l 231 161 q 193 174 199 161 l 193 186 q 215 205 193 203 m 217 145 l 472 145 q 497 125 497 145 l 497 116 q 477 103 489 103 l 206 103 q 193 123 193 111 l 193 125 q 217 145 193 145 m 239 85 l 450 85 l 450 83 q 351 2 363 2 q 345 0 349 2 q 291 38 327 0 q 239 83 239 80 l 239 85 z "},"'":{"ha":692,"x_min":34,"x_max":656,"o":"m 347 968 q 618 808 515 968 q 656 658 656 734 q 600 474 656 568 q 542 298 542 385 q 488 221 517 221 l 199 221 q 144 347 153 228 q 65 521 144 387 q 34 667 34 584 q 166 913 34 808 q 347 968 252 968 m 211 205 l 475 205 q 494 193 487 205 l 494 183 q 475 163 492 163 l 204 163 q 191 177 201 163 l 191 186 q 211 205 193 205 m 211 145 l 477 145 q 494 127 494 145 l 494 123 q 475 103 492 103 l 215 103 q 191 123 191 103 l 191 125 q 211 145 193 145 m 416 87 q 425 85 420 85 l 448 85 l 448 83 q 351 2 359 2 q 342 0 347 2 q 262 62 325 0 q 237 81 240 81 l 237 85 l 408 85 q 416 87 412 85 z "},"(":{"ha":700,"x_min":34,"x_max":659,"o":"m 346 970 q 631 786 532 970 q 659 661 659 722 l 659 656 q 575 427 659 556 q 544 294 544 368 q 490 220 519 220 l 200 220 q 149 326 149 238 q 85 486 149 376 q 34 661 34 567 q 207 939 34 836 q 346 970 282 970 m 88 669 l 88 642 q 151 476 88 576 q 202 296 202 391 q 212 274 204 296 l 477 274 q 501 387 489 274 q 593 575 501 395 q 607 656 607 633 q 445 899 607 818 q 359 917 394 917 l 333 917 q 164 842 244 917 q 88 669 88 763 m 212 204 l 477 204 q 496 191 489 204 l 496 180 q 484 162 496 168 l 205 162 q 191 182 191 170 q 212 204 193 204 m 212 144 l 477 144 q 496 126 496 144 l 496 115 q 477 101 489 101 l 212 101 q 191 121 191 104 q 212 144 193 144 m 238 83 l 450 83 l 450 81 q 351 0 362 0 l 337 0 q 288 38 324 0 l 238 81 l 238 83 z "},")":{"ha":880,"x_min":34,"x_max":850,"o":"m 444 974 q 579 870 519 870 l 616 870 q 710 884 635 870 l 710 879 q 706 839 706 854 l 706 816 q 841 649 706 696 l 850 635 q 764 492 764 559 q 805 361 764 451 q 647 311 713 361 q 602 271 629 271 q 579 288 581 279 l 579 311 q 674 460 579 336 q 701 572 701 519 l 701 582 q 507 829 701 758 q 444 839 458 839 q 192 640 262 839 l 182 577 q 291 352 182 477 q 309 302 309 315 q 277 271 309 271 l 201 338 q 83 361 153 352 l 83 366 q 119 487 119 446 l 119 505 q 34 640 119 555 q 178 789 178 706 l 178 816 q 182 821 178 821 l 178 829 l 178 884 l 182 884 q 282 870 243 870 l 309 870 q 444 974 363 870 m 327 545 l 349 545 q 395 492 355 545 q 444 545 416 545 l 453 545 q 489 492 467 545 l 498 492 q 534 545 507 522 l 557 545 q 575 528 564 545 l 575 509 q 507 401 513 401 l 485 401 q 444 460 471 404 l 439 460 q 404 401 416 401 l 381 401 q 309 519 359 416 q 327 545 318 545 m 557 284 q 575 266 564 284 l 575 248 q 327 194 575 220 q 313 221 313 199 l 313 235 q 557 284 313 256 m 548 212 q 575 189 566 205 l 575 185 q 463 140 575 140 q 332 117 373 117 q 313 131 313 124 l 313 158 q 512 203 313 179 q 548 212 512 209 m 543 135 l 557 117 l 557 95 q 439 58 557 78 q 354 45 418 58 q 327 68 336 52 l 327 85 q 543 135 327 109 m 494 58 l 498 50 q 439 0 498 8 l 435 0 q 390 36 390 7 q 494 58 422 45 z "},"*":{"ha":423,"x_min":34,"x_max":382,"o":"m 135 970 q 178 926 170 970 l 178 481 q 172 475 178 475 l 93 475 q 87 481 87 475 l 87 928 q 135 970 87 963 m 284 970 q 330 931 330 962 l 330 481 q 323 475 330 475 l 245 475 q 239 481 239 475 l 239 922 q 284 970 246 970 m 355 453 q 382 431 382 453 l 382 338 q 298 236 382 264 l 135 236 q 34 329 58 236 l 34 414 q 65 453 34 453 l 355 453 m 118 211 l 146 208 l 301 208 q 323 183 323 208 q 296 160 316 160 l 121 160 q 96 177 106 160 l 96 186 q 118 211 96 204 m 110 135 l 307 135 q 321 121 311 135 l 321 110 q 298 87 321 87 l 121 87 q 96 113 96 87 q 110 135 96 127 m 152 64 l 264 64 q 273 54 273 64 q 211 0 273 7 q 146 42 146 8 l 146 59 q 152 64 147 64 z "},"+":{"ha":460,"x_min":34,"x_max":427,"o":"m 229 974 l 232 974 q 408 683 303 974 q 427 564 427 622 l 427 530 q 382 315 427 430 q 232 216 317 216 q 37 486 65 216 q 34 530 34 498 l 34 570 q 181 947 34 722 q 229 974 206 974 m 85 551 q 130 332 85 442 q 229 270 172 270 q 370 477 345 270 q 376 554 376 538 q 237 917 376 701 l 232 920 l 229 920 q 124 728 199 898 q 85 551 85 630 m 237 848 q 262 824 258 838 q 148 621 228 824 q 130 513 136 587 l 133 494 l 133 473 l 127 473 q 115 572 115 547 q 220 842 115 690 q 237 848 229 848 m 130 465 l 136 465 l 136 458 l 130 458 l 130 465 m 178 189 l 286 189 q 313 165 313 189 l 313 156 q 289 141 305 141 l 163 141 q 148 165 148 149 q 178 189 148 189 m 181 117 l 289 117 q 304 102 293 117 l 304 84 q 273 69 297 69 l 196 69 q 157 84 161 69 l 157 102 q 181 117 164 117 m 193 48 l 268 48 q 277 36 277 48 q 232 0 277 5 l 229 0 q 184 36 184 5 q 193 48 189 48 z "},",":{"ha":621,"x_min":34,"x_max":583,"o":"m 322 972 q 465 922 425 972 l 495 884 l 534 884 q 566 851 566 876 l 566 843 q 526 807 566 812 l 506 807 l 506 780 l 542 780 q 583 741 583 774 q 550 703 575 703 l 526 703 l 506 700 l 506 678 q 511 673 507 673 l 545 673 q 583 634 583 667 q 542 595 583 602 l 506 595 l 506 568 l 539 568 q 583 527 583 564 q 531 489 583 492 l 506 489 l 506 458 l 487 456 l 437 456 q 427 458 431 456 l 421 456 q 418 458 418 456 l 404 456 l 259 456 q 256 458 256 456 l 251 456 q 235 458 249 456 l 229 456 l 223 458 q 215 456 218 456 l 215 458 l 210 456 l 130 456 l 111 458 l 111 489 l 86 489 q 34 530 34 489 q 78 568 34 562 l 111 568 l 111 595 l 75 595 q 34 634 34 602 q 67 673 42 673 l 111 673 l 111 697 q 105 703 111 703 l 92 703 l 75 700 q 34 741 34 709 q 75 780 34 772 l 111 780 l 111 807 l 92 807 q 50 843 50 812 l 50 846 q 83 884 55 884 l 122 884 q 264 972 182 972 l 322 972 m 163 846 l 163 843 q 199 807 172 807 q 237 843 237 815 l 237 846 q 199 884 233 884 q 163 846 170 884 m 270 843 q 309 807 270 819 q 347 851 340 807 q 317 884 347 869 l 306 884 q 270 843 278 884 m 380 846 l 380 843 q 418 807 380 816 q 454 846 447 807 q 416 884 450 884 q 380 846 380 877 m 163 747 l 163 739 q 196 705 170 705 l 204 705 q 237 739 237 713 l 237 747 q 204 780 229 780 l 196 780 q 163 747 163 771 m 270 744 q 306 705 277 705 l 311 705 q 347 744 340 705 q 309 780 347 773 l 306 780 q 270 744 270 770 m 380 747 l 380 744 q 421 705 380 705 q 454 739 454 713 l 454 747 q 413 780 454 780 q 380 747 380 770 m 163 642 l 163 640 q 199 602 168 602 q 237 640 237 608 l 237 642 q 201 675 237 671 l 196 675 q 163 642 163 669 m 270 640 q 311 602 270 607 q 347 642 340 602 q 314 675 336 675 l 309 675 q 270 640 277 675 m 380 642 l 380 637 q 416 602 389 602 q 454 640 454 602 l 454 642 q 429 675 454 662 l 404 675 q 380 642 380 662 m 163 538 l 163 532 q 199 497 172 497 q 237 532 237 504 l 237 538 q 201 574 228 574 q 163 538 163 566 m 270 532 q 311 497 281 497 q 347 535 338 497 q 306 574 347 568 q 270 532 277 574 m 380 538 l 380 532 q 416 497 389 497 q 454 532 454 504 l 454 538 q 416 574 454 566 q 380 538 380 565 m 108 425 l 503 425 q 523 406 523 425 l 523 324 q 440 222 523 245 l 191 222 q 94 321 109 222 l 94 404 q 108 425 94 418 m 226 197 l 391 197 q 416 176 416 197 l 416 165 q 393 151 408 151 l 223 151 q 201 173 201 151 l 201 181 q 226 197 211 197 m 215 126 l 401 126 q 416 104 416 119 l 416 96 q 391 79 405 79 l 391 82 l 385 79 l 231 79 q 201 96 210 79 l 201 104 q 215 126 201 119 m 256 60 l 363 60 q 369 55 369 60 l 369 41 q 319 0 369 9 l 306 0 q 248 52 248 0 q 256 60 248 56 z "},"-":{"ha":663,"x_min":34,"x_max":615,"o":"m 317 972 l 328 972 q 590 801 503 972 q 615 669 615 737 l 615 663 q 507 413 615 532 q 460 248 460 341 q 406 215 447 215 l 235 215 q 185 286 185 215 q 75 501 185 361 q 34 644 34 578 l 34 686 q 208 950 34 863 q 317 972 265 972 m 81 663 q 188 429 81 553 q 235 264 235 350 l 414 264 l 414 275 q 515 504 414 386 q 565 644 565 582 l 565 677 q 403 911 565 846 q 334 922 366 922 l 307 922 q 111 801 192 922 q 81 663 81 732 m 307 886 l 309 886 q 422 848 377 886 l 416 848 q 345 862 393 862 l 340 862 q 163 727 226 862 q 149 650 149 678 q 224 479 149 553 l 218 479 q 111 672 111 550 q 224 865 111 795 q 307 886 264 886 m 235 198 q 425 179 425 190 q 428 163 428 165 q 408 143 420 143 q 227 159 240 154 q 221 176 221 169 l 221 184 q 235 198 221 188 m 243 132 q 416 113 416 126 l 419 107 l 419 94 q 403 80 412 80 q 235 96 235 88 l 229 104 l 229 121 q 243 132 235 132 m 276 60 l 370 60 q 378 52 374 60 l 378 39 q 326 0 378 7 l 320 0 q 268 50 268 5 q 276 60 272 60 z "},".":{"ha":378,"x_min":41,"x_max":340,"o":"m 186 972 l 195 972 q 300 884 269 972 l 300 473 q 294 467 300 467 l 214 467 q 209 473 209 467 l 209 861 q 195 881 209 875 l 186 881 q 172 861 172 875 l 172 473 q 166 467 172 467 l 86 467 q 81 473 81 467 l 81 867 q 186 972 98 972 m 69 445 l 314 445 q 340 419 340 441 l 340 336 q 254 225 340 252 l 135 225 q 46 296 81 225 q 41 330 41 316 l 41 416 q 69 445 41 445 m 135 199 l 252 199 q 277 182 267 199 l 277 174 q 246 149 277 149 l 149 149 q 103 174 103 149 q 135 199 103 199 m 143 125 l 143 123 l 149 125 l 223 125 q 269 100 269 125 q 237 74 269 74 l 129 74 q 112 100 112 84 q 143 125 112 123 m 149 52 l 229 52 q 237 43 233 52 l 237 34 q 192 0 237 7 q 143 34 143 6 l 143 45 q 149 52 144 52 z "},"/":{"ha":640,"x_min":34,"x_max":599,"o":"m 291 970 l 342 970 q 571 850 511 970 q 599 657 599 781 l 599 570 q 526 465 599 496 q 470 286 470 420 l 470 263 q 425 212 461 212 l 213 212 q 163 263 163 220 l 163 279 q 84 478 163 446 q 34 579 34 502 l 34 644 q 129 928 34 880 q 291 970 198 970 m 84 677 l 84 565 q 138 503 84 528 q 213 263 213 454 l 305 263 l 322 260 q 336 263 327 263 q 350 260 345 263 q 375 263 365 263 l 420 263 l 420 266 q 492 500 420 451 q 549 565 549 530 l 549 671 q 434 903 549 868 q 308 923 387 923 q 101 800 142 923 q 84 677 84 745 m 333 895 l 347 895 l 347 889 l 345 889 q 165 758 213 889 q 151 629 151 703 l 151 534 l 149 528 q 112 595 112 547 l 112 640 q 205 873 112 846 q 333 895 240 895 m 227 187 l 406 187 q 428 165 428 186 q 406 145 428 149 l 218 145 q 205 165 210 148 q 227 187 209 187 m 235 123 l 397 123 q 428 100 428 120 q 406 78 425 78 l 227 78 q 205 98 210 78 q 235 123 205 123 m 266 59 l 367 59 q 372 53 372 58 l 372 42 q 322 0 372 7 l 319 0 q 260 37 270 0 l 260 53 q 266 59 261 59 z "},":":{"ha":1053,"x_min":34,"x_max":1008,"o":"m 523 974 q 953 714 797 974 q 1008 499 1008 609 l 1008 465 q 779 72 1008 234 q 533 0 659 0 l 502 0 q 126 201 289 0 q 34 489 34 333 q 256 895 34 736 q 523 974 379 974 m 229 622 q 349 376 229 495 q 389 250 369 328 q 427 233 414 233 l 612 233 q 680 342 666 233 q 762 454 690 372 q 813 605 813 534 l 813 629 q 625 895 813 806 q 540 912 573 912 l 512 912 q 256 741 348 912 q 229 622 229 677 m 526 885 q 762 728 680 885 q 785 615 785 678 q 676 396 785 511 q 632 270 656 373 q 608 260 619 260 l 574 260 q 567 267 567 260 l 567 509 l 642 588 l 642 595 l 406 595 q 399 588 399 593 l 478 506 l 478 267 q 471 260 478 260 l 437 260 q 393 349 404 260 q 300 478 374 393 q 260 615 260 544 l 260 635 q 403 858 260 767 q 526 885 467 885 m 311 718 l 314 718 q 393 776 382 748 q 475 827 438 819 l 475 830 l 458 830 q 311 718 365 830 m 290 608 q 331 503 290 547 q 355 536 336 503 l 355 540 q 338 615 341 583 q 352 677 341 658 l 345 677 q 290 642 290 656 l 290 608 m 430 581 l 615 581 l 615 578 l 553 513 l 553 267 q 547 260 553 260 l 498 260 q 492 267 492 260 l 492 513 l 430 578 l 430 581 m 448 218 l 406 218 q 379 191 379 218 l 379 188 q 396 164 379 164 l 396 147 q 434 113 396 117 q 498 58 434 58 l 553 58 q 612 113 612 64 q 649 144 639 113 l 646 161 q 666 191 666 169 q 639 218 662 218 l 458 218 q 454 222 454 218 l 448 218 m 406 198 l 639 198 q 646 191 646 197 l 646 188 q 639 181 646 181 l 406 181 q 399 188 399 181 l 399 191 q 406 198 401 198 m 427 157 l 618 157 q 625 151 625 156 l 625 144 q 618 137 625 137 l 423 137 q 416 144 416 137 l 416 147 q 427 157 416 152 m 461 116 l 584 116 q 591 106 591 116 q 570 82 585 90 l 481 82 q 454 109 454 82 q 461 116 455 116 z "},";":{"ha":1035,"x_min":27,"x_max":998,"o":"m 507 970 l 515 970 q 946 707 789 970 q 998 497 998 596 l 998 473 q 788 85 998 244 q 524 0 659 0 l 500 0 q 134 179 296 0 q 27 482 27 321 l 27 488 q 315 931 27 776 q 507 970 419 970 m 449 822 l 437 822 q 346 916 431 822 l 330 916 q 324 892 324 897 q 330 783 330 824 q 318 767 325 768 q 194 819 303 767 l 185 819 q 179 807 179 812 l 231 686 l 231 680 q 206 667 226 667 q 103 673 180 667 l 81 667 l 81 655 q 176 564 82 649 l 176 549 q 58 500 172 536 l 45 486 q 167 431 45 470 q 176 422 176 424 l 176 410 q 81 319 176 403 l 81 307 q 106 297 83 297 q 209 303 191 303 q 231 291 231 299 l 231 285 l 179 163 l 179 158 l 188 152 q 309 203 200 152 l 318 203 q 330 173 330 200 q 324 73 330 157 q 336 52 328 52 l 340 52 q 433 146 345 52 q 446 149 439 149 q 497 31 460 145 q 509 18 506 18 l 515 18 q 567 140 530 27 l 579 149 l 588 149 q 673 60 594 149 q 691 52 685 52 q 701 79 701 63 q 694 182 694 163 q 713 203 696 203 l 834 152 l 840 152 q 846 163 846 159 l 794 285 l 794 288 q 822 303 794 303 q 925 297 911 297 q 946 309 946 301 q 858 397 946 321 l 849 410 l 849 418 q 967 470 855 434 q 979 486 979 478 q 858 540 979 498 l 849 549 l 849 552 q 940 646 849 572 l 946 664 q 919 673 932 673 q 816 667 850 667 q 794 680 794 671 q 846 804 794 692 l 846 812 q 834 819 839 819 l 713 767 l 707 767 q 694 795 694 771 q 701 898 701 880 q 691 916 697 916 l 682 916 q 591 822 677 916 l 576 822 q 528 940 562 835 q 513 952 517 952 q 458 828 498 952 l 449 822 m 513 819 q 736 646 672 819 q 743 600 743 617 l 743 583 q 658 400 743 488 q 627 319 652 395 l 621 319 l 621 313 q 633 303 633 311 l 633 285 q 621 270 633 283 q 633 261 633 269 l 633 243 q 610 224 633 237 q 518 152 591 152 q 443 194 476 152 q 418 216 418 194 l 418 221 l 431 237 l 431 239 q 418 258 418 239 q 431 276 418 276 l 431 282 q 418 300 418 282 l 421 315 l 412 315 q 382 364 389 315 q 315 467 382 386 q 282 585 282 520 l 282 589 q 452 810 282 748 q 513 819 473 816 m 324 589 q 406 425 324 506 q 433 334 433 361 l 431 321 q 597 361 597 353 q 673 488 597 406 q 701 591 701 542 q 579 761 701 703 q 524 773 548 773 l 500 773 q 346 670 407 773 q 324 589 324 625 z "},"<":{"ha":599,"x_min":34,"x_max":556,"o":"m 467 970 q 501 931 501 956 l 501 916 q 391 864 501 873 q 123 809 156 809 q 89 854 89 821 q 168 909 89 903 q 467 970 420 964 m 516 846 q 556 806 556 836 l 556 793 q 473 745 556 753 q 83 669 98 669 l 74 669 q 34 718 39 669 q 150 775 34 761 q 516 846 502 846 m 513 711 q 556 671 556 704 l 556 659 q 431 604 556 616 q 74 534 99 534 q 34 586 39 534 q 117 635 34 626 q 513 711 490 711 m 519 580 q 556 541 556 565 l 556 531 q 461 476 556 484 q 199 425 206 425 q 263 235 263 358 l 327 235 q 446 458 327 403 q 489 470 479 470 l 495 470 q 507 449 507 465 q 440 403 507 427 q 373 235 373 349 l 391 235 q 483 168 483 235 l 483 156 q 437 95 477 95 q 431 92 437 92 l 440 79 l 440 61 q 406 34 437 51 q 370 0 406 5 l 227 0 q 180 37 180 7 q 150 71 150 50 q 159 92 150 81 q 111 138 111 106 l 111 186 q 199 235 111 235 l 220 235 q 174 378 198 378 q 129 409 153 409 l 80 400 q 34 452 39 400 q 162 510 34 498 q 519 580 497 580 m 144 174 l 144 150 q 172 116 144 116 l 239 116 l 239 113 q 186 73 186 76 l 186 67 q 220 58 186 61 q 227 24 220 24 l 363 24 q 373 61 370 24 q 406 71 406 61 q 351 113 403 79 l 351 116 l 418 116 q 446 144 446 120 l 446 180 q 418 208 442 208 l 172 208 q 144 174 144 208 z "},"=":{"ha":688,"x_min":54,"x_max":648,"o":"m 342 968 l 364 968 q 635 765 545 968 q 648 675 648 715 l 648 665 q 532 429 648 543 q 490 300 507 376 q 441 277 465 277 l 271 277 q 199 355 207 277 q 144 462 190 409 q 54 671 54 553 q 258 956 54 867 q 342 968 307 968 m 251 258 l 451 258 q 487 220 484 258 q 484 216 484 220 l 467 220 q 254 145 269 145 q 219 178 219 152 l 219 235 q 251 258 233 258 m 458 200 q 487 168 487 193 q 374 110 487 143 q 248 61 258 61 q 219 81 230 61 l 219 90 q 267 126 219 117 q 458 200 291 139 m 429 110 l 432 110 l 432 77 q 355 0 416 0 l 351 0 q 274 52 274 12 q 429 110 422 110 z "},">":{"ha":371,"x_min":47,"x_max":304,"o":"m 168 972 l 174 972 q 176 970 176 972 l 176 448 q 191 445 176 447 q 206 433 199 445 q 214 422 210 422 q 228 401 222 420 l 230 394 q 229 391 229 393 q 235 382 231 387 l 235 366 l 237 363 l 237 361 l 235 359 l 235 357 q 240 339 240 351 q 242 337 242 338 l 242 331 q 237 319 242 325 l 237 317 q 258 284 248 302 q 285 228 266 274 l 285 222 q 294 193 288 222 q 296 189 294 191 l 296 180 l 298 180 q 301 163 298 172 l 301 153 l 303 150 l 303 147 q 304 123 303 133 q 303 103 303 117 q 300 93 301 103 q 290 70 295 78 q 274 47 290 68 q 237 19 248 22 q 217 9 223 10 q 193 3 201 4 q 193 2 193 2 l 190 2 q 172 0 188 2 l 167 0 q 144 2 145 2 l 143 2 q 127 5 140 4 q 111 14 127 7 q 87 31 97 22 q 61 75 64 58 q 52 98 59 77 q 50 108 52 106 l 50 119 l 48 122 q 47 149 48 134 q 48 176 48 161 q 50 178 50 176 l 50 191 q 54 206 52 194 q 71 258 64 243 q 99 317 82 286 q 100 318 100 317 l 100 321 q 94 328 96 321 q 98 336 96 332 l 98 347 l 104 356 l 104 368 l 103 370 l 103 382 q 109 399 106 385 q 115 414 115 407 q 127 426 120 422 l 134 426 q 150 444 136 435 q 165 448 160 448 l 166 450 l 166 970 q 168 972 166 972 m 108 316 q 68 230 85 279 q 62 208 64 210 l 62 199 l 60 199 l 60 193 q 57 176 57 180 l 57 167 l 55 164 l 55 132 l 57 129 l 57 121 q 73 65 62 87 q 92 37 73 61 q 104 26 94 36 q 129 14 115 20 l 129 14 l 132 14 q 146 10 142 10 l 148 10 l 148 9 l 188 9 q 212 16 201 14 q 256 41 243 28 q 284 75 277 60 q 296 109 292 90 q 296 110 296 109 l 296 140 q 294 161 294 143 q 292 163 292 161 l 292 174 q 286 197 290 177 q 262 262 279 227 q 230 316 250 286 l 201 316 l 198 314 l 186 314 q 185 312 185 314 q 186 309 185 311 l 186 305 q 190 281 186 290 l 190 274 l 191 271 l 191 262 q 199 237 194 258 q 217 191 208 213 l 221 191 q 231 197 221 194 l 245 197 q 264 176 264 190 l 264 175 q 251 159 260 163 q 247 157 250 159 l 239 157 q 218 176 229 159 q 208 154 213 176 l 208 153 l 216 153 q 247 124 232 153 l 247 112 q 238 104 243 106 l 228 104 q 202 133 202 119 q 200 140 200 133 l 197 140 q 182 128 191 138 l 182 126 q 197 91 194 109 l 197 87 q 182 57 190 57 q 176 54 182 56 l 174 54 q 161 63 162 58 q 153 85 156 63 l 153 92 q 166 120 156 108 q 170 129 170 126 q 161 136 165 133 l 160 136 q 141 109 155 119 q 134 104 140 109 l 121 104 q 111 117 111 111 l 111 126 q 127 146 111 134 l 134 150 l 151 150 l 151 151 q 132 171 138 171 q 115 152 132 163 l 106 148 l 96 148 q 83 163 83 153 q 83 166 83 163 l 83 168 q 101 192 90 192 q 102 193 101 193 l 111 193 q 129 184 123 189 l 132 184 l 132 189 q 138 211 134 192 q 139 212 139 211 l 139 223 l 141 227 q 142 250 142 246 q 144 252 144 250 l 144 314 l 113 314 l 111 316 l 108 316 m 151 314 q 151 294 151 307 q 151 237 151 256 q 149 236 149 237 l 149 223 q 137 180 142 187 l 137 178 q 159 150 147 174 q 174 134 159 145 l 177 134 q 200 150 193 149 l 200 151 q 208 178 200 160 l 212 185 q 195 227 198 213 q 186 257 192 231 q 180 281 182 279 l 180 296 l 178 298 l 178 314 l 151 314 m 223 183 q 243 165 232 165 q 254 171 251 165 l 256 171 l 256 181 q 241 191 250 187 l 233 191 q 223 183 225 186 m 92 174 l 92 161 q 101 155 92 158 q 109 157 101 157 q 127 176 121 162 q 111 184 113 184 l 101 184 q 92 174 96 182 m 208 145 l 208 136 q 216 122 211 127 q 230 112 222 115 l 237 112 q 239 115 238 112 l 239 122 q 217 145 231 140 l 208 145 m 119 126 l 119 117 q 124 112 119 115 l 127 112 q 149 128 137 112 l 153 138 l 153 140 q 141 143 150 140 q 124 134 128 140 q 121 128 121 131 q 119 126 119 127 m 174 120 q 167 108 174 118 q 161 93 161 97 q 160 92 160 93 l 160 80 l 162 77 l 162 73 q 170 64 163 73 l 174 63 l 176 63 q 186 77 183 63 q 186 78 186 77 l 186 100 q 176 120 182 113 l 174 120 z "},"?":{"ha":402,"x_min":61,"x_max":343,"o":"m 195 972 l 203 972 q 206 970 206 972 l 206 718 q 210 713 206 715 l 220 713 q 250 690 250 705 q 254 681 254 690 l 261 681 q 277 656 277 673 q 283 646 279 656 l 283 637 q 292 618 283 633 l 292 608 l 290 604 q 292 602 292 604 l 292 586 l 296 581 l 296 567 l 299 563 l 299 543 q 290 532 294 532 l 290 528 q 303 482 296 516 q 309 455 305 482 q 315 439 313 439 l 315 426 q 321 401 317 420 l 321 389 l 324 385 l 324 371 q 331 340 328 365 l 331 322 l 334 318 l 334 315 q 338 279 334 304 l 338 258 l 340 258 l 340 220 q 343 210 343 211 l 343 189 q 340 178 340 180 l 340 159 q 335 136 338 155 q 312 82 319 87 q 269 30 306 62 q 239 12 252 15 q 197 0 233 4 q 106 56 144 0 q 77 132 93 75 l 71 168 l 71 174 l 68 177 l 68 197 q 65 203 65 201 q 61 267 65 216 q 65 342 65 328 q 68 345 68 342 l 68 370 l 71 374 l 71 379 q 75 399 71 386 l 75 408 q 80 434 77 412 q 84 442 81 434 l 83 442 q 94 484 87 463 q 100 505 94 489 q 106 528 100 507 q 95 540 106 531 l 94 543 l 94 553 q 101 579 97 559 q 108 595 106 580 q 109 596 109 595 l 109 599 l 102 608 l 102 621 l 109 630 l 109 642 q 119 654 115 654 l 119 662 q 139 684 127 678 l 149 684 q 172 711 155 703 q 191 715 176 713 l 193 718 l 193 970 q 195 972 193 972 m 238 529 l 238 509 l 241 505 l 241 493 q 249 465 243 490 l 257 448 l 257 441 q 265 426 261 441 q 288 384 277 409 q 296 351 296 353 l 296 338 q 281 286 296 320 q 243 254 260 258 l 228 254 l 217 260 l 213 260 q 191 251 210 257 l 167 251 q 150 263 159 255 q 109 290 132 263 q 101 315 102 304 q 100 317 100 315 l 100 337 l 102 341 l 102 351 q 128 414 109 379 q 154 466 154 448 q 158 477 156 475 l 158 526 l 120 526 q 98 462 117 526 q 91 434 92 434 q 84 400 91 419 l 84 385 l 81 382 l 81 374 q 77 340 77 348 l 77 333 l 75 329 l 75 215 l 77 211 l 77 200 q 81 174 77 193 l 81 165 l 84 161 l 84 152 l 95 110 q 127 48 109 67 q 158 20 129 39 l 178 14 l 187 14 l 191 11 l 201 11 q 205 14 201 11 l 218 14 q 241 23 223 17 q 311 104 293 56 q 323 136 315 109 l 331 174 l 331 231 q 327 278 327 249 q 324 281 324 278 l 324 307 l 321 311 l 321 318 q 317 348 321 323 l 317 356 l 315 360 l 315 376 q 309 400 313 378 q 308 401 308 400 l 308 414 q 295 475 306 416 q 291 488 292 475 l 279 529 l 238 529 m 167 526 q 170 515 170 518 l 170 492 q 167 481 167 482 l 167 469 q 162 449 165 466 q 149 425 154 432 q 124 380 131 399 q 115 351 116 362 q 113 349 113 351 q 112 326 113 342 q 140 277 112 290 l 144 277 l 144 285 l 142 289 l 142 302 q 146 319 144 304 q 167 351 157 346 l 180 351 q 197 325 197 340 q 199 318 197 321 q 197 315 197 318 l 197 304 q 165 266 184 274 l 165 263 q 170 260 170 263 l 186 260 q 206 267 202 267 l 206 271 q 199 286 204 273 l 199 302 q 233 336 212 336 q 235 337 233 337 l 239 337 q 252 330 239 335 q 257 321 254 321 l 257 314 q 225 270 247 283 l 225 267 q 235 264 231 267 l 238 264 q 276 300 262 272 q 283 317 276 304 l 283 333 q 286 344 283 334 l 286 345 l 283 349 l 283 368 l 280 368 l 280 372 q 257 419 277 385 q 228 513 231 475 l 228 519 q 225 526 225 522 l 167 526 m 158 322 l 158 314 l 155 314 l 155 277 l 163 277 q 186 309 179 285 l 186 329 q 175 340 183 336 l 172 340 q 158 322 166 338 m 212 294 q 217 277 212 277 l 218 277 q 243 309 234 288 l 243 323 l 237 325 q 212 294 214 325 z "},"@":{"ha":426,"x_min":68,"x_max":314,"o":"m 178 968 l 186 968 q 187 966 187 968 l 187 397 q 186 393 187 395 q 187 390 187 392 l 187 387 l 186 385 l 196 385 q 218 368 218 377 q 229 359 218 361 q 235 351 235 352 q 240 338 235 345 l 240 328 q 246 321 246 322 l 246 295 q 251 277 249 293 q 253 275 253 277 l 253 272 l 251 269 l 251 262 q 288 204 282 221 q 304 163 295 195 q 313 132 308 153 l 313 124 l 314 121 l 314 87 l 310 73 q 254 18 295 38 q 220 5 248 12 l 210 2 l 203 2 q 200 0 201 0 l 164 0 q 150 3 161 1 q 97 34 116 12 q 76 72 81 53 l 71 87 l 71 96 q 68 113 68 98 l 68 128 q 71 150 68 147 l 71 159 l 75 173 q 87 208 77 184 q 117 260 97 232 l 117 261 q 110 268 114 261 l 110 272 l 114 278 l 114 283 q 121 298 114 290 l 121 305 l 117 313 l 117 318 q 122 334 121 324 q 127 343 123 338 q 141 362 127 355 q 153 374 149 362 q 172 385 161 380 l 176 385 l 176 966 q 178 968 176 968 m 234 256 l 205 256 l 205 204 l 207 201 l 207 184 q 210 166 208 182 q 212 165 212 166 l 212 157 q 223 126 218 136 q 227 125 225 125 l 229 125 q 236 127 230 125 l 246 127 q 267 117 266 123 q 269 115 269 117 l 269 109 q 254 96 263 98 l 254 95 l 246 95 q 227 109 233 100 l 220 116 l 218 116 l 200 108 q 212 75 212 88 q 213 73 213 74 l 213 64 q 210 52 210 54 q 199 44 204 46 l 189 44 q 176 55 182 47 q 172 65 176 56 l 172 79 l 174 79 l 174 86 q 189 109 178 98 l 189 111 q 171 127 177 125 l 170 127 q 164 109 167 120 q 158 101 163 109 l 149 94 q 144 92 146 94 l 132 92 q 111 114 111 102 q 110 115 110 114 q 127 134 117 134 q 143 140 132 138 l 158 140 l 161 139 l 164 139 q 167 153 165 151 l 167 176 l 169 178 l 169 254 q 166 256 169 255 l 124 256 q 93 201 104 230 q 85 180 85 184 q 77 151 82 174 l 77 140 l 75 140 l 75 105 l 77 102 l 77 95 q 106 35 84 60 q 143 14 127 17 l 157 9 l 158 9 q 182 6 168 9 q 207 9 198 9 l 208 9 q 224 13 212 11 q 244 21 239 18 q 300 71 281 35 q 303 75 300 75 l 303 80 q 308 96 305 84 l 308 108 q 305 128 305 120 l 305 129 l 303 132 l 303 142 q 300 153 301 142 q 298 153 298 153 l 298 160 l 297 160 l 297 165 l 287 191 q 252 250 273 220 q 245 256 250 250 q 243 258 243 256 l 234 256 m 176 256 l 176 180 q 174 153 176 174 l 174 144 l 172 144 l 172 134 q 184 126 177 134 q 196 114 196 117 l 197 114 l 213 122 q 216 124 216 122 l 208 140 l 208 144 l 207 144 l 207 151 q 202 166 205 153 l 202 174 l 200 176 l 200 186 q 197 209 197 199 l 197 215 q 196 222 197 216 l 196 252 l 197 255 l 195 256 l 176 256 m 119 116 q 133 100 119 104 q 137 99 135 99 l 141 99 q 156 113 156 106 q 163 128 158 113 l 163 132 l 158 132 q 149 134 156 132 q 119 116 119 128 m 229 119 l 229 117 q 243 104 234 108 q 246 103 243 103 l 254 103 q 260 113 260 106 q 254 119 260 115 l 229 119 m 180 77 l 180 66 q 192 51 180 58 l 197 51 q 205 67 205 56 l 205 68 q 196 102 205 79 l 196 103 l 195 103 q 180 77 180 90 z "},"A":{"ha":509,"x_min":34,"x_max":472,"o":"m 237 972 l 250 972 q 254 968 254 971 l 254 669 l 269 669 q 307 640 307 654 q 309 638 309 640 l 309 630 q 336 606 330 630 q 343 591 336 599 l 343 568 q 356 549 356 563 q 355 537 356 544 q 359 505 356 517 l 359 492 q 366 471 366 479 q 359 452 363 458 q 426 351 401 399 q 462 248 462 271 q 469 221 463 245 l 469 207 l 472 202 l 472 155 q 467 135 469 153 q 449 99 457 112 q 376 34 412 52 q 291 3 339 14 q 278 0 281 3 l 197 0 q 176 5 193 3 q 146 15 172 7 q 109 39 114 31 q 79 70 79 58 q 54 111 72 70 q 34 210 34 162 q 109 431 34 316 q 122 449 111 439 l 120 449 l 122 452 q 114 463 114 461 l 114 465 q 122 484 114 471 l 119 488 q 125 507 121 488 q 133 517 127 507 l 133 531 l 127 544 l 127 553 q 135 570 130 559 q 133 576 133 572 q 149 614 149 606 q 174 631 163 630 q 192 650 181 632 q 222 669 196 659 l 234 669 l 234 968 q 237 972 235 972 m 68 327 l 68 319 q 52 264 60 304 l 52 252 l 49 248 l 49 174 q 54 151 52 172 q 57 143 57 151 l 57 138 l 60 138 l 60 129 q 99 65 83 75 q 151 28 117 43 q 224 12 168 19 l 250 12 q 281 16 260 12 l 291 16 q 323 24 296 19 q 347 34 323 26 q 450 132 425 69 q 460 174 456 147 l 460 178 l 452 227 l 452 239 q 439 286 449 243 q 377 407 415 353 q 347 444 350 444 l 342 444 q 301 441 301 443 q 298 433 301 437 l 298 347 l 301 342 l 301 326 q 320 273 310 298 q 374 215 326 255 l 374 213 q 368 207 374 211 l 350 218 q 320 216 340 218 q 293 221 295 218 l 288 221 l 283 218 l 262 218 q 239 227 248 227 q 224 213 239 222 l 212 213 q 203 224 203 218 l 197 224 l 182 218 l 168 218 l 148 227 l 138 221 l 114 221 l 109 224 l 104 224 l 99 221 l 98 221 q 91 228 95 221 l 91 229 q 111 241 93 236 q 146 270 138 260 q 182 350 176 307 q 184 351 184 350 l 184 358 q 189 394 189 389 l 189 414 q 184 443 189 433 l 138 443 q 136 444 136 443 q 125 431 130 444 q 100 392 121 431 q 84 361 90 376 l 70 327 l 68 327 m 200 443 l 200 365 l 197 359 l 197 349 q 192 337 197 343 l 192 327 l 189 327 l 189 317 l 169 280 q 143 248 168 276 q 144 245 143 245 l 148 244 q 172 257 157 246 l 192 257 l 205 248 q 218 256 210 248 l 220 256 q 241 245 229 256 q 263 260 254 256 l 267 260 q 283 245 279 256 q 288 241 283 243 l 290 241 q 304 252 290 247 l 315 252 l 315 256 q 288 330 288 306 q 285 342 285 330 l 285 359 l 281 365 l 281 410 q 285 423 281 412 l 285 443 l 200 443 m 254 241 l 254 239 q 267 229 254 236 l 277 229 l 277 231 q 265 245 271 242 q 254 241 255 241 m 174 244 q 163 235 174 242 l 165 233 l 180 233 q 192 239 189 233 q 187 244 192 241 l 174 244 m 125 235 l 133 235 l 133 241 l 132 241 q 125 235 129 241 m 216 241 q 212 235 216 237 q 218 227 214 227 l 221 227 q 231 233 229 233 l 231 236 q 226 241 231 238 l 216 241 m 309 241 q 301 237 309 237 l 301 229 l 335 229 l 335 231 q 323 237 332 237 l 314 237 l 314 241 l 309 241 z "},"B":{"ha":1010,"x_min":61,"x_max":924,"o":"m 461 965 l 500 965 q 506 959 506 964 l 506 842 q 500 836 506 836 l 461 836 q 455 842 455 836 l 455 959 q 461 965 456 965 m 241 935 q 308 827 253 925 q 265 803 272 803 q 202 911 226 863 l 241 935 m 743 935 q 783 914 775 914 q 716 803 747 837 l 677 827 q 743 935 738 932 m 485 806 l 509 806 q 734 661 734 806 q 605 321 734 568 q 596 304 602 304 l 392 304 q 308 472 387 304 q 248 665 248 584 q 485 806 248 806 m 317 650 q 416 382 317 582 q 419 373 419 376 l 473 373 q 371 715 371 648 q 317 650 317 684 m 70 667 q 170 659 151 665 q 178 661 175 661 q 191 652 191 657 l 191 629 q 181 610 191 613 q 64 616 75 616 l 61 623 q 70 667 61 667 m 918 667 q 924 619 924 654 l 918 616 q 801 610 812 610 q 795 650 795 624 l 795 652 q 918 667 795 663 m 353 273 l 623 273 q 629 268 629 273 l 629 216 q 600 210 629 210 l 600 208 q 629 201 629 208 l 629 153 q 600 144 629 144 l 600 69 q 593 63 600 63 l 548 63 l 548 57 q 491 0 538 0 l 479 0 q 425 63 425 12 l 382 63 q 376 69 376 63 l 376 120 l 365 120 l 350 117 l 347 123 l 347 174 q 376 183 347 180 l 376 210 l 353 210 q 347 216 347 210 l 347 268 q 353 273 348 273 z "},"C":{"ha":773,"x_min":61,"x_max":708,"o":"m 377 968 l 392 968 q 646 848 538 968 q 708 676 708 764 l 708 667 q 611 446 708 566 q 549 274 549 368 l 549 266 l 545 264 l 222 264 q 219 267 219 264 q 167 431 219 366 q 62 644 62 568 q 61 664 61 644 l 61 673 q 195 913 61 815 q 377 968 284 968 m 155 667 q 251 477 155 599 q 304 360 304 387 l 335 360 q 281 597 281 589 l 281 641 q 285 644 282 644 l 486 644 q 490 641 490 644 l 490 606 q 434 360 490 591 l 463 360 q 581 566 463 406 q 614 667 614 625 q 471 859 614 795 q 384 874 425 874 q 180 762 254 874 q 155 667 155 716 m 321 593 q 359 360 359 366 l 411 360 l 448 593 l 321 593 m 236 235 l 527 235 q 544 195 544 220 q 527 153 544 168 l 236 153 q 224 192 227 153 q 236 235 226 231 m 236 134 l 527 134 q 544 94 544 119 l 544 92 q 527 52 544 67 l 236 52 q 224 91 227 52 l 224 94 q 236 134 228 134 m 323 35 l 446 35 q 454 18 450 35 q 446 0 454 8 l 323 0 q 318 14 318 1 l 318 22 q 323 35 318 35 z "},"D":{"ha":517,"x_min":34,"x_max":474,"o":"m 252 970 l 262 970 q 449 718 369 970 q 474 530 474 617 l 474 521 q 408 300 474 382 q 430 240 424 300 q 421 193 430 229 q 430 146 430 165 q 390 90 430 90 q 102 66 368 90 q 84 128 84 101 q 96 168 89 166 q 84 218 87 189 q 115 275 84 271 l 124 275 l 124 278 q 59 380 88 299 q 34 530 43 404 q 137 896 34 723 q 252 970 192 970 m 115 528 l 115 524 q 178 334 115 394 l 196 334 l 196 462 q 215 490 196 476 l 215 503 q 178 581 189 581 q 171 587 171 581 l 174 602 q 171 606 171 602 l 186 614 q 196 599 194 599 q 224 624 203 599 q 256 614 240 614 l 264 614 q 293 624 272 614 q 315 602 293 619 q 321 612 321 602 l 330 612 q 340 602 335 612 q 336 593 336 596 q 349 583 349 588 q 343 577 349 577 l 328 577 q 296 496 296 509 l 296 490 q 318 468 318 471 l 318 334 l 330 334 q 396 528 396 393 q 293 867 396 714 q 252 892 268 892 q 143 718 205 892 q 115 528 115 623 m 224 606 q 202 583 224 599 q 218 546 218 552 l 221 546 q 231 574 221 574 q 240 577 240 574 l 256 574 l 264 574 q 277 577 272 574 q 290 543 290 577 l 293 543 q 309 590 309 581 l 290 606 q 256 599 261 599 q 224 606 227 606 m 237 562 l 237 552 q 252 546 252 552 l 252 490 q 237 481 252 483 l 237 334 l 277 334 l 277 481 q 258 490 258 481 l 258 546 q 274 552 258 552 l 274 562 l 237 562 m 224 536 q 233 512 233 515 l 237 512 l 237 536 l 224 536 m 274 536 l 274 496 l 277 496 q 287 536 277 514 l 274 536 m 212 468 l 212 334 l 215 334 l 215 468 l 212 468 m 296 468 l 296 334 l 302 334 l 302 468 l 296 468 m 137 234 l 137 206 l 377 228 l 377 256 q 137 234 357 253 m 140 144 l 137 137 l 137 113 l 377 131 l 377 162 l 140 144 m 324 75 l 328 68 q 262 0 328 27 l 249 0 q 186 56 186 14 q 324 75 186 64 z "},"E":{"ha":529,"x_min":34,"x_max":488,"o":"m 399 970 q 443 926 443 961 q 349 863 443 886 q 128 782 307 844 q 83 823 83 788 l 83 831 q 191 895 83 866 q 399 970 353 958 m 440 855 q 479 808 479 847 q 382 747 479 771 q 89 640 103 640 q 44 684 44 648 q 146 750 44 724 q 440 855 401 848 m 435 716 q 479 669 479 716 q 375 606 479 632 q 194 538 368 601 q 202 504 202 525 l 202 451 q 215 446 215 451 l 215 422 l 291 422 l 291 446 q 307 451 291 451 l 307 506 q 351 556 307 542 q 438 587 427 587 l 440 587 q 482 545 482 583 q 404 486 482 505 q 393 480 404 480 l 393 451 q 409 446 409 451 l 409 422 l 482 422 q 488 417 488 421 l 488 323 l 412 226 l 412 42 q 406 37 412 37 l 317 37 q 260 0 293 0 q 204 37 204 12 l 121 37 q 115 42 115 37 l 115 215 q 34 323 115 226 l 34 417 q 39 422 35 422 l 97 422 l 97 446 q 102 451 98 451 l 115 451 l 115 483 q 52 519 60 512 q 44 543 52 522 q 134 606 44 586 q 435 716 418 715 m 173 191 l 173 160 q 246 189 241 189 l 246 191 l 173 191 m 173 142 l 173 105 q 354 181 347 174 l 354 191 l 296 191 q 173 142 173 148 m 191 97 l 191 94 l 270 94 q 354 126 275 94 l 354 160 l 191 97 m 317 97 l 317 94 l 354 94 l 354 110 q 317 97 323 97 z "},"F":{"ha":675,"x_min":41,"x_max":637,"o":"m 338 970 q 601 814 502 970 q 637 671 637 741 q 507 425 637 522 q 498 421 501 421 l 498 389 l 513 391 l 530 391 q 551 319 551 356 q 538 265 551 300 q 551 208 551 233 q 530 143 551 173 l 154 109 q 135 186 135 149 q 148 237 135 205 q 135 297 135 264 q 163 359 142 359 q 184 361 170 361 l 184 414 q 41 659 41 517 l 41 684 q 173 922 41 819 q 338 970 256 970 m 102 669 q 235 460 102 534 q 246 451 245 456 l 246 378 l 248 378 q 430 382 319 378 q 436 385 434 385 l 436 453 q 479 481 439 459 q 573 661 573 561 l 573 682 q 475 863 573 785 q 345 906 412 906 l 334 906 q 117 757 191 906 q 102 669 102 711 m 370 853 l 372 853 l 349 697 q 464 642 449 646 l 464 637 q 286 419 294 425 l 286 421 q 345 624 286 427 l 224 652 l 224 656 q 370 853 367 852 m 197 299 l 197 289 l 199 289 l 486 312 q 490 323 490 319 l 486 325 q 197 299 205 301 m 197 188 l 197 178 l 199 178 q 488 203 488 201 l 490 212 l 486 214 q 197 188 254 195 m 425 90 l 428 85 q 338 0 428 11 q 259 64 282 0 q 256 73 256 68 q 425 90 256 77 z "},"G":{"ha":798,"x_min":34,"x_max":764,"o":"m 380 972 l 421 972 q 429 964 429 970 l 429 864 q 421 857 429 857 l 380 857 q 373 864 373 857 l 373 964 q 380 972 374 972 m 216 931 q 272 830 272 845 l 235 808 l 231 808 q 176 905 199 844 l 176 909 q 216 931 182 909 m 581 927 q 626 897 622 907 q 566 804 576 808 q 526 830 532 819 q 581 927 554 885 m 52 789 l 64 789 q 153 730 146 745 q 134 692 134 698 l 131 692 q 34 741 122 692 l 34 745 q 52 789 34 751 m 738 785 q 764 745 764 747 l 764 741 q 667 685 678 685 q 641 726 641 724 q 738 785 644 734 m 399 774 q 615 629 547 774 q 626 570 626 589 q 518 357 626 498 q 496 279 499 309 l 309 279 q 287 350 305 279 q 176 570 176 503 q 343 767 176 705 q 399 774 391 771 m 283 245 q 536 208 536 220 l 544 182 q 529 157 544 163 q 261 197 261 178 l 257 216 l 257 231 q 283 245 263 245 m 279 157 q 536 115 536 132 q 544 93 544 103 q 518 63 541 63 q 269 100 296 90 q 257 127 257 114 l 257 130 q 279 157 257 157 m 324 71 q 469 48 469 56 q 399 0 444 0 l 395 0 q 324 67 324 12 l 324 71 z "},"H":{"ha":686,"x_min":34,"x_max":647,"o":"m 339 972 q 615 801 516 972 q 647 667 647 728 q 564 446 647 562 q 495 252 495 345 q 461 218 495 241 l 461 109 q 378 9 461 75 q 337 0 355 0 q 254 54 302 0 q 220 109 220 82 l 220 218 q 183 273 183 236 q 73 517 183 357 q 34 664 34 595 q 205 940 34 841 q 339 972 277 972 m 79 673 l 79 658 q 164 455 79 570 q 229 262 229 347 l 239 260 l 273 260 q 277 265 277 260 l 277 427 q 279 446 277 435 q 192 658 200 649 q 183 667 189 658 l 183 677 q 199 688 190 688 q 237 675 216 675 q 269 688 245 675 q 335 662 304 665 l 339 662 q 408 686 372 662 l 412 688 q 448 675 435 675 q 485 688 460 675 q 497 677 494 685 l 497 667 q 459 591 484 660 q 401 451 408 458 l 404 425 l 404 265 q 408 260 404 260 l 442 260 q 454 282 454 260 q 572 541 454 372 q 602 658 602 604 l 602 673 q 448 905 602 820 q 348 927 392 927 l 333 927 q 100 773 186 927 q 79 673 79 717 m 233 645 q 216 647 221 647 l 216 645 q 294 455 291 458 q 314 470 314 455 l 314 545 q 299 564 299 553 q 305 576 299 569 q 267 654 285 625 q 233 645 252 647 m 412 654 q 376 574 378 585 q 382 562 382 572 q 367 545 382 553 l 367 470 q 387 455 367 455 q 465 647 390 456 l 463 647 l 448 645 q 412 654 440 645 m 292 643 l 292 639 q 324 576 320 578 l 357 576 q 389 643 368 592 q 342 634 371 634 l 339 634 q 292 643 310 634 m 329 549 l 329 331 q 320 323 329 328 q 314 329 317 323 l 314 442 l 311 442 q 290 425 290 442 l 290 265 q 294 260 291 260 l 387 260 q 391 265 391 260 l 391 425 q 367 442 391 442 l 367 329 q 361 323 367 326 q 352 331 357 323 l 352 549 l 329 549 m 250 218 l 250 190 l 427 190 q 433 207 431 190 l 431 212 l 431 214 l 433 218 l 250 218 m 250 177 l 250 149 l 433 149 l 431 154 l 431 177 l 250 177 m 250 134 l 250 106 l 431 106 l 431 122 q 433 124 431 124 l 431 128 l 431 130 l 433 134 l 250 134 m 271 79 q 301 49 271 76 l 380 49 q 410 79 383 49 l 271 79 z "},"I":{"ha":693,"x_min":34,"x_max":646,"o":"m 339 970 q 612 804 513 970 q 646 665 646 730 q 563 446 646 561 q 494 252 494 344 q 460 218 494 241 l 460 109 q 373 6 460 73 q 339 0 351 0 q 258 49 300 0 q 220 109 220 81 l 220 218 q 183 273 183 236 q 73 516 183 357 q 34 663 34 595 q 200 937 34 837 q 339 970 274 970 m 79 672 l 79 657 q 164 454 79 568 q 228 262 228 347 l 239 260 l 275 260 l 275 371 q 302 425 275 412 l 304 425 l 304 473 q 275 525 275 480 l 275 682 q 292 730 275 717 q 337 753 328 745 l 343 753 q 386 732 355 742 q 405 687 405 717 l 405 525 q 375 473 405 480 l 375 425 q 405 376 398 425 l 405 260 l 441 260 q 454 281 454 260 q 572 540 454 372 q 602 657 602 604 l 602 672 q 463 896 602 810 q 347 926 405 926 l 332 926 q 109 787 194 926 q 79 672 79 728 m 290 680 l 290 665 q 292 655 290 659 l 290 642 l 290 570 l 313 570 l 313 629 q 298 648 298 637 q 313 661 298 661 l 367 661 q 382 646 382 661 q 367 629 382 638 l 367 570 l 390 570 l 390 591 q 388 606 390 603 q 390 625 390 617 l 390 680 q 356 725 390 725 l 324 725 q 290 680 290 725 m 328 631 l 328 570 l 352 570 l 352 631 l 328 631 m 290 550 l 290 525 q 322 484 290 484 l 358 484 q 390 525 390 484 l 390 555 l 367 555 l 367 512 q 360 505 367 509 l 358 505 q 352 518 352 508 l 352 555 l 328 555 l 328 518 q 322 505 328 507 l 319 505 q 313 512 317 505 l 313 555 l 294 555 q 290 550 290 554 m 334 469 l 334 427 l 339 429 l 341 429 l 345 427 l 345 469 l 334 469 m 290 369 l 290 271 l 292 260 l 386 260 q 390 264 390 260 l 390 371 l 388 382 l 390 382 q 364 412 384 412 l 315 412 q 290 369 290 412 m 317 391 l 322 391 q 328 384 325 391 l 328 290 q 322 283 328 287 l 317 283 q 313 288 313 283 l 313 386 q 317 391 314 391 m 358 391 l 362 391 q 367 386 367 390 l 367 288 q 360 281 367 285 q 352 290 357 281 l 352 384 q 358 391 352 387 m 250 218 l 250 192 l 431 192 l 431 218 l 250 218 m 250 177 l 250 149 l 433 149 q 431 156 433 151 l 433 177 l 431 177 q 427 175 427 177 l 416 177 l 250 177 m 250 134 l 250 106 l 429 106 l 433 109 l 431 123 l 431 134 l 250 134 m 271 79 q 300 49 271 76 l 379 49 q 410 79 382 49 l 271 79 z "},"J":{"ha":578,"x_min":34,"x_max":541,"o":"m 289 968 q 393 922 380 968 q 395 913 393 917 q 312 858 395 872 q 77 788 101 792 q 34 828 34 793 l 34 835 q 121 888 34 873 q 182 909 180 907 q 180 911 182 911 q 272 968 180 960 l 289 968 m 495 873 l 503 873 q 541 835 541 865 l 541 828 q 473 779 541 790 q 77 661 92 663 q 34 701 34 668 l 34 707 q 119 760 34 746 q 495 873 216 792 m 499 747 q 541 707 541 740 l 541 701 q 450 646 541 661 q 195 569 445 642 l 195 567 q 265 422 265 497 l 310 422 l 310 425 q 416 593 310 519 q 503 620 481 620 q 541 582 541 610 l 541 574 q 478 527 541 538 q 406 463 433 509 q 395 422 397 438 l 480 422 q 497 408 497 421 q 427 276 497 320 q 408 238 408 255 l 408 109 q 321 6 408 73 q 287 0 298 0 q 206 49 248 0 q 168 113 168 79 l 168 231 q 115 302 168 271 q 79 410 79 345 q 96 422 83 422 l 180 422 q 113 520 180 475 q 34 571 34 539 l 34 580 q 111 631 34 618 q 499 747 229 669 m 109 393 q 165 300 109 337 q 195 259 180 285 l 380 259 q 439 323 399 296 q 467 393 467 357 l 109 393 m 197 216 l 197 191 l 242 191 q 274 189 264 191 q 310 191 290 191 l 378 191 l 378 212 l 380 216 l 197 216 m 197 176 l 197 149 l 380 149 l 378 153 l 378 176 l 317 176 q 295 174 307 176 q 276 176 288 176 l 255 176 q 233 174 245 176 q 214 176 226 176 l 197 176 m 197 134 l 197 106 l 378 106 l 378 134 l 197 134 m 218 79 q 248 49 219 75 l 327 49 q 357 79 330 49 l 218 79 z "},"K":{"ha":689,"x_min":34,"x_max":647,"o":"m 342 972 q 600 827 499 972 q 647 667 647 747 q 564 446 647 562 q 495 252 495 345 q 461 218 495 241 l 461 109 q 382 13 461 75 q 339 0 368 0 q 254 54 300 0 q 220 109 220 82 l 220 218 q 183 273 183 237 q 75 515 183 356 q 34 667 34 591 q 186 929 34 828 q 342 972 264 972 m 79 688 l 92 688 q 106 686 104 688 q 125 688 118 688 l 151 688 q 166 686 166 688 l 192 688 l 602 688 q 538 840 602 753 q 348 927 452 927 l 333 927 q 102 775 186 927 q 79 688 79 716 m 81 643 l 79 643 q 162 457 79 577 q 229 262 229 350 l 239 260 l 241 260 l 241 262 q 162 534 241 364 q 143 643 143 595 l 138 643 q 109 645 122 643 q 81 643 98 643 m 171 643 q 239 423 171 577 q 271 260 271 335 l 283 260 q 239 568 283 353 q 235 639 235 608 l 235 643 l 171 643 m 262 643 q 303 382 262 585 q 311 286 311 334 l 311 265 q 316 260 312 260 l 322 260 q 326 265 326 260 l 326 643 l 262 643 m 354 643 l 354 260 l 365 260 q 369 265 369 260 l 369 286 q 412 568 369 361 q 418 643 416 605 l 354 643 m 446 643 l 446 639 q 408 387 446 571 q 397 260 397 322 l 410 260 q 493 549 410 368 q 510 643 510 616 l 446 643 m 538 643 l 538 641 q 469 416 538 562 q 439 260 439 332 l 442 260 q 454 282 454 260 q 574 545 454 371 q 602 643 602 612 l 538 643 m 248 216 l 250 212 l 250 190 l 290 190 q 299 192 295 190 q 307 190 302 190 l 318 190 l 333 192 l 333 190 q 335 192 335 190 l 346 190 l 431 190 l 431 218 l 252 218 l 248 216 m 250 177 l 250 149 l 431 149 l 431 177 l 250 177 m 248 134 l 250 130 l 250 117 q 248 115 250 115 q 250 106 250 112 l 431 106 q 433 113 431 113 l 431 117 l 431 134 l 248 134 m 271 79 q 301 49 271 76 l 380 49 q 410 79 383 49 l 271 79 z "},"L":{"ha":560,"x_min":34,"x_max":515,"o":"m 267 970 l 279 970 q 488 686 371 970 q 515 523 515 593 q 427 239 515 390 l 427 215 q 424 79 427 171 q 391 45 408 79 q 276 0 332 0 q 134 75 187 0 q 121 81 121 75 l 121 233 q 76 323 121 239 q 34 517 34 421 l 34 535 q 161 886 34 695 q 267 970 224 970 m 82 520 q 164 263 82 397 l 378 263 q 463 502 463 387 l 463 547 q 336 871 463 684 q 273 922 292 922 q 119 705 220 922 q 82 520 82 608 m 188 602 q 203 577 203 594 l 221 602 l 233 602 q 249 577 249 594 q 267 602 262 602 l 279 602 q 294 577 287 602 q 312 602 308 602 l 324 602 q 339 577 332 602 l 342 577 q 357 602 350 602 q 363 595 363 601 l 363 589 q 345 553 363 564 l 336 553 q 321 577 321 561 q 300 553 304 553 l 291 553 q 276 577 276 561 q 258 553 262 553 l 245 553 q 231 577 238 553 q 212 553 216 553 l 200 553 q 182 593 182 567 l 182 595 q 188 602 183 602 m 140 593 q 185 456 156 593 q 221 311 221 335 l 212 305 l 203 305 q 164 438 192 305 q 125 577 158 452 q 140 593 125 585 m 399 589 l 412 589 q 421 581 416 589 q 345 305 353 305 l 333 305 q 324 315 329 305 q 399 589 392 589 m 170 239 l 170 203 q 303 236 283 233 l 303 239 l 170 239 m 170 176 l 170 136 l 173 136 q 376 193 376 189 l 376 230 l 372 230 l 170 176 m 233 127 l 233 124 l 376 124 l 376 163 q 233 127 287 139 m 200 75 q 267 52 228 52 l 276 52 q 345 75 323 52 l 200 75 z "},"M":{"ha":851,"x_min":41,"x_max":811,"o":"m 425 968 q 780 733 659 968 q 811 578 811 656 q 663 269 811 414 q 604 115 610 175 q 551 59 604 73 q 427 0 500 0 l 421 0 q 294 62 350 0 q 233 170 248 62 q 115 353 224 233 q 41 566 41 459 l 41 597 q 251 928 41 799 q 425 968 347 968 m 94 594 l 94 566 q 267 288 94 400 q 412 251 343 251 l 443 251 q 718 420 604 251 q 758 582 758 507 q 557 888 758 784 q 421 916 486 916 q 155 777 267 916 q 94 594 94 688 m 433 869 l 440 869 l 415 610 q 524 647 421 610 q 526 644 524 644 q 477 307 483 326 l 375 307 q 369 313 369 307 l 440 557 l 437 557 q 326 507 362 519 l 326 511 l 433 869 m 235 244 q 279 99 260 186 q 332 87 296 87 l 511 87 q 576 115 576 87 q 613 244 576 138 q 427 195 514 195 q 235 244 336 195 m 279 176 q 406 158 350 158 l 443 158 q 573 176 499 158 l 573 167 q 440 117 526 117 l 409 117 q 276 170 320 117 l 279 176 m 350 59 l 350 56 q 415 37 389 37 l 433 37 q 498 56 463 37 l 498 59 l 350 59 z "},"N":{"ha":734,"x_min":34,"x_max":692,"o":"m 346 970 l 380 970 q 661 788 551 970 q 692 655 692 717 l 692 625 q 575 380 692 503 q 538 269 562 368 q 553 244 553 261 l 553 232 q 544 201 544 204 q 553 182 553 198 l 553 170 q 519 136 546 136 q 423 6 519 40 q 383 0 410 0 q 278 43 330 0 q 232 87 232 43 q 244 115 232 98 q 232 149 232 133 q 238 173 232 151 q 222 198 222 181 l 222 210 q 334 275 222 242 q 470 334 470 330 q 575 510 470 396 q 612 640 612 588 q 448 875 612 798 q 380 887 403 887 l 346 887 q 136 742 220 887 q 117 655 117 684 l 117 637 q 219 433 117 530 q 266 284 266 347 q 222 254 250 254 q 167 355 182 254 q 83 464 149 387 q 34 643 34 547 l 34 649 q 226 943 34 837 q 346 970 295 970 m 58 637 q 173 395 58 511 q 213 281 187 377 l 226 278 q 241 294 241 283 q 185 436 229 378 q 93 631 93 524 l 93 652 q 266 897 93 812 q 368 915 323 914 q 596 782 504 915 q 637 640 637 712 q 526 414 637 524 q 488 312 507 382 l 247 213 l 247 198 q 256 189 247 193 l 260 189 q 519 288 280 189 q 566 411 528 361 q 667 621 667 515 l 667 661 q 541 890 667 787 q 374 946 460 946 l 352 946 q 86 770 184 946 q 58 637 58 711 m 262 659 l 463 659 q 498 631 498 659 q 433 526 498 578 l 433 346 q 427 340 433 340 l 414 340 q 408 346 408 340 l 408 541 q 470 627 470 594 l 256 627 q 318 544 256 594 l 318 346 q 312 340 318 340 l 300 340 q 294 346 294 340 l 294 526 q 229 631 229 581 q 262 659 229 656 m 256 142 q 269 130 256 138 l 272 130 q 528 229 479 204 l 528 244 q 519 254 528 249 q 260 157 488 248 l 256 142 m 256 80 q 269 68 256 75 l 272 68 q 528 167 494 149 l 528 182 q 519 192 528 186 q 260 96 504 192 l 256 80 m 312 56 l 312 52 q 387 24 335 24 q 491 111 465 24 l 494 123 l 312 56 z "},"O":{"ha":802,"x_min":27,"x_max":759,"o":"m 378 972 l 412 972 q 710 790 587 972 q 759 606 759 701 q 633 335 759 444 l 618 335 q 584 372 592 335 q 639 452 584 385 q 682 587 682 526 l 682 627 q 550 852 682 751 q 393 898 476 898 q 123 713 208 898 q 101 603 101 663 q 199 385 101 489 l 199 369 q 165 335 195 335 l 159 335 q 49 479 117 335 q 27 597 27 543 l 27 618 q 218 929 27 810 q 378 972 300 972 m 258 726 q 350 633 350 713 l 350 585 l 356 587 l 436 587 l 436 646 q 513 723 456 723 q 534 726 517 726 q 627 640 627 712 q 630 637 630 640 q 526 541 630 551 l 479 541 l 479 378 q 473 372 479 372 l 442 372 q 436 378 436 372 l 436 455 q 433 486 436 470 q 436 513 436 497 l 436 541 l 350 541 l 350 378 q 344 372 350 372 l 313 372 q 307 378 307 372 l 307 541 l 267 541 q 163 603 183 541 q 156 637 156 615 q 255 726 156 714 l 258 726 m 199 633 q 245 587 208 587 l 301 587 l 307 585 l 307 631 q 267 680 300 680 l 239 680 q 199 633 210 680 m 479 640 l 479 585 l 486 587 l 544 587 q 584 633 578 587 l 584 640 q 544 680 574 680 l 519 680 q 479 640 479 669 m 233 301 l 550 301 q 581 271 581 297 q 550 243 581 248 l 239 243 q 205 271 205 243 l 205 274 q 233 301 210 301 m 233 228 l 553 228 q 581 197 576 228 q 550 169 581 176 l 239 169 q 205 197 205 169 l 205 200 q 233 228 210 228 m 233 154 l 553 154 q 581 123 578 154 q 544 96 581 100 l 236 96 q 205 123 205 100 l 205 126 q 233 154 210 154 m 286 80 l 498 80 q 504 74 504 79 l 504 56 q 452 0 493 0 l 338 0 q 279 64 286 0 l 279 74 q 286 80 280 80 z "},"P":{"ha":760,"x_min":54,"x_max":709,"o":"m 362 971 q 403 963 381 971 q 430 969 416 969 q 470 954 451 969 l 476 955 l 490 955 q 546 931 517 955 q 556 922 550 922 q 600 897 582 922 q 606 884 604 884 q 655 845 640 871 q 665 811 663 833 q 697 747 697 790 q 694 727 697 739 q 709 686 709 711 l 709 682 q 703 644 709 667 q 707 612 707 630 q 683 551 707 580 q 667 505 683 526 q 587 370 587 384 q 561 281 563 312 q 543 230 554 241 q 528 217 528 220 q 523 201 528 210 q 527 186 527 194 q 520 170 527 180 q 526 156 523 170 q 519 138 526 147 q 523 127 523 132 l 523 121 q 519 112 522 112 q 520 98 520 102 l 520 97 q 500 70 520 83 q 461 40 485 49 q 439 21 459 33 q 416 3 439 12 q 387 0 403 0 l 382 0 q 331 20 342 0 q 317 30 331 22 q 293 48 310 41 q 266 73 283 53 q 250 101 250 83 q 252 109 251 109 q 248 124 248 116 l 248 126 q 251 140 248 129 q 245 155 245 146 q 250 171 247 165 q 244 184 244 177 l 244 190 q 248 201 244 193 q 240 222 243 209 q 220 245 220 233 q 204 315 214 258 q 157 423 182 386 q 102 517 102 500 q 102 526 102 521 l 102 530 l 102 534 q 66 598 66 556 l 66 603 q 71 630 66 616 q 54 684 54 655 l 54 685 q 63 727 54 703 l 63 728 q 62 737 63 732 q 95 797 62 770 l 94 803 q 145 869 94 844 q 184 913 145 878 q 248 937 218 937 q 262 936 253 937 q 362 971 309 971 m 284 913 q 307 892 302 892 l 309 892 q 370 914 348 892 l 370 912 q 345 892 364 900 q 293 878 311 884 q 272 847 272 864 l 272 837 q 312 784 272 801 q 339 781 330 781 q 392 821 378 781 q 394 831 394 829 l 395 831 l 395 831 q 336 774 395 781 q 312 758 327 774 q 307 736 307 746 q 321 684 307 722 q 325 663 323 676 q 311 634 325 646 l 310 634 q 319 661 319 646 l 319 662 q 303 716 319 673 q 300 736 300 728 q 309 776 300 741 q 304 783 307 782 l 301 783 q 282 755 292 783 q 237 719 258 719 l 237 717 q 266 694 254 717 q 269 673 269 684 l 269 671 q 269 643 269 657 q 303 590 269 602 q 313 589 309 589 l 318 589 q 376 639 358 589 q 380 671 380 657 q 349 740 380 710 l 350 740 q 384 692 374 723 q 402 673 387 673 l 406 673 q 443 696 432 673 l 443 702 q 441 726 441 724 q 479 780 441 766 q 484 781 484 781 q 452 751 456 764 q 448 732 448 739 l 448 729 q 469 697 448 708 q 484 693 474 694 q 540 724 514 693 l 540 722 q 484 685 520 685 l 477 685 q 459 689 473 685 l 454 689 q 405 667 428 667 q 387 658 387 666 q 365 603 383 631 q 335 580 354 592 l 335 572 q 368 525 335 543 l 366 525 q 334 545 353 525 q 322 575 328 557 q 300 580 320 578 q 271 603 277 587 q 262 639 262 618 q 264 670 264 663 q 218 716 264 716 q 167 676 179 716 q 163 652 165 670 l 164 651 q 163 650 164 650 q 167 621 164 633 l 165 621 q 124 638 145 638 l 121 638 q 85 604 85 633 l 85 599 q 119 552 85 566 q 158 537 150 552 q 162 524 160 534 l 161 524 q 144 539 153 539 l 140 539 q 121 524 121 539 q 170 432 121 503 q 228 279 209 383 q 242 242 232 256 q 288 227 242 237 q 377 219 332 219 l 394 219 q 526 239 477 219 q 553 326 540 249 q 599 431 575 397 q 663 540 663 526 l 663 542 q 656 553 663 553 q 626 541 642 553 l 625 541 l 625 542 q 661 561 627 549 q 687 618 687 580 q 646 669 687 660 q 634 670 642 670 l 631 670 q 617 640 623 670 q 612 617 613 631 q 618 603 612 608 q 650 610 637 610 l 658 610 l 658 608 q 618 585 635 608 q 598 528 614 567 l 597 523 q 600 493 600 505 l 600 488 q 559 433 600 446 q 591 488 591 452 q 572 513 591 513 q 534 496 544 508 q 456 451 498 451 l 446 451 q 401 471 429 451 q 393 473 395 473 l 389 473 q 347 465 348 467 q 343 456 344 465 l 343 446 q 370 420 343 429 l 370 418 l 369 418 q 338 445 348 418 q 328 471 335 471 q 306 477 310 477 q 277 464 298 477 q 255 458 271 460 q 245 459 250 459 l 245 461 l 250 461 q 288 486 276 461 l 288 488 q 275 511 288 491 q 271 529 271 521 q 272 540 271 530 l 274 540 l 274 532 q 318 482 274 499 q 347 477 331 477 q 394 499 394 477 q 414 534 399 524 l 418 536 l 420 536 q 402 499 402 519 q 435 459 402 471 q 451 458 444 458 l 452 458 q 521 489 495 458 q 526 503 526 498 l 526 505 q 503 513 526 508 q 496 517 503 514 l 496 518 q 526 513 511 513 l 532 513 q 604 559 580 513 q 610 592 610 578 q 600 609 609 609 q 570 593 597 609 q 534 585 551 585 l 534 585 q 484 600 504 585 l 486 600 q 523 592 504 592 l 529 592 q 604 629 571 592 q 616 675 616 653 l 616 679 q 610 711 616 694 l 612 711 q 624 685 619 698 q 650 676 624 681 q 673 665 658 674 l 677 665 q 688 686 688 667 q 656 733 688 722 q 647 734 651 734 q 633 732 644 734 q 652 738 640 738 l 653 738 q 677 730 663 738 l 677 730 q 679 738 679 734 l 679 746 q 653 791 679 779 l 650 791 q 626 769 641 769 q 613 766 626 767 q 593 775 601 766 l 593 776 l 593 776 q 605 772 601 772 l 610 772 q 644 799 636 772 q 644 808 644 804 l 644 813 q 618 856 644 838 q 593 861 608 861 q 593 861 593 861 q 559 901 588 901 l 559 901 q 548 897 555 901 q 549 888 549 889 q 547 859 547 862 q 572 824 547 829 q 579 823 576 823 q 606 831 588 823 q 578 818 593 818 l 574 818 q 540 853 543 818 l 540 855 q 543 890 540 870 q 511 929 543 918 q 496 931 501 931 q 475 922 483 931 q 476 909 476 911 q 450 869 476 894 q 438 842 438 855 l 438 840 q 456 821 441 821 q 490 831 459 821 q 503 831 494 831 q 536 791 527 831 q 551 781 536 787 q 591 725 591 768 l 591 722 q 545 663 591 690 q 529 626 529 647 l 529 625 l 527 625 q 526 636 527 631 q 527 646 527 641 q 503 658 517 658 l 494 658 q 437 618 458 658 q 432 590 432 607 q 470 544 432 554 q 481 543 477 543 q 524 561 502 543 l 524 559 q 481 534 513 542 q 467 508 479 532 q 444 493 452 493 q 467 528 467 509 l 467 529 q 451 543 467 538 q 422 572 434 554 l 418 574 q 385 569 395 569 l 381 569 q 366 571 377 569 l 366 572 l 370 572 q 420 592 409 572 q 451 646 431 632 q 502 665 472 665 l 508 665 q 535 662 518 665 l 535 663 q 572 693 542 670 q 583 728 583 711 l 583 732 q 550 774 583 762 q 543 775 547 774 q 510 755 530 775 q 499 751 501 751 q 527 792 527 772 q 508 823 523 823 q 499 824 508 823 q 450 808 489 824 q 422 756 440 769 q 404 746 409 746 q 440 808 440 771 q 432 842 440 812 l 432 845 q 461 893 432 860 q 467 913 467 905 q 433 946 467 941 l 432 946 q 416 939 420 946 q 422 914 422 931 q 363 851 422 871 q 338 847 345 847 l 338 848 q 413 913 413 863 q 368 951 413 951 l 361 951 q 286 918 313 951 q 284 913 284 915 m 182 877 q 186 873 183 873 q 242 888 202 873 q 153 852 231 877 q 117 810 117 832 q 127 800 119 800 l 132 800 q 157 814 137 800 q 210 826 179 826 q 248 853 235 849 q 287 892 287 873 l 287 896 q 256 918 287 910 l 250 918 q 182 877 210 918 m 210 794 l 210 786 q 224 757 210 772 l 224 756 l 223 756 q 204 796 204 769 l 205 808 q 197 815 202 815 l 186 815 q 129 772 148 815 q 126 756 126 763 l 126 751 q 138 722 126 735 l 138 721 l 137 721 q 121 753 121 733 l 121 756 q 127 787 121 768 q 124 789 125 789 q 92 766 104 783 q 84 741 84 753 l 84 733 q 114 686 84 701 q 132 682 125 682 l 134 682 l 134 681 l 121 681 q 79 717 91 681 q 73 690 75 715 q 102 642 73 657 q 118 644 111 644 l 124 644 q 153 635 138 644 l 153 650 q 189 714 153 691 q 199 718 196 718 l 199 719 q 169 761 169 729 q 172 777 169 766 l 174 777 q 172 766 172 770 l 172 761 q 201 724 172 734 q 221 721 212 721 q 277 764 257 721 q 281 788 281 777 q 269 825 281 796 q 259 847 269 847 q 217 821 238 847 q 210 794 210 809 m 333 848 l 336 848 l 336 846 l 333 846 l 333 848 m 214 663 q 227 627 227 645 l 227 622 q 217 587 227 611 l 217 585 q 228 562 217 584 q 229 548 229 553 l 229 547 q 210 492 229 522 q 207 478 207 485 q 225 432 207 453 l 224 432 q 204 460 211 439 q 189 483 199 483 l 175 483 q 158 490 163 483 l 158 491 l 159 491 q 174 486 166 486 q 217 524 200 486 q 220 549 220 536 q 205 575 216 575 l 203 575 q 170 567 178 567 l 163 567 q 132 590 141 567 q 164 574 149 574 q 218 614 201 574 q 220 631 220 624 q 214 663 220 642 m 273 544 l 275 544 l 275 542 l 273 542 l 273 544 m 226 431 l 228 431 l 228 430 l 226 430 l 226 431 m 258 227 l 258 226 q 264 204 258 217 l 264 201 q 260 188 264 199 l 260 187 q 268 172 260 185 l 268 170 q 262 158 267 166 l 262 155 q 269 142 262 153 l 269 137 q 264 124 264 125 q 269 112 269 113 l 269 109 q 267 99 269 108 q 301 72 267 87 q 370 62 338 62 l 376 62 q 380 61 378 62 q 384 62 382 62 l 391 62 q 503 99 494 68 l 503 102 q 502 104 503 104 q 387 79 459 79 q 277 105 323 79 l 279 105 q 378 90 320 90 q 503 115 463 90 q 506 123 506 121 l 506 125 q 502 134 506 129 q 399 112 456 112 l 378 112 q 272 138 322 112 l 272 139 l 274 139 q 368 123 310 123 l 389 123 q 509 156 509 130 q 503 167 503 166 q 387 143 458 143 q 272 170 321 143 l 272 171 l 274 171 q 378 155 311 155 q 509 182 471 155 q 511 188 509 182 q 505 199 506 199 q 387 176 458 176 q 276 199 327 176 l 276 199 l 277 199 q 370 187 317 187 l 384 187 q 509 212 469 187 q 513 226 512 214 l 513 226 q 389 210 467 210 l 382 210 q 258 227 307 210 m 288 75 q 384 43 317 43 q 472 64 438 43 l 472 64 l 471 64 q 390 51 433 51 l 385 51 q 288 75 332 51 l 288 75 m 346 30 l 346 29 q 385 16 346 18 l 385 16 q 425 30 425 16 q 392 25 410 25 l 378 25 q 346 30 360 25 z "},"Q":{"ha":892,"x_min":61,"x_max":838,"o":"m 299 967 l 302 967 q 311 952 307 967 q 357 855 336 894 l 357 854 q 349 848 355 848 l 348 848 q 336 864 342 848 q 292 961 308 918 l 292 964 q 299 967 292 966 m 559 952 l 559 952 q 562 950 561 952 q 517 865 560 922 q 500 844 505 845 q 493 842 496 842 l 492 842 q 490 844 490 842 l 534 910 q 547 949 547 937 q 559 952 551 952 m 122 874 l 125 874 q 234 796 201 814 q 250 788 250 789 q 239 783 246 783 l 237 783 q 112 870 204 794 q 122 874 117 874 m 750 846 l 753 846 l 753 844 q 703 802 739 829 q 675 757 677 774 q 662 750 675 750 l 661 750 q 660 752 660 750 q 690 800 662 772 q 741 844 721 825 q 750 846 747 846 m 432 791 q 604 718 534 791 q 651 597 651 663 q 589 448 651 501 l 534 397 q 500 319 508 367 q 491 233 491 269 q 492 232 491 232 l 491 229 l 491 193 q 480 182 491 182 q 400 171 431 182 l 400 170 q 491 158 437 158 q 502 146 502 157 q 492 137 500 137 q 400 125 439 137 l 400 125 q 490 113 437 113 l 491 113 q 502 102 502 111 q 493 92 499 92 q 399 79 436 92 l 399 79 q 477 67 430 67 l 479 67 q 491 58 491 66 l 491 56 q 458 5 491 23 q 434 0 446 0 q 395 18 410 0 l 395 23 q 405 32 395 30 q 423 22 407 32 l 435 21 q 469 47 458 21 l 468 47 q 380 68 391 51 q 375 79 377 68 q 401 102 375 95 q 385 109 401 102 q 375 123 375 117 l 375 126 q 401 146 375 140 q 385 154 401 148 q 375 169 375 161 l 375 171 q 469 203 375 198 l 470 203 l 470 206 q 528 419 470 376 q 582 470 535 427 q 623 537 617 509 q 630 593 630 562 q 536 745 630 690 q 433 770 486 770 q 273 699 337 770 q 236 597 236 653 l 236 591 q 292 463 236 511 q 356 399 353 408 q 396 211 396 348 q 387 201 393 201 l 384 201 q 374 216 374 201 l 374 225 q 317 411 374 368 q 241 491 252 469 q 215 587 215 534 l 215 599 q 294 747 215 686 q 432 791 357 791 m 520 742 l 523 742 q 526 734 526 740 q 503 643 526 717 q 502 636 503 642 q 504 633 503 633 l 505 633 q 546 652 516 633 q 559 655 553 655 q 577 642 572 655 q 578 635 578 637 l 578 631 q 550 591 578 608 q 513 583 534 583 l 501 583 q 454 589 479 583 l 454 593 q 458 597 455 595 q 509 591 488 591 q 566 621 553 591 q 570 637 570 629 q 558 646 570 646 q 528 631 552 646 q 506 624 514 624 q 494 633 494 626 q 476 625 486 625 q 462 640 462 628 l 462 643 q 465 658 462 650 l 464 658 q 455 650 455 658 q 427 628 445 628 q 410 643 410 631 q 412 655 410 647 l 411 655 q 395 652 395 652 q 366 629 386 629 q 350 642 350 631 q 331 628 342 635 q 290 582 311 582 q 275 591 275 584 q 307 625 275 612 q 293 645 293 633 q 296 655 293 646 q 259 584 259 634 l 259 581 q 364 431 259 504 q 405 380 397 401 q 424 210 424 340 l 424 209 q 421 206 424 208 l 419 206 q 415 222 415 206 q 387 395 415 362 q 334 443 366 420 q 250 582 250 508 q 296 665 250 643 q 315 674 304 666 q 327 677 322 677 q 341 663 335 677 q 335 641 341 657 q 357 666 353 653 q 376 677 364 677 l 378 677 q 396 661 390 677 q 429 674 411 661 q 439 677 433 677 l 441 677 q 456 665 450 677 q 484 679 469 665 q 491 680 490 680 l 493 680 q 501 677 497 680 l 502 677 q 520 742 514 742 m 837 725 q 838 723 838 724 q 762 686 822 709 q 720 653 743 677 q 711 652 715 652 l 709 652 q 708 653 708 652 q 745 682 730 677 q 804 709 756 689 q 833 725 829 725 l 837 725 m 71 692 q 165 669 144 677 l 166 667 l 166 665 q 157 660 162 660 q 66 681 131 669 q 61 685 61 684 l 61 686 q 71 692 64 692 m 471 640 q 476 633 471 635 q 500 667 492 633 q 492 672 495 672 q 474 654 481 672 q 471 640 471 645 m 302 647 l 302 644 q 311 634 304 634 q 330 654 330 643 q 332 662 330 654 q 326 669 330 669 q 304 652 316 669 q 302 647 302 649 m 367 664 q 384 661 375 661 l 388 661 q 376 669 388 665 q 367 664 371 669 m 431 665 q 437 663 431 663 l 439 663 l 447 663 l 447 665 q 437 669 446 669 q 431 665 431 667 m 423 659 q 418 645 418 650 q 427 636 420 636 q 447 654 439 636 q 436 654 439 654 q 423 659 429 654 m 363 656 q 358 644 358 648 l 358 641 q 363 637 360 637 q 387 652 376 637 l 387 652 l 383 652 q 363 656 372 652 m 283 593 l 283 593 q 290 591 283 591 q 318 622 302 591 q 283 593 283 605 m 444 618 q 448 610 448 614 q 427 528 448 595 q 425 514 425 526 q 431 509 425 509 q 450 516 437 509 q 446 527 446 521 l 446 530 q 469 557 454 557 l 472 557 q 484 546 484 555 l 484 544 q 462 512 484 529 q 469 509 465 509 q 503 543 480 509 q 530 558 516 558 q 543 546 543 555 l 539 524 q 544 509 541 509 l 547 509 q 566 520 553 509 q 572 522 570 522 q 583 506 583 518 q 547 461 583 490 q 478 408 503 430 q 454 359 454 379 q 450 298 450 339 l 450 277 q 450 214 450 253 q 446 210 448 210 q 441 214 441 212 q 440 313 441 241 q 480 421 440 391 q 537 463 496 437 q 574 509 574 494 q 572 512 574 512 l 570 512 q 549 501 557 501 l 545 501 q 532 515 534 501 q 507 501 519 501 q 492 514 492 503 q 470 500 480 500 l 469 500 q 454 509 460 500 q 431 500 439 500 q 417 509 417 502 l 417 510 q 398 501 407 501 q 382 519 382 501 q 383 522 383 521 q 349 501 364 501 l 348 501 q 333 514 337 501 q 332 524 332 519 l 332 525 l 333 534 l 332 533 l 325 533 q 300 559 303 533 q 328 604 300 581 q 359 614 347 614 l 368 614 q 420 603 385 614 l 420 599 q 417 596 420 597 q 368 606 380 606 l 363 606 q 316 578 335 606 q 309 557 309 566 l 309 553 q 327 541 309 543 q 338 554 338 541 q 346 566 341 562 l 349 566 q 352 559 352 564 q 342 536 352 549 q 340 521 341 530 q 349 509 342 509 q 391 543 362 509 q 414 557 405 557 q 424 553 418 557 q 444 618 434 618 l 444 618 m 357 590 l 359 590 q 363 587 361 590 l 363 585 q 356 571 363 581 l 353 571 q 350 574 352 571 l 350 576 q 357 590 355 590 m 455 529 l 455 525 l 456 521 l 458 521 q 475 543 471 528 l 475 544 q 471 549 475 548 q 455 529 461 549 m 501 518 l 501 517 q 505 509 501 511 l 506 509 q 531 533 521 509 q 534 546 531 539 q 529 549 532 549 q 502 522 515 549 l 501 518 m 392 515 q 397 510 392 510 l 399 510 q 421 543 414 510 q 413 548 417 548 q 396 533 405 548 q 392 515 392 523 m 159 516 q 164 513 164 514 l 164 512 q 125 496 164 508 q 69 470 98 485 l 66 469 q 61 472 61 471 q 126 505 61 478 l 159 516 m 699 500 q 793 474 733 500 l 793 473 q 782 469 788 469 l 781 469 q 694 493 718 493 l 690 493 q 679 492 686 493 l 677 494 q 699 500 677 499 m 270 408 q 274 406 274 407 q 233 365 274 400 q 208 338 212 338 l 202 338 q 199 341 200 338 q 245 390 201 348 q 262 407 246 390 l 270 408 m 572 389 q 650 322 589 382 l 650 320 q 640 315 650 317 q 600 352 637 315 q 562 380 575 372 l 560 382 l 560 383 q 572 389 564 389 z "},"R":{"ha":1265,"x_min":41,"x_max":1230,"o":"m 630 970 l 641 970 q 652 959 646 970 l 652 732 q 630 722 648 722 q 614 736 624 722 l 614 956 q 630 970 614 961 m 342 895 l 351 895 q 471 687 401 834 q 456 672 471 682 l 448 672 q 328 869 427 691 l 328 880 q 342 895 328 886 m 924 895 q 943 876 935 895 q 819 672 832 672 l 811 672 q 796 699 796 678 q 917 895 905 885 l 924 895 m 132 684 q 335 570 146 684 l 339 551 l 324 540 l 313 540 q 116 661 127 643 l 116 669 q 132 684 116 674 m 1136 684 q 1151 672 1151 678 l 1151 657 q 951 540 1151 648 l 943 540 q 932 551 938 540 l 932 566 q 1136 684 1105 676 m 618 665 l 648 665 q 890 479 812 665 q 898 431 898 446 l 898 389 q 754 189 898 270 l 751 181 l 751 106 q 743 98 751 98 l 528 98 q 520 106 520 98 l 520 178 q 414 264 520 182 q 369 412 369 319 q 577 661 369 591 q 618 665 603 665 m 392 431 l 392 416 q 388 412 392 412 l 392 404 l 392 381 q 524 208 392 282 q 535 189 535 195 l 614 189 l 611 208 l 611 253 q 592 412 611 322 q 509 441 528 412 l 509 453 q 547 491 517 491 q 596 431 578 491 l 667 431 q 713 487 697 487 q 724 491 713 491 q 762 450 762 477 q 679 412 753 412 q 656 189 656 340 l 728 189 q 833 272 739 204 q 879 416 879 323 q 720 631 879 555 q 633 646 667 646 q 395 465 463 646 q 392 431 392 444 m 528 441 q 581 431 538 434 l 581 434 q 558 468 581 454 l 543 468 q 528 441 528 462 m 686 431 l 690 431 q 739 446 739 434 q 728 468 739 465 l 720 468 q 686 431 693 468 m 604 412 q 626 219 626 317 l 626 197 l 623 189 l 645 189 l 645 253 q 664 412 645 321 l 656 408 l 611 408 l 604 412 m 56 397 l 264 397 q 290 381 283 397 q 279 359 290 362 l 52 359 q 41 370 47 359 l 41 381 q 56 397 41 387 m 1004 397 l 1204 397 q 1230 374 1230 397 q 1219 359 1225 359 l 992 359 q 981 370 987 359 l 981 385 q 1004 397 985 397 m 539 166 l 539 151 l 728 151 l 728 166 l 539 166 m 539 132 l 539 117 l 728 117 l 728 132 l 539 132 m 524 87 l 747 87 l 754 83 q 633 0 716 0 q 517 83 553 0 l 524 87 z "},"S":{"ha":736,"x_min":41,"x_max":703,"o":"m 356 970 l 387 970 q 646 825 536 970 q 703 637 703 742 q 579 378 703 500 q 545 271 564 337 q 564 236 564 259 q 551 208 564 226 q 564 174 564 189 q 526 136 554 136 l 526 123 q 431 6 526 42 q 387 0 418 0 q 286 44 340 0 q 239 85 239 44 q 255 117 239 97 q 239 145 246 117 q 245 174 245 169 q 230 201 236 174 l 230 208 q 302 258 230 243 q 475 331 342 277 q 551 473 488 406 q 617 633 617 545 l 617 649 q 441 879 617 809 q 372 888 399 888 q 135 712 205 888 q 125 646 125 680 l 125 637 q 223 435 125 535 q 274 306 252 406 l 274 290 q 233 252 274 262 q 173 362 191 252 q 50 564 58 498 q 41 643 41 617 q 261 955 41 850 q 356 970 323 970 m 66 640 q 182 394 66 513 q 220 283 195 381 l 227 281 l 239 281 q 249 296 246 281 q 201 425 249 342 q 100 640 100 521 l 100 643 q 252 886 100 801 q 372 913 310 913 q 627 737 544 913 q 642 646 642 694 l 642 633 q 542 422 642 525 q 494 309 517 394 q 255 211 261 220 l 255 199 q 264 189 255 194 l 274 189 q 526 287 432 245 q 592 432 544 386 q 677 646 677 521 q 475 930 677 835 q 384 945 422 945 l 359 945 q 85 750 182 945 q 66 640 69 696 m 372 873 q 598 690 539 873 q 602 655 602 669 l 602 627 q 519 460 602 544 q 460 340 488 430 l 290 271 q 286 274 290 274 l 290 296 l 290 306 q 214 473 269 416 q 142 637 142 544 l 142 646 q 305 863 142 797 q 372 873 347 873 m 201 731 q 280 794 248 746 q 337 823 324 823 l 337 825 l 315 825 q 201 743 254 825 l 201 731 m 167 630 q 205 532 167 574 q 223 567 223 563 q 211 624 211 604 l 211 649 q 217 684 211 652 l 214 684 q 167 649 167 669 l 167 630 m 264 145 q 280 129 264 136 q 535 230 535 222 q 538 239 538 236 q 523 255 538 248 q 268 155 277 164 q 264 145 268 151 m 264 85 q 280 66 264 79 q 538 170 525 158 l 538 180 q 523 192 532 192 q 268 92 268 100 l 264 85 z "},"T":{"ha":369,"x_min":34,"x_max":335,"o":"m 179 968 l 193 968 q 318 863 280 968 q 321 817 321 835 l 321 261 q 335 231 335 243 l 335 165 q 279 119 335 119 q 298 83 298 98 l 298 66 q 269 46 287 46 l 269 26 q 232 0 269 0 l 146 0 q 100 30 100 0 l 100 46 q 71 79 73 46 q 90 119 71 93 q 34 172 34 119 l 34 212 q 50 261 34 245 l 50 833 q 140 962 50 923 q 179 968 163 968 m 71 826 l 71 271 l 77 275 l 97 275 l 97 840 q 176 922 115 922 l 199 922 q 275 820 275 906 l 275 275 l 298 275 l 298 850 q 232 939 298 901 q 186 949 210 949 l 176 949 q 73 850 73 925 q 71 826 71 850 m 117 836 l 117 275 l 252 275 l 252 846 q 189 903 252 889 l 182 903 q 117 836 117 889 z "},"U":{"ha":802,"x_min":75,"x_max":730,"o":"m 403 983 q 438 983 428 983 q 449 981 438 981 l 454 981 q 460 979 457 979 l 465 979 q 471 977 467 977 l 475 977 q 498 970 479 974 q 513 965 502 968 q 519 963 513 964 l 519 962 l 523 962 q 530 958 530 958 q 564 941 545 953 q 587 926 571 938 q 604 915 589 926 l 621 901 q 652 868 652 870 q 669 846 669 848 q 676 837 671 845 q 683 826 683 827 q 689 815 688 820 q 703 787 701 796 q 708 775 706 785 q 710 771 709 775 q 711 770 711 771 l 711 765 q 713 763 713 765 l 713 758 q 717 751 716 758 q 720 743 718 751 q 720 742 720 743 l 720 737 q 722 736 722 737 l 722 731 q 724 726 722 728 l 724 721 q 726 716 724 716 l 726 713 q 728 703 726 705 l 728 697 q 730 685 728 687 l 730 627 q 728 613 728 624 l 728 608 q 726 601 726 605 l 726 596 q 724 591 724 593 l 724 585 q 722 575 722 584 q 720 568 720 575 q 717 559 718 559 l 716 559 l 716 555 q 713 553 716 553 l 713 548 q 711 547 713 547 l 711 543 q 707 530 707 536 q 705 526 705 530 q 699 513 703 526 l 687 492 q 680 479 687 490 q 659 452 665 456 q 649 438 655 445 q 642 431 647 436 q 609 399 636 423 q 599 391 607 399 q 591 386 596 391 q 587 376 588 386 l 587 368 q 585 356 585 366 l 585 353 q 583 345 583 347 l 583 336 q 580 323 581 334 q 581 321 581 323 q 578 315 578 321 l 578 310 q 578 309 578 309 l 578 308 l 578 307 q 576 300 576 304 l 576 292 q 574 281 574 289 l 574 277 q 569 261 572 273 l 568 261 l 568 258 q 570 252 570 256 q 573 243 572 252 q 574 243 574 243 l 574 220 q 571 211 572 218 q 570 210 570 211 l 570 207 l 572 204 l 572 197 q 574 196 574 197 l 574 174 q 571 163 572 171 l 570 163 l 570 162 q 574 147 572 151 l 574 127 q 571 117 572 125 q 569 111 570 117 q 567 106 568 111 q 563 100 566 106 q 559 94 559 98 l 543 81 q 531 75 541 81 q 521 71 521 74 q 517 60 519 61 l 517 60 l 517 56 l 513 52 l 513 52 l 513 51 l 514 51 l 514 50 q 500 34 513 45 q 492 28 494 28 q 471 15 488 23 q 444 5 465 12 q 438 3 440 5 l 433 3 q 427 1 429 3 q 403 0 420 1 q 378 1 385 1 q 372 3 378 3 l 368 3 q 358 5 366 5 q 292 50 307 22 q 287 60 291 50 q 280 75 287 72 q 272 77 275 75 q 264 81 271 77 q 258 85 261 81 q 245 97 254 85 q 239 106 239 104 q 237 111 237 106 q 235 117 235 111 q 232 126 234 117 q 231 127 231 126 l 231 147 q 234 157 233 150 q 235 161 235 157 l 235 163 q 232 173 233 163 q 231 174 231 173 l 231 196 q 234 205 233 198 q 235 207 235 205 l 235 210 q 233 218 233 211 q 231 220 231 218 l 231 243 q 234 252 233 245 l 235 252 l 235 256 q 237 261 237 258 q 234 268 235 261 q 231 277 233 275 l 231 280 q 229 292 231 290 l 229 300 q 227 307 229 304 l 227 315 q 225 321 227 319 l 225 330 q 222 336 225 334 l 222 345 q 220 353 222 347 l 220 356 q 218 368 220 366 l 218 374 q 212 387 218 386 q 203 393 212 388 q 195 400 202 396 l 174 419 q 161 433 161 431 q 123 484 143 452 q 119 491 119 489 q 114 499 117 493 q 102 526 104 517 q 99 530 100 526 q 97 536 98 530 l 94 543 l 94 547 q 92 548 92 547 l 92 553 q 90 555 90 553 l 90 559 q 87 568 87 559 q 85 575 85 568 q 81 585 83 575 q 81 586 81 585 l 81 591 q 79 597 81 594 l 79 601 q 77 608 79 605 l 77 614 q 75 627 77 624 l 75 685 q 77 697 77 687 l 77 703 q 79 713 79 705 l 79 715 q 81 721 81 718 l 81 725 q 83 732 83 728 l 83 736 q 85 737 83 737 l 85 742 q 88 751 87 744 q 90 758 90 751 l 92 758 l 92 763 q 94 765 92 765 l 94 769 q 100 786 98 776 q 103 790 102 786 q 110 805 104 790 l 118 820 q 125 831 125 831 q 153 868 132 842 q 188 905 153 870 q 201 915 193 907 q 210 921 203 915 q 226 932 210 921 q 235 938 227 932 q 247 945 237 938 q 272 956 262 953 l 283 962 l 286 962 q 292 964 286 964 q 313 971 292 965 q 330 977 327 975 l 334 977 q 340 979 338 977 l 345 979 q 351 981 349 979 l 356 981 q 368 983 366 981 q 403 983 378 983 m 372 915 l 366 915 q 357 913 359 915 l 353 913 q 330 907 340 911 l 324 907 q 323 905 324 905 l 318 905 q 311 901 318 902 l 305 898 l 301 898 q 297 895 301 896 q 283 889 285 889 q 267 880 277 885 q 243 863 245 866 q 234 856 242 863 q 211 835 231 855 l 200 822 q 180 792 180 797 q 175 786 178 792 l 159 754 q 157 750 159 750 l 157 747 q 150 724 150 730 l 149 724 l 149 718 l 146 715 l 146 709 q 144 695 144 707 q 142 690 142 695 l 142 680 q 140 667 140 677 l 140 647 q 142 630 140 632 l 142 619 q 144 613 142 616 l 144 605 l 146 602 l 146 598 q 151 583 149 586 l 151 578 q 153 577 153 578 l 153 572 q 155 570 155 572 l 155 566 q 158 559 157 566 q 166 541 161 554 q 182 512 177 520 q 191 501 188 504 q 198 491 191 499 q 213 475 198 489 q 227 461 213 472 q 235 452 227 460 l 235 452 l 237 452 q 247 443 243 447 q 254 439 249 443 q 269 428 269 429 q 278 423 274 428 q 280 418 279 420 l 280 410 q 282 404 280 406 l 282 395 q 284 387 282 393 l 284 380 q 286 374 284 376 l 286 369 q 288 357 286 359 l 288 351 q 290 342 288 345 l 290 336 q 292 328 290 330 l 292 319 q 295 313 292 315 l 295 304 q 297 298 295 300 l 297 288 l 345 288 l 345 293 q 345 324 345 303 q 343 326 343 324 l 343 348 q 342 379 343 360 q 341 383 341 381 l 341 403 q 340 435 341 413 q 339 436 339 435 l 339 453 l 337 456 l 337 460 q 334 467 334 460 l 331 473 l 331 477 q 328 484 328 477 l 324 490 l 324 494 q 321 500 322 494 q 315 519 320 502 q 311 524 313 522 l 311 528 q 309 534 309 528 l 305 541 l 305 545 q 302 551 303 545 l 299 557 l 299 562 q 296 568 296 562 l 292 574 l 292 578 q 290 585 290 578 l 286 591 l 286 595 q 283 602 283 595 q 281 608 282 602 q 280 609 280 608 l 280 612 q 277 618 277 612 q 275 620 275 618 l 275 630 q 290 640 280 640 q 303 633 300 640 q 308 622 305 633 q 309 621 309 622 l 309 616 q 315 605 311 616 q 316 602 316 605 l 318 602 q 322 606 318 604 l 322 613 q 328 618 322 614 l 336 618 q 341 609 341 616 q 345 602 341 607 l 353 602 q 359 614 356 602 q 363 618 363 618 l 372 618 q 377 611 375 616 l 377 606 q 381 602 380 606 l 386 602 q 394 616 393 602 l 399 618 l 407 618 q 413 604 411 618 q 420 602 418 602 l 424 602 q 428 606 424 604 l 428 612 q 433 618 431 617 l 441 618 q 448 608 448 615 q 453 602 452 602 l 460 602 q 464 610 464 607 q 469 618 464 615 l 477 618 q 483 613 483 614 l 483 606 q 488 602 486 606 l 490 602 q 493 611 490 604 q 496 616 493 616 l 496 621 q 500 633 498 623 l 509 640 q 515 640 511 640 q 530 630 525 640 l 530 620 q 527 612 528 618 l 526 612 l 526 609 q 520 595 522 602 l 519 595 l 519 592 q 514 578 515 585 l 513 578 l 513 575 q 508 562 509 568 l 507 562 l 507 558 q 501 545 503 551 l 500 545 l 500 541 q 495 528 496 534 l 494 528 l 494 524 q 489 511 490 517 l 488 511 l 488 507 q 482 494 484 500 l 481 494 l 481 490 q 476 477 477 484 l 475 477 l 475 473 q 469 460 471 467 l 468 460 l 468 456 l 466 453 l 466 438 q 465 435 466 435 q 464 403 464 413 l 464 383 q 463 380 464 380 q 462 348 462 358 l 462 328 l 460 326 q 460 294 460 307 l 460 288 l 509 288 l 509 298 q 511 304 511 300 l 511 313 q 513 319 513 315 l 513 328 q 515 334 515 330 l 515 342 q 517 351 517 345 l 517 357 q 519 369 519 359 l 519 372 q 521 380 521 378 l 521 387 q 524 395 524 393 l 524 404 q 526 410 526 406 l 526 418 q 532 427 528 425 q 537 431 535 428 q 576 458 559 443 q 589 469 581 465 q 607 490 589 471 q 614 499 607 492 q 618 505 614 502 q 623 512 618 507 q 647 559 639 538 q 650 566 648 566 l 650 570 q 652 572 650 572 l 652 577 q 654 578 652 578 l 654 583 q 661 608 659 592 l 661 611 q 662 612 661 612 l 661 614 q 663 619 663 616 l 663 630 q 665 647 665 632 l 665 667 q 663 680 665 677 l 663 690 l 659 708 q 659 709 659 708 l 659 716 q 656 718 656 716 l 656 724 q 653 734 654 724 q 648 747 650 744 l 648 750 q 643 760 646 750 q 641 765 642 760 q 635 777 635 774 q 633 782 633 777 q 606 822 621 803 q 597 832 604 822 q 562 864 578 851 q 545 876 557 867 q 534 882 545 877 q 530 884 534 884 q 515 892 530 886 q 488 903 505 898 l 488 905 l 482 905 q 481 907 481 905 l 476 907 q 453 913 465 911 l 448 913 q 440 915 446 915 l 433 915 q 420 917 431 917 l 384 917 q 372 915 374 917 m 331 589 q 322 584 328 584 l 322 583 q 327 572 323 583 q 328 570 328 571 l 328 566 q 334 555 331 566 q 336 547 334 555 q 341 536 340 538 l 341 532 q 343 530 343 532 l 343 526 q 347 520 345 526 q 348 519 348 520 l 348 515 q 353 504 350 515 q 354 503 354 503 l 354 498 q 358 488 356 498 q 360 486 359 488 l 360 481 q 366 470 362 481 q 367 469 367 469 l 367 464 q 371 456 368 464 l 371 438 q 372 405 371 427 q 373 404 373 405 l 373 383 q 374 350 373 372 q 375 349 375 350 l 375 329 q 376 297 375 319 q 377 296 377 297 l 377 288 l 428 288 l 428 294 q 429 295 428 295 q 430 327 430 317 l 430 349 q 431 351 431 351 q 432 382 432 372 l 432 404 q 433 405 433 405 q 434 437 434 427 l 434 456 q 439 464 437 464 l 439 469 q 444 481 441 471 l 445 481 l 445 486 q 450 498 447 488 l 451 498 l 451 503 q 456 515 454 505 l 458 515 l 458 519 q 463 532 460 522 l 464 532 l 464 536 q 469 549 467 538 l 471 549 l 471 553 q 475 566 473 555 l 477 566 l 477 570 q 481 583 479 572 q 483 584 483 583 q 475 589 477 584 l 473 589 q 468 586 473 587 q 464 584 468 585 q 463 583 464 583 l 448 583 q 439 587 446 585 l 439 589 l 437 589 q 427 583 437 587 l 413 583 q 404 589 404 587 l 403 589 l 401 589 q 394 584 397 584 q 393 583 394 583 l 378 583 q 369 589 369 587 l 367 589 q 362 586 367 587 q 358 584 362 585 q 357 583 358 583 l 342 583 q 334 587 340 585 q 333 589 333 587 l 331 589 m 290 248 q 284 243 290 247 q 281 238 282 241 l 280 238 l 280 227 q 292 216 286 216 q 293 214 292 214 q 298 216 295 214 l 302 216 q 317 221 314 219 l 321 221 q 336 225 333 223 l 341 225 l 354 229 l 355 229 l 359 229 q 374 233 371 231 l 378 233 q 393 238 390 236 l 397 238 q 412 242 409 240 l 416 242 q 431 246 429 244 l 436 246 l 441 247 l 441 248 l 436 248 l 290 248 m 500 246 l 499 246 q 498 247 498 246 q 490 244 490 246 l 481 244 q 472 241 480 242 q 471 240 472 240 l 471 241 q 463 238 463 241 l 458 238 q 452 235 454 238 l 446 235 q 433 232 444 234 q 433 231 433 231 l 427 231 q 414 228 425 230 q 414 227 414 227 l 407 227 q 406 225 407 225 l 401 225 q 395 223 397 225 l 389 223 l 386 221 l 380 221 q 376 218 378 221 l 369 218 q 368 216 369 216 l 363 216 q 357 214 359 216 l 351 214 q 338 211 349 213 q 338 210 338 210 l 332 210 q 319 207 330 209 q 319 206 319 206 l 311 206 q 310 204 311 204 l 306 204 q 300 201 302 204 l 293 201 q 283 195 286 198 q 280 190 282 192 l 280 178 q 283 174 282 178 q 290 170 286 170 l 290 168 l 301 168 q 306 170 303 168 l 313 170 l 315 172 l 319 172 l 333 175 q 334 176 333 176 l 338 176 l 352 179 q 353 180 352 180 l 357 180 l 371 183 q 372 185 371 185 l 377 185 q 382 187 380 185 l 389 187 l 391 189 l 395 189 l 409 192 q 410 193 409 193 l 415 193 q 420 195 418 193 l 427 195 l 429 197 l 433 197 l 447 200 q 448 201 448 201 l 453 201 l 466 205 q 467 206 467 206 l 472 206 l 485 209 q 486 210 486 210 l 491 210 l 504 213 q 506 214 505 214 l 513 214 q 521 219 513 216 l 526 227 l 526 238 q 523 242 524 238 q 515 247 519 246 l 515 248 l 503 248 l 500 246 m 503 199 l 498 199 l 485 197 q 484 195 485 195 l 479 195 q 474 193 477 195 l 467 193 l 465 191 l 460 191 l 427 183 q 416 180 418 182 l 409 180 q 408 178 409 178 l 404 178 q 377 172 384 174 q 362 170 374 172 l 343 165 q 332 161 333 163 l 326 161 q 321 159 324 161 l 315 159 l 313 157 l 308 157 q 302 155 304 157 l 295 155 q 293 153 295 153 l 288 153 l 282 145 q 280 140 280 142 l 280 132 q 283 127 282 132 l 290 121 l 302 121 q 309 123 306 121 l 315 123 q 327 127 317 125 q 328 127 327 127 l 334 127 l 337 130 l 342 130 q 347 132 345 130 l 353 132 q 366 136 355 134 q 366 136 366 136 l 373 136 q 374 138 373 138 l 378 138 q 385 140 382 138 l 392 140 q 393 142 392 142 l 397 142 q 404 144 401 142 l 411 144 q 412 146 411 146 l 416 146 q 423 149 420 146 l 429 149 q 441 153 431 151 q 442 153 441 153 l 448 153 q 460 157 450 155 q 461 157 460 157 l 467 157 q 479 161 469 159 q 480 161 479 161 l 486 161 l 490 163 l 494 163 q 499 165 496 163 l 506 165 l 509 168 l 515 168 q 519 171 515 170 q 524 178 524 174 l 526 178 l 526 190 q 513 200 520 200 q 512 201 513 201 l 506 201 l 503 199 m 500 151 l 496 151 q 491 149 494 151 l 484 149 l 481 146 l 477 146 q 473 144 473 146 l 465 144 l 463 142 l 458 142 l 445 140 q 444 138 445 138 l 439 138 q 433 136 436 138 l 427 136 l 425 134 l 420 134 l 407 131 q 406 130 407 130 l 401 130 q 395 127 398 130 l 389 127 l 387 125 l 381 125 q 376 123 379 125 l 369 123 q 360 121 369 121 l 360 120 l 508 120 q 517 122 509 121 q 524 132 524 128 l 526 132 l 526 140 q 517 153 526 144 l 517 153 l 503 153 l 500 151 m 333 82 l 333 75 q 341 68 336 68 q 348 64 344 64 q 352 61 348 62 q 356 59 352 60 q 360 57 356 58 l 360 56 l 365 56 q 372 53 367 54 q 380 51 372 52 q 385 50 380 50 l 395 50 l 397 48 l 408 48 l 410 50 l 422 50 l 425 52 l 431 52 q 439 54 433 54 q 441 56 439 56 l 445 56 q 449 58 445 58 q 454 60 449 60 q 458 63 454 62 q 472 75 472 71 q 473 75 473 75 l 473 82 q 465 90 469 87 l 458 90 q 454 87 458 87 q 439 78 446 81 l 432 75 l 428 75 q 427 73 428 73 l 422 73 q 416 71 418 73 l 389 71 q 383 73 387 73 l 378 73 q 377 75 377 73 l 373 75 q 359 81 361 81 q 352 86 359 83 q 348 88 352 87 l 348 90 l 340 90 q 333 82 336 86 z "},"V":{"ha":899,"x_min":68,"x_max":821,"o":"m 341 973 q 353 932 345 973 q 374 840 368 870 l 374 840 q 371 838 374 838 l 368 838 q 344 937 364 838 q 336 969 341 942 q 341 973 337 973 m 768 918 q 792 905 792 911 q 795 894 793 905 l 795 890 q 766 834 795 871 q 765 829 765 832 q 792 817 779 829 q 799 798 795 812 q 821 770 821 788 q 800 726 821 749 q 781 719 791 722 q 761 705 775 711 q 749 686 761 695 q 726 591 743 629 q 685 531 711 558 q 642 504 666 515 q 627 499 627 501 q 581 381 622 450 q 553 280 553 330 q 555 254 553 273 q 534 194 555 219 q 537 183 537 186 l 537 182 q 530 170 537 174 l 530 163 l 534 164 l 536 164 q 542 155 542 160 q 536 145 540 147 q 541 132 536 134 q 544 123 544 129 q 539 119 542 119 l 539 117 q 545 104 539 107 q 547 98 547 99 q 540 84 547 92 l 540 83 q 547 70 540 77 l 547 68 q 515 31 547 58 q 503 20 510 31 q 468 4 484 4 q 436 0 463 1 q 403 16 420 0 q 401 16 401 16 q 363 38 387 16 q 362 45 362 43 q 364 49 363 49 q 362 54 362 52 l 360 54 q 351 63 351 54 q 357 71 351 68 l 357 74 q 351 88 357 81 l 351 90 q 357 98 352 98 q 347 111 357 107 l 347 115 l 347 117 q 357 127 347 125 l 357 130 q 344 146 357 140 q 338 164 338 153 l 338 178 q 308 230 308 205 q 303 252 307 230 l 302 252 q 277 197 300 229 q 224 174 256 174 q 200 165 211 165 l 196 165 q 176 188 180 165 q 177 195 176 195 q 174 205 174 201 q 181 222 174 212 q 177 237 178 225 q 205 280 177 257 q 210 294 210 287 l 135 324 q 129 335 129 330 l 129 339 q 196 453 129 350 q 197 454 197 453 q 181 545 181 501 q 317 738 181 675 q 409 756 366 756 l 412 756 q 612 608 542 756 q 628 547 623 585 q 676 585 655 555 q 708 669 703 628 q 711 690 709 669 q 699 709 699 701 q 701 720 699 712 q 677 765 677 737 q 707 818 677 806 q 734 897 714 868 q 768 918 750 918 m 713 820 l 722 820 q 753 805 738 820 l 761 836 q 791 892 791 873 q 770 911 791 907 l 767 911 q 721 857 739 911 q 713 820 716 838 m 562 897 l 565 897 q 568 893 566 897 q 525 779 527 783 q 522 778 523 779 q 517 782 518 778 q 561 897 557 891 l 562 897 m 130 840 l 133 840 q 184 789 149 825 q 229 743 229 746 l 229 742 q 226 739 229 741 l 225 739 q 195 767 221 739 q 127 836 127 833 l 127 836 q 130 840 128 840 m 763 823 q 756 800 761 807 q 765 771 765 789 l 765 767 l 764 763 q 792 793 785 763 l 792 800 q 774 822 792 817 q 764 823 768 823 l 763 823 m 683 763 q 708 722 683 739 q 723 715 722 717 l 723 713 q 721 711 723 712 q 706 718 718 711 q 704 711 705 711 q 724 690 704 698 q 732 688 727 688 q 755 705 751 688 l 755 705 q 751 703 753 703 l 746 703 q 745 705 745 703 l 745 707 q 763 711 745 709 q 774 720 773 717 q 749 739 749 722 l 749 740 q 739 738 742 738 q 710 764 719 738 q 709 774 709 768 l 709 776 q 712 779 709 777 l 713 779 q 715 777 715 778 l 715 774 q 739 743 715 748 q 760 772 760 748 q 738 810 760 796 q 721 814 729 814 l 719 814 q 688 793 699 814 q 683 763 684 785 m 418 798 q 456 760 442 798 q 454 758 456 759 q 418 779 431 779 l 411 779 q 408 787 408 780 q 418 798 408 798 m 319 793 l 321 793 q 332 775 332 793 q 313 764 317 771 q 296 735 307 757 q 293 734 294 734 l 292 736 q 308 787 294 765 q 319 793 316 793 m 413 786 l 413 785 l 414 785 q 443 774 429 785 l 443 775 q 419 793 433 793 q 413 786 413 793 m 798 792 q 786 767 798 783 q 762 757 775 757 q 755 744 762 755 l 755 739 q 774 726 755 728 q 780 725 774 725 q 813 760 801 725 q 815 768 815 762 l 815 772 q 798 792 815 785 l 798 792 m 301 757 l 301 756 l 302 756 q 323 779 309 772 q 326 779 324 779 q 321 788 324 788 q 301 757 309 788 m 654 779 q 656 776 655 779 l 656 775 q 630 744 656 772 q 600 712 602 713 l 596 712 q 593 717 593 713 q 650 779 593 718 l 654 779 m 190 549 l 190 539 q 203 464 190 505 l 205 464 q 219 468 210 468 l 222 468 q 236 446 235 468 l 236 445 q 224 423 236 441 l 224 422 q 263 363 234 404 q 311 254 306 300 q 326 204 317 217 q 376 176 344 176 l 385 176 q 514 194 440 176 q 546 254 546 208 q 545 276 546 264 q 586 407 545 342 q 620 526 620 469 q 541 696 620 614 q 411 748 485 748 q 264 696 334 748 q 190 549 190 637 m 440 731 q 486 692 469 731 l 490 671 q 505 675 496 675 l 507 673 l 507 671 q 503 669 507 670 q 503 670 503 669 q 445 611 484 670 l 444 610 l 443 610 q 441 613 441 610 q 446 623 444 619 q 405 652 424 623 q 398 678 398 669 l 398 687 q 440 731 404 731 m 403 686 l 403 679 q 428 635 403 653 q 445 629 436 629 l 450 629 l 473 657 q 484 670 484 666 q 449 724 484 709 q 438 726 444 726 q 404 694 414 726 q 403 686 403 689 m 338 708 l 342 708 q 385 670 372 708 q 387 654 387 661 q 351 600 387 615 q 344 598 344 600 q 348 593 345 598 l 348 592 q 346 590 348 591 l 345 590 q 291 625 313 625 q 280 624 290 625 l 279 626 l 279 627 q 289 630 279 630 l 298 630 q 294 649 294 642 l 294 659 q 326 706 294 688 q 338 708 334 708 m 299 654 l 299 652 q 308 627 301 629 q 340 604 319 621 q 380 639 368 604 q 381 651 381 642 l 381 659 q 357 699 381 683 q 338 703 349 703 q 301 667 313 703 q 299 654 299 661 m 434 700 l 436 700 q 465 669 458 700 l 465 661 q 441 638 460 638 l 439 638 q 414 664 421 638 l 414 664 q 424 653 419 664 q 440 643 432 643 l 442 643 q 459 663 455 643 l 459 667 q 435 694 455 694 q 418 682 427 694 q 416 681 417 682 l 414 681 l 414 682 q 434 700 420 700 m 715 687 q 716 686 715 686 q 694 604 710 634 q 654 554 684 582 q 629 542 635 542 l 629 518 q 628 507 629 514 l 629 507 q 672 528 642 508 q 716 586 705 555 q 741 667 732 614 q 743 684 742 667 q 732 683 737 683 l 731 683 q 715 687 726 683 m 71 687 l 73 687 q 157 663 77 687 l 157 661 l 157 657 q 153 654 157 654 q 68 680 78 676 l 68 683 q 71 687 69 686 m 435 684 l 437 684 q 454 665 449 684 l 452 661 l 450 663 l 448 663 q 445 658 448 661 q 448 652 445 655 q 438 647 445 647 q 422 661 428 647 q 429 673 425 661 q 426 680 426 679 q 435 684 431 684 m 340 677 q 363 649 360 677 l 363 648 q 339 615 363 624 l 334 615 q 311 641 314 615 l 311 643 q 312 654 311 648 l 314 654 q 317 634 316 648 q 334 621 323 621 q 356 638 349 621 q 358 650 358 643 q 338 672 355 672 q 328 667 332 671 l 321 667 l 321 669 q 340 677 329 677 m 338 666 q 354 648 352 666 q 352 641 353 641 q 351 642 352 642 l 347 642 q 345 637 345 642 q 347 632 345 636 q 336 627 343 627 l 334 627 q 320 642 320 629 l 320 645 l 323 645 q 333 656 331 645 q 332 665 333 657 l 338 666 m 525 647 l 526 647 q 527 646 527 647 l 527 644 q 515 635 527 643 l 515 634 q 528 622 528 631 q 465 574 528 604 q 457 549 457 559 q 459 514 459 522 q 430 474 459 485 q 414 472 423 473 q 326 562 365 472 q 269 583 282 568 q 260 599 260 591 l 260 601 q 262 610 260 605 q 229 592 252 610 l 227 592 q 225 596 226 592 q 267 616 249 616 q 279 614 279 616 l 279 612 q 277 610 279 612 l 270 610 l 269 611 q 266 602 266 606 l 266 600 q 380 562 266 568 q 516 612 454 562 q 522 622 522 618 l 522 624 q 511 629 518 629 l 507 629 q 504 632 505 629 q 525 647 511 642 m 444 567 q 446 555 446 558 l 446 552 q 425 538 446 540 l 422 537 q 420 503 420 519 q 434 490 426 503 q 436 483 435 483 q 454 517 454 493 q 452 549 452 539 q 456 570 452 559 q 444 567 446 567 m 380 556 q 332 561 364 556 l 332 560 q 383 539 332 549 l 406 539 q 442 551 442 542 l 442 554 q 441 566 442 558 q 380 556 408 556 m 338 549 q 376 494 349 522 l 378 493 q 406 506 383 506 l 409 506 l 417 505 q 418 536 417 513 l 399 534 q 338 549 370 534 m 381 491 q 411 478 395 478 l 416 478 q 431 481 427 478 q 408 502 431 499 l 406 502 q 381 492 387 502 l 381 491 m 134 336 q 159 320 134 327 q 249 284 237 288 q 252 294 252 289 q 243 315 250 315 q 173 345 189 342 q 162 348 162 345 l 162 349 q 163 351 162 351 q 176 349 172 351 q 231 445 176 357 q 219 463 231 463 q 202 451 208 463 q 134 339 145 367 l 134 336 m 217 413 q 182 348 182 354 q 230 328 201 342 q 248 341 237 341 q 269 328 258 341 q 279 325 272 328 q 227 399 268 346 q 218 413 219 413 l 217 413 m 235 326 l 239 323 q 245 324 243 324 q 257 294 257 311 q 239 273 257 277 l 238 273 l 237 274 l 237 277 q 243 279 237 278 l 243 280 q 215 291 237 283 l 215 290 q 190 258 215 281 q 183 237 183 245 l 183 235 q 184 225 183 232 l 185 225 q 208 253 203 241 q 212 267 210 267 l 214 267 q 215 264 215 267 q 183 216 215 243 q 179 205 179 208 l 179 202 l 181 202 q 195 215 182 206 q 220 252 219 241 l 222 253 l 224 253 q 225 252 225 252 l 225 250 q 200 212 225 239 q 182 192 182 199 q 181 189 182 189 q 197 170 181 173 l 199 170 q 218 176 205 170 q 205 196 205 185 q 230 229 205 211 q 245 253 243 243 l 238 253 q 218 260 224 253 l 218 260 q 220 262 218 262 q 239 258 233 258 l 243 258 q 257 262 251 258 l 259 262 q 261 260 260 262 l 261 260 q 250 253 261 258 q 220 213 243 229 q 211 199 212 206 l 211 198 q 221 182 211 185 q 230 180 229 180 q 297 250 275 180 q 298 267 298 263 q 275 320 298 305 q 273 321 273 321 l 273 320 q 277 295 277 304 l 275 294 l 274 294 q 269 315 272 294 q 248 336 260 336 q 235 326 241 336 m 383 168 q 347 174 361 168 l 346 172 l 346 168 q 358 150 346 150 q 359 149 358 149 l 360 149 q 522 174 437 149 q 528 180 522 174 l 528 182 q 526 189 528 183 q 444 172 505 180 q 383 168 406 168 m 363 143 l 363 142 q 366 132 366 136 l 366 128 q 523 158 481 144 q 521 167 521 164 q 363 143 432 143 m 356 117 l 356 117 q 359 115 359 117 q 501 140 449 126 q 532 153 532 147 l 531 153 l 529 153 l 526 153 q 365 122 479 138 q 356 117 365 121 m 363 111 l 363 110 q 366 99 366 102 q 528 133 470 116 l 528 140 l 528 142 q 399 115 480 127 q 363 111 368 111 m 365 93 q 359 91 365 92 l 359 90 q 363 88 361 90 q 491 109 398 88 q 534 125 529 120 l 534 126 l 529 127 q 365 93 456 108 m 364 83 q 366 72 366 72 q 528 102 471 85 q 532 104 528 104 q 531 113 531 109 l 531 116 q 426 90 480 98 q 364 83 397 85 m 359 63 q 362 62 359 62 l 363 62 l 368 61 q 508 83 460 71 q 538 96 538 91 q 538 98 538 98 l 537 99 q 364 66 494 84 q 359 63 364 63 m 371 56 l 371 55 q 374 50 373 50 q 533 71 438 50 q 534 72 533 72 q 532 83 532 77 l 532 84 q 437 64 498 74 q 371 56 411 60 m 371 43 q 398 25 385 28 q 401 24 398 24 q 404 25 401 24 q 409 24 407 24 q 503 36 437 24 q 521 48 514 39 q 537 66 537 64 l 536 66 q 401 47 449 47 q 371 43 380 45 m 414 18 l 414 18 q 436 9 427 9 q 498 28 482 9 l 496 28 q 414 18 458 22 z "},"W":{"ha":807,"x_min":41,"x_max":723,"o":"m 382 973 q 713 723 612 973 q 723 650 723 671 l 723 623 q 582 355 723 509 q 550 296 559 296 l 214 296 l 168 378 q 41 637 41 512 q 264 950 41 844 q 382 973 338 973 m 109 618 q 127 595 118 597 q 168 677 168 595 q 296 832 203 783 q 409 864 336 850 q 418 896 418 882 q 391 909 401 909 q 177 805 290 909 q 109 618 109 705 m 214 245 l 545 245 q 555 237 555 244 l 555 218 l 214 218 l 214 245 m 214 191 l 545 191 q 555 182 555 190 l 555 168 q 545 159 555 159 l 214 159 l 214 191 m 218 136 l 227 132 l 545 132 q 555 123 555 130 q 473 45 555 58 q 414 0 439 25 l 363 0 q 291 45 351 0 q 214 96 250 45 l 214 127 l 218 136 z "},"X":{"ha":812,"x_min":68,"x_max":746,"o":"m 407 968 q 724 746 617 968 q 746 629 742 688 q 593 344 746 503 q 566 235 566 284 l 566 127 q 475 41 566 53 q 425 0 446 21 l 375 0 q 317 36 362 0 q 253 63 306 47 q 222 122 228 89 q 226 208 226 172 l 226 258 q 122 456 226 351 q 68 633 68 547 l 68 637 q 317 954 68 863 q 407 968 377 968 m 231 579 l 353 579 q 380 624 357 579 q 317 737 335 720 q 231 579 231 663 m 493 737 q 425 620 455 663 q 448 574 448 610 l 579 574 q 497 737 579 650 l 493 737 m 371 579 q 393 543 382 543 l 412 543 q 434 579 434 554 q 402 606 434 606 l 393 606 q 371 579 385 606 m 375 534 q 312 416 366 508 l 312 412 q 412 393 364 393 q 484 407 430 393 l 484 420 q 429 529 475 431 l 420 529 q 402 525 410 529 l 375 534 z "},"Y":{"ha":439,"x_min":68,"x_max":356,"o":"m 271 968 l 274 968 q 288 939 285 968 q 168 897 288 913 q 93 882 127 882 q 82 904 82 886 l 82 918 q 271 968 82 936 m 324 900 q 345 871 345 892 q 245 829 345 846 q 103 797 124 804 q 79 825 83 797 q 189 868 79 854 q 324 900 204 876 m 324 819 q 345 797 334 819 q 228 747 345 758 q 93 719 129 719 q 79 743 79 734 q 231 797 79 775 q 324 819 231 800 m 331 736 q 345 715 345 718 q 242 669 345 680 q 96 637 121 637 q 79 662 85 640 q 214 711 79 694 q 331 736 296 736 m 328 654 q 345 630 345 649 q 221 583 345 600 q 100 555 207 576 q 79 580 79 564 q 224 633 79 613 q 328 654 298 654 m 324 576 q 345 548 345 569 q 235 505 345 519 q 103 477 129 477 l 93 477 q 79 502 83 477 q 189 545 79 530 q 324 576 204 551 m 331 491 q 342 466 342 478 l 342 452 q 274 427 342 437 l 274 391 l 328 391 q 356 374 347 391 l 356 334 q 310 231 356 294 q 296 196 300 222 l 132 196 q 117 231 126 196 q 68 328 68 290 l 68 363 q 96 391 68 391 l 121 391 l 121 434 q 136 459 121 453 l 153 459 q 171 423 171 451 l 171 391 l 228 391 l 228 452 q 299 488 228 479 q 331 491 313 491 m 132 168 l 292 168 q 299 160 299 166 l 299 146 q 292 139 299 139 l 132 139 q 125 146 125 139 l 125 160 q 132 168 126 168 m 132 106 l 292 106 q 299 100 299 106 q 288 78 296 78 l 136 78 q 125 103 127 78 l 132 106 m 157 46 l 267 46 l 267 39 q 224 0 254 39 l 196 0 q 157 39 174 39 l 157 46 z "},"Z":{"ha":480,"x_min":41,"x_max":413,"o":"m 319 968 q 331 941 331 954 q 244 901 331 907 q 68 870 240 901 q 45 897 45 870 l 45 909 q 174 944 45 931 q 319 968 271 968 m 382 901 q 413 873 413 897 q 252 823 413 838 q 68 791 103 791 q 41 819 41 798 q 186 866 41 852 q 382 901 186 870 m 378 815 l 393 815 q 413 791 408 808 q 279 745 413 754 q 68 705 263 736 q 41 736 41 714 q 174 780 41 768 q 378 815 344 815 m 389 732 q 413 705 413 724 q 268 659 413 671 q 64 623 96 623 q 41 654 41 631 q 225 705 41 684 q 389 732 353 732 m 378 650 q 413 623 413 646 q 276 576 413 587 q 72 541 106 541 q 41 568 41 544 q 193 615 41 601 q 378 650 237 627 m 385 572 q 409 541 409 564 l 409 529 q 323 498 409 511 l 323 431 l 354 431 q 385 412 376 431 l 385 361 q 311 216 385 329 l 138 216 q 123 255 133 216 q 68 357 68 319 l 68 412 q 100 431 78 431 l 131 431 l 131 517 q 162 536 142 536 q 190 517 186 529 l 190 431 l 264 431 l 264 536 q 385 572 264 553 m 115 384 l 115 361 q 182 251 115 336 l 276 251 q 338 368 338 343 l 338 384 l 115 384 m 138 184 l 319 184 l 319 153 l 131 153 l 131 176 q 138 184 132 184 m 138 117 l 311 117 q 319 110 319 117 l 319 94 q 311 86 319 86 l 142 86 q 131 110 131 90 q 138 117 132 117 m 166 51 l 288 51 l 288 43 q 241 0 273 43 l 213 0 q 166 43 181 43 l 166 51 z "},"[":{"ha":404,"x_min":47,"x_max":337,"o":"m 187 973 l 205 973 q 255 912 245 973 l 255 393 l 277 393 l 277 898 q 255 945 262 907 l 262 948 l 269 948 q 319 901 319 940 l 319 397 q 337 368 337 383 l 337 322 q 273 211 337 288 l 112 182 q 62 283 112 222 q 47 347 47 312 l 47 354 q 51 358 47 358 l 47 365 q 65 390 50 390 l 65 877 q 115 948 70 948 l 137 948 l 137 945 q 112 901 129 901 l 109 884 l 109 393 l 137 393 l 137 744 q 140 758 137 752 q 137 773 137 765 l 137 873 q 140 905 137 886 q 137 916 137 912 q 187 973 149 973 m 180 920 l 180 393 l 212 393 l 212 920 q 201 930 212 924 l 191 930 q 180 920 185 930 m 277 179 l 280 172 l 280 151 q 112 111 280 138 l 109 118 l 109 143 q 277 179 109 153 m 277 107 q 280 96 280 100 q 244 64 280 64 q 130 47 151 47 q 112 79 112 61 q 277 107 263 107 m 223 28 l 227 22 l 208 0 l 180 0 q 169 14 174 0 q 223 28 176 22 z "},"\\":{"ha":353,"x_min":34,"x_max":322,"o":"m 102 972 l 119 972 q 169 911 160 972 l 169 530 l 191 530 l 191 915 q 240 972 200 972 l 258 972 q 304 926 304 960 l 304 410 q 322 377 304 396 l 322 324 q 258 214 322 290 l 98 185 q 52 277 98 225 q 34 345 34 317 l 34 363 q 52 399 34 376 q 55 406 52 406 l 52 413 l 52 901 q 102 972 52 972 m 94 908 l 94 402 q 102 395 96 395 l 262 395 l 262 448 q 265 484 262 465 q 262 516 262 497 q 265 519 262 519 l 262 527 l 262 730 q 265 744 262 738 q 262 758 262 750 l 262 922 q 254 929 262 929 l 244 929 q 233 918 239 929 l 233 491 l 126 491 l 126 918 q 116 929 126 924 l 105 929 q 94 908 94 926 m 262 182 l 265 174 l 265 149 q 98 114 265 142 l 94 121 l 94 146 q 262 182 94 155 m 262 111 l 265 103 l 265 100 q 244 71 265 71 q 112 50 146 50 q 98 78 98 70 q 262 111 106 85 m 208 32 q 212 28 208 28 q 176 0 202 0 q 155 14 155 7 l 155 21 q 208 32 185 25 z "},"]":{"ha":753,"x_min":34,"x_max":714,"o":"m 351 970 l 356 962 l 356 925 q 247 889 350 918 q 224 935 224 918 l 224 939 q 351 970 310 970 m 406 970 q 528 939 433 970 q 501 889 515 889 q 397 925 407 917 l 397 962 q 406 970 398 970 m 184 911 q 211 862 211 871 q 129 785 199 861 q 93 807 129 793 l 93 821 q 184 911 138 883 m 569 911 q 660 807 660 840 q 614 789 623 789 q 542 866 599 815 q 569 911 562 911 m 75 775 q 111 744 111 753 q 88 648 98 702 l 79 644 l 43 644 l 34 648 q 75 775 50 766 m 682 775 q 714 653 714 713 q 705 644 714 644 l 669 644 q 646 730 661 644 q 637 748 641 730 l 682 775 m 47 603 l 84 603 q 129 503 90 602 q 84 481 95 481 q 39 599 39 560 l 47 603 m 705 603 l 714 599 q 664 481 693 511 q 623 508 633 493 q 678 603 658 598 l 705 603 m 147 467 l 157 467 l 215 399 l 215 395 q 188 345 215 373 l 111 440 l 111 449 q 147 467 122 449 m 601 467 q 642 440 640 450 l 564 345 q 533 390 557 345 q 601 467 589 467 m 233 340 l 247 340 q 265 272 255 272 q 496 304 486 296 q 505 340 505 333 l 510 340 q 547 277 547 299 l 547 127 q 460 45 547 60 q 378 0 409 0 l 370 0 q 288 50 340 0 q 206 123 206 50 l 206 277 q 233 340 206 286 m 283 218 l 283 222 q 260 218 276 218 l 260 191 l 492 218 l 492 245 q 283 218 332 227 m 260 136 l 260 132 l 265 109 q 492 145 492 135 l 492 163 q 260 136 432 159 z "},"^":{"ha":758,"x_min":41,"x_max":722,"o":"m 359 972 l 413 972 q 681 800 563 972 q 722 654 722 719 l 722 618 q 581 359 722 515 q 545 273 553 282 l 213 209 l 213 232 q 127 427 213 351 q 41 635 41 541 q 286 963 41 859 q 359 972 338 972 m 95 627 q 231 386 95 540 q 268 291 253 342 l 277 295 l 281 295 l 290 291 l 295 300 q 254 531 268 531 q 177 591 198 549 l 177 627 q 227 659 199 659 q 317 618 277 659 q 381 663 317 650 q 454 618 421 663 q 527 659 483 659 l 531 659 q 590 608 590 659 l 590 604 q 499 522 590 561 q 467 295 486 389 q 472 291 472 295 l 481 295 l 486 295 q 490 291 490 295 q 522 368 504 291 q 663 581 650 528 l 667 627 l 667 650 q 454 913 667 827 l 408 918 l 359 918 q 123 754 218 918 q 95 627 95 688 m 218 600 q 254 572 218 587 q 277 586 277 578 l 277 600 q 236 622 277 613 q 218 600 218 618 m 354 604 l 354 595 q 386 572 368 572 q 413 600 399 572 q 395 622 404 620 l 372 622 q 354 604 365 622 m 486 586 l 509 572 q 545 595 545 585 l 545 608 q 527 622 545 615 q 486 586 486 614 m 317 572 q 309 554 317 565 l 309 549 l 336 549 q 322 572 322 564 l 317 572 m 431 549 l 458 549 q 450 572 450 561 q 431 549 443 572 m 309 513 l 304 513 q 340 291 330 291 l 349 295 l 399 295 q 404 291 404 295 l 413 295 l 418 295 l 427 291 q 463 517 436 302 l 454 513 q 386 527 426 513 q 309 513 343 513 m 549 222 l 554 214 l 554 177 q 399 141 554 161 q 218 104 391 136 l 213 113 l 213 155 q 463 204 213 165 q 549 222 463 209 m 549 118 l 549 109 q 463 45 549 65 q 386 0 416 0 q 286 54 351 0 l 263 54 l 263 59 q 490 104 263 71 q 549 118 490 109 z "},"_":{"ha":755,"x_min":34,"x_max":714,"o":"m 356 970 l 392 970 q 687 771 576 970 q 714 653 714 702 l 714 616 q 569 349 714 515 q 547 304 554 304 l 469 304 l 469 309 q 537 630 496 463 q 501 640 521 640 l 478 626 l 474 626 q 456 658 465 626 l 447 658 q 388 630 418 630 q 351 572 356 572 q 292 694 333 593 l 288 694 q 215 621 264 694 q 283 309 224 593 l 274 304 l 206 304 q 161 381 201 304 q 34 630 34 513 q 288 962 34 865 q 356 970 330 970 m 283 648 q 329 549 294 648 q 356 540 344 540 q 410 608 363 540 q 429 612 418 612 l 447 612 q 474 576 454 576 q 488 589 488 576 l 496 589 q 429 304 441 304 l 324 304 q 252 612 307 304 l 283 648 m 215 227 l 537 227 q 547 218 547 225 l 547 127 q 460 45 547 63 q 374 0 414 0 l 370 0 q 297 41 343 0 q 215 86 215 68 q 206 113 206 101 l 206 218 q 215 227 208 227 z "},"`":{"ha":833,"x_min":34,"x_max":800,"o":"m 201 970 l 220 970 q 392 503 320 970 l 397 440 q 306 199 397 307 l 243 199 q 233 209 233 199 l 233 349 q 329 499 233 391 l 329 526 l 311 526 l 283 503 l 243 503 l 229 513 l 201 513 l 188 503 l 147 503 l 120 526 l 111 526 q 102 517 102 525 l 102 513 q 179 404 102 493 q 197 354 197 380 l 197 209 q 188 199 197 199 l 125 199 q 34 440 34 315 q 134 889 34 613 q 201 970 173 959 m 619 970 l 623 970 q 800 481 730 970 l 800 444 q 709 199 800 294 l 533 199 q 442 440 442 298 l 442 449 q 555 920 442 656 q 619 970 595 970 m 619 911 q 519 635 570 860 q 496 435 496 517 q 583 222 496 315 l 591 222 q 601 231 601 222 l 601 349 q 510 494 601 385 q 505 517 505 502 l 505 522 q 515 530 507 530 q 560 503 532 530 l 569 503 q 619 513 614 513 l 628 513 q 664 503 660 503 l 682 503 q 728 530 710 530 q 736 522 736 529 l 736 508 q 650 385 736 494 q 642 349 642 369 l 642 222 l 646 222 q 746 427 719 242 l 746 454 q 650 871 746 625 q 619 911 627 911 m 583 471 q 619 435 599 441 q 660 471 643 443 q 623 486 623 481 q 583 471 591 471 m 220 486 q 260 467 260 476 q 215 435 234 435 l 206 435 q 179 476 179 450 q 220 486 213 486 m 134 150 l 288 150 q 292 145 292 150 l 302 150 q 311 140 311 149 q 260 45 311 58 q 215 0 239 0 l 206 0 q 134 73 176 37 q 120 140 120 103 l 134 150 m 537 150 l 578 150 q 660 145 617 150 q 709 150 676 150 l 714 140 l 714 127 q 669 45 714 58 q 619 0 643 0 l 610 0 q 547 64 578 45 q 528 127 528 84 l 528 140 q 537 150 530 150 z "},"a":{"ha":760,"x_min":41,"x_max":722,"o":"m 368 972 l 391 972 q 690 772 589 972 q 722 631 722 705 q 572 350 722 515 q 554 273 554 303 l 554 191 q 549 186 554 186 l 554 177 l 554 145 q 549 141 554 141 l 554 132 q 467 50 554 61 q 381 0 414 0 q 304 41 348 0 l 236 68 q 209 132 209 100 l 209 263 q 104 450 209 347 q 41 627 41 554 l 41 654 q 250 949 41 838 q 368 972 310 972 m 309 604 l 309 600 q 368 559 368 575 q 313 522 353 522 l 300 404 l 309 399 q 404 481 359 431 l 395 495 q 458 586 395 511 q 395 622 395 610 q 450 709 395 642 q 422 736 450 736 q 309 604 401 736 m 231 245 q 250 227 236 231 q 527 291 527 275 l 527 300 q 509 313 527 304 q 236 254 274 268 q 231 245 236 245 m 231 177 q 250 159 236 162 q 527 218 509 204 l 527 236 l 499 241 q 231 177 231 195 m 231 100 q 250 91 243 91 q 527 155 527 136 l 527 159 q 509 172 527 170 q 231 109 231 127 l 231 100 z "},"b":{"ha":740,"x_min":27,"x_max":711,"o":"m 353 970 l 391 970 q 691 846 592 970 q 711 766 711 801 q 600 604 711 673 q 495 270 495 511 l 495 256 q 430 199 495 204 l 305 199 q 240 281 240 199 q 95 635 240 549 q 27 758 27 686 l 27 774 q 245 959 27 909 q 353 970 289 970 m 75 772 q 172 642 75 700 q 291 261 291 537 l 291 256 q 297 250 292 250 l 439 250 q 444 256 444 250 q 589 659 444 564 q 660 772 660 706 q 481 911 660 867 q 370 922 433 920 q 84 809 144 916 l 75 772 m 373 899 l 401 899 l 401 894 l 399 894 q 157 781 224 894 q 152 741 152 759 q 183 673 152 715 l 178 673 q 106 766 106 714 q 286 894 106 859 q 373 899 326 899 m 294 179 q 458 159 458 169 q 461 148 458 153 q 447 130 457 130 q 277 151 288 130 l 277 159 q 294 179 277 175 m 300 119 q 450 102 450 112 l 453 96 l 453 91 q 439 71 453 75 q 286 91 286 79 l 283 105 q 300 119 287 119 m 325 54 l 410 54 q 416 48 416 53 l 416 28 q 368 0 399 0 q 319 40 319 6 l 319 48 q 325 54 320 54 z "},"c":{"ha":718,"x_min":41,"x_max":684,"o":"m 363 972 q 633 822 526 972 q 684 646 684 743 q 573 416 684 518 q 505 235 505 342 q 435 207 492 207 l 284 207 q 214 275 214 207 q 109 462 214 362 q 41 649 41 543 q 231 943 41 840 q 363 972 307 972 m 92 663 l 92 635 q 202 433 92 543 q 264 269 264 361 l 264 264 q 270 258 265 258 l 460 258 l 460 269 q 570 488 460 382 q 633 654 633 555 q 457 904 633 820 q 358 921 402 921 q 117 765 205 921 q 92 663 92 703 m 363 887 q 491 850 426 887 l 491 844 l 488 844 q 404 861 448 861 q 191 717 264 861 q 174 621 174 679 q 264 445 174 525 l 259 445 q 129 654 129 522 q 279 873 129 798 q 363 887 328 887 m 264 190 l 460 190 q 474 176 464 190 l 474 170 q 460 147 474 155 l 264 147 q 250 170 250 155 q 264 190 250 181 m 276 125 l 457 125 q 474 102 474 117 q 452 79 474 79 l 273 79 q 250 102 250 79 q 276 125 250 125 m 310 60 l 414 60 q 420 54 420 58 l 420 45 q 361 0 420 5 q 304 48 304 5 l 304 54 q 310 60 305 60 z "},"d":{"ha":768,"x_min":47,"x_max":724,"o":"m 372 974 l 387 974 q 709 860 658 974 q 724 743 724 819 q 721 709 724 736 l 673 709 l 667 712 q 669 770 669 753 q 579 896 669 875 q 402 920 506 920 l 363 920 q 119 848 175 920 q 104 772 104 813 l 104 715 q 98 709 104 709 l 56 709 q 50 715 50 709 l 50 775 q 182 950 50 915 q 372 974 279 974 m 186 758 l 203 758 q 237 709 237 743 l 237 676 l 276 676 l 276 686 q 321 758 276 758 l 327 758 q 366 709 360 758 l 366 676 l 405 676 l 408 691 l 408 722 q 444 758 418 758 l 456 758 q 495 712 490 758 l 495 676 l 537 676 l 537 722 q 579 758 537 751 l 585 758 q 625 712 618 758 l 625 676 l 700 676 q 724 652 724 676 l 724 631 q 648 490 724 561 q 625 475 641 475 l 140 475 q 47 643 47 549 l 47 652 q 77 676 47 676 l 108 676 l 144 673 l 150 688 l 146 707 l 146 709 q 186 758 153 758 m 177 442 l 591 442 q 597 436 597 441 q 507 235 507 355 q 480 220 492 220 l 291 220 q 261 277 261 220 q 177 439 258 345 l 177 442 m 297 189 l 468 189 q 490 165 490 189 q 474 147 485 153 l 297 147 q 282 172 282 155 q 297 189 286 184 m 297 123 l 474 123 q 490 102 490 114 q 468 81 490 81 l 297 81 q 282 105 282 89 q 297 123 286 117 m 336 60 l 438 60 q 444 54 444 59 l 444 48 q 387 0 444 6 q 330 39 330 7 l 330 54 q 336 60 331 60 z "},"e":{"ha":397,"x_min":34,"x_max":355,"o":"m 163 972 q 341 896 341 916 q 344 884 344 891 l 344 873 q 304 840 344 844 q 124 918 124 892 q 121 930 124 924 q 163 972 130 972 m 68 884 l 82 884 q 347 786 296 811 q 355 764 355 772 l 355 752 q 321 718 349 718 l 310 718 q 39 823 45 808 q 34 848 34 841 q 68 884 43 884 m 76 769 q 347 667 338 679 q 355 642 355 657 l 355 634 q 315 600 355 606 q 45 699 119 665 q 34 730 34 719 q 76 769 43 769 m 79 650 q 349 547 338 562 q 355 530 355 537 l 355 521 q 307 473 355 492 q 282 411 282 448 l 282 400 l 330 400 q 349 380 349 400 l 349 301 q 273 212 334 212 q 254 208 273 208 l 132 208 q 39 304 54 208 l 42 304 l 39 310 q 42 313 39 313 l 39 327 l 39 372 q 62 400 39 400 l 104 400 l 104 406 q 65 471 104 460 q 54 496 54 486 l 54 501 q 93 544 58 544 q 163 473 163 522 q 169 434 167 442 l 166 417 l 166 400 l 220 400 l 220 408 q 248 504 220 464 q 45 583 70 568 q 34 611 34 596 q 79 650 34 646 m 119 186 l 268 186 q 296 163 296 186 q 268 141 296 141 l 268 144 l 262 141 l 124 141 q 96 155 102 141 l 96 172 q 119 186 103 186 m 124 121 l 268 121 q 296 98 296 121 q 268 76 296 76 l 124 76 q 96 90 102 76 l 96 107 q 124 121 102 121 m 146 59 l 152 59 q 161 56 161 59 l 175 59 l 209 59 q 220 56 215 59 q 231 59 224 59 l 242 59 q 251 51 246 59 l 251 37 q 192 0 251 5 q 138 48 138 0 q 146 59 142 59 z "},"f":{"ha":795,"x_min":34,"x_max":758,"o":"m 380 972 l 411 972 q 701 807 579 972 q 758 625 758 715 l 758 595 q 569 290 758 412 q 405 248 483 248 l 396 248 q 58 478 168 248 q 34 604 34 549 l 34 616 q 234 936 34 816 q 380 972 319 972 m 87 607 q 270 329 87 425 q 387 302 329 302 l 405 302 q 674 473 572 302 q 704 595 704 541 l 704 625 q 528 891 704 788 q 396 918 465 918 l 378 918 q 136 777 244 918 q 87 607 87 698 m 399 879 q 512 849 512 865 l 507 849 q 446 858 480 858 l 414 858 q 204 730 296 858 q 168 613 168 664 l 168 574 q 294 365 168 457 l 288 365 q 151 499 203 401 q 130 592 130 557 l 130 628 q 285 855 130 766 q 399 879 351 879 m 297 224 l 452 224 l 471 221 q 486 224 475 224 l 492 224 q 524 197 524 224 q 500 176 524 180 l 285 176 q 270 191 281 176 l 270 200 q 297 224 270 224 m 294 153 l 497 153 q 524 125 524 149 q 497 104 515 104 l 294 104 q 270 119 278 104 l 270 138 q 294 153 278 153 m 324 81 l 467 81 q 477 68 472 81 q 399 3 477 3 q 396 0 399 0 q 318 54 331 0 l 318 75 q 324 81 319 81 z "},"g":{"ha":682,"x_min":68,"x_max":610,"o":"m 337 970 l 340 970 q 542 872 455 970 q 610 695 610 786 l 610 680 q 552 526 610 606 q 504 433 513 465 q 488 351 494 408 q 466 241 488 277 q 454 225 454 229 q 453 216 453 222 l 453 215 q 456 205 456 208 q 448 189 456 204 l 448 186 q 454 172 448 182 l 454 170 q 447 157 454 167 l 447 154 q 454 138 447 153 l 454 137 q 445 125 454 135 l 445 121 q 454 106 454 111 q 448 94 448 95 q 422 46 448 71 q 396 30 416 40 q 377 5 377 13 q 338 0 377 3 q 299 7 299 1 q 277 33 299 16 q 235 72 249 44 q 225 84 235 73 l 225 89 q 231 104 231 103 l 223 119 l 223 121 q 232 136 223 123 q 223 148 232 140 l 223 151 q 231 166 223 154 l 231 168 q 223 180 231 170 q 222 185 222 182 q 229 199 229 195 l 229 200 q 222 222 229 205 q 214 237 222 231 q 201 260 207 248 q 186 383 193 275 q 170 446 178 425 q 121 532 151 487 q 68 680 68 608 l 68 697 q 105 828 68 758 q 257 957 161 924 q 337 970 296 970 m 78 690 l 78 685 q 133 531 78 608 q 193 401 185 455 q 202 300 197 370 q 222 248 209 264 q 259 231 240 231 q 286 227 263 229 l 286 337 q 296 368 286 343 q 298 380 298 370 q 287 414 298 387 l 287 418 q 308 446 287 438 l 308 446 q 274 535 293 496 q 243 606 254 576 q 235 621 238 606 q 242 623 241 623 q 243 621 243 621 q 269 631 248 621 q 267 646 268 638 l 269 646 q 270 636 269 638 q 275 637 273 637 l 277 637 q 283 632 279 637 q 311 629 299 629 l 311 629 q 334 632 327 629 q 341 648 339 648 l 341 647 l 336 632 q 337 631 337 632 q 359 630 352 630 l 364 630 q 396 634 396 630 q 401 637 397 637 l 402 637 q 407 636 404 637 l 408 644 l 408 646 l 410 646 q 408 630 410 640 q 435 621 425 621 l 435 623 q 441 621 437 623 q 434 606 439 606 q 391 509 416 559 q 370 446 376 471 q 390 418 390 438 l 390 415 q 380 387 390 412 q 379 379 379 380 q 391 343 379 370 q 392 335 392 339 l 392 227 q 450 242 444 231 q 471 283 460 247 q 482 387 477 304 q 529 508 488 444 q 589 616 576 577 q 599 688 599 654 l 599 690 q 526 875 599 789 q 448 933 479 920 q 346 958 395 958 l 332 958 q 188 907 258 958 q 124 839 144 871 q 78 690 78 766 m 271 633 l 271 633 q 272 633 272 633 q 281 632 279 632 q 274 636 279 636 q 271 633 271 635 m 396 632 l 399 632 l 404 633 q 406 632 406 632 l 406 633 q 401 636 405 636 q 396 632 396 634 m 273 629 q 275 627 273 627 l 278 627 l 278 628 q 273 629 277 628 m 400 628 l 400 627 l 402 627 l 402 628 l 400 628 m 269 627 q 245 617 269 624 q 290 513 245 614 q 313 448 313 456 q 319 467 317 448 l 319 506 l 312 506 q 311 508 311 506 l 311 530 q 319 532 311 532 q 270 627 278 610 l 269 627 m 277 625 l 273 626 q 321 532 289 593 l 336 532 l 336 536 q 334 625 334 614 q 334 626 334 625 l 334 626 q 311 624 321 624 q 281 627 295 624 q 277 625 279 625 m 336 626 q 336 624 336 625 l 338 532 l 357 532 q 405 626 368 555 l 401 625 q 394 626 395 626 q 374 625 382 625 l 363 625 q 336 626 353 625 m 406 626 q 359 533 391 595 l 359 532 l 366 532 q 367 530 367 532 l 367 508 q 366 506 367 506 l 358 506 l 358 467 q 364 448 359 448 q 414 574 364 462 q 432 616 432 614 q 406 626 420 620 m 317 526 l 317 512 l 325 512 q 327 510 327 511 l 327 471 q 319 441 327 447 q 315 439 315 439 q 316 408 316 420 l 316 226 l 361 226 l 361 408 q 363 439 361 420 q 351 466 351 443 l 351 510 q 353 512 351 512 l 360 512 l 360 526 l 317 526 m 294 418 q 302 392 294 410 q 304 379 304 383 q 294 345 304 370 q 292 333 292 338 l 292 227 l 297 227 q 311 226 301 227 l 311 420 l 310 431 l 311 431 l 310 432 l 310 437 q 294 418 294 434 m 368 437 l 368 437 q 367 408 367 419 l 367 226 q 380 227 376 227 l 385 227 l 385 334 q 374 368 385 342 q 372 380 372 377 q 383 411 372 388 q 384 418 384 414 q 370 437 384 431 l 368 437 m 338 406 q 354 392 354 404 l 354 390 q 338 375 351 375 q 323 390 323 378 l 323 393 q 338 406 323 404 l 338 406 m 329 392 l 329 390 q 336 381 329 385 l 342 381 q 349 390 349 385 l 349 392 q 338 401 349 398 q 329 392 329 398 m 235 222 l 235 220 q 245 199 239 199 q 268 195 268 195 q 269 196 269 195 q 321 193 283 194 q 338 193 326 193 l 338 192 q 294 189 319 189 q 242 192 263 189 q 236 180 236 183 q 248 170 239 170 q 290 163 283 163 l 291 163 l 291 162 l 279 162 q 243 164 264 162 q 235 151 243 161 q 280 136 235 139 q 298 133 288 134 l 298 132 l 285 132 q 243 134 264 132 q 235 119 235 121 q 254 111 235 111 q 298 104 283 104 l 298 102 q 288 102 292 102 q 243 106 263 102 q 238 92 238 94 l 238 90 q 246 85 238 85 q 269 81 262 81 l 269 80 l 257 79 q 245 80 255 79 l 245 79 q 311 39 266 39 l 370 39 q 425 68 402 39 q 436 91 436 85 l 436 92 q 319 77 382 77 l 314 77 q 288 78 305 77 l 288 80 l 294 80 q 433 102 355 80 q 441 108 441 104 q 436 119 441 111 q 338 103 375 103 l 332 103 l 326 102 l 326 104 q 435 129 391 112 q 441 138 441 135 q 436 146 441 140 l 435 146 q 328 132 372 132 l 328 132 l 328 134 l 328 134 q 436 157 357 134 q 441 168 441 165 q 439 176 441 169 q 326 162 372 162 l 307 162 l 307 163 l 308 163 q 422 181 353 163 q 439 194 439 188 q 443 201 441 195 l 441 201 q 358 193 396 193 l 358 195 l 359 195 q 439 212 384 195 q 441 221 441 216 q 441 222 441 221 q 336 213 382 213 q 235 222 292 213 m 271 72 q 309 71 296 71 l 354 71 q 394 72 366 71 l 394 70 l 393 70 q 332 65 359 65 q 271 70 307 65 l 271 72 m 296 29 q 312 12 311 12 q 337 9 324 9 l 340 9 q 370 14 370 9 q 382 29 375 21 q 345 27 366 27 l 330 27 q 296 29 312 27 z "},"h":{"ha":691,"x_min":41,"x_max":653,"o":"m 345 969 q 614 815 510 969 q 635 767 614 811 q 653 663 653 707 q 510 401 653 505 l 510 372 q 544 376 519 372 q 566 302 566 335 q 553 245 566 285 q 566 188 564 212 q 537 118 557 118 q 155 86 296 97 l 155 87 q 136 159 136 134 q 150 215 136 184 q 136 274 136 252 q 159 342 136 309 l 161 342 q 188 344 170 342 l 188 397 q 111 466 146 427 q 41 648 41 555 l 41 668 q 123 872 41 782 q 198 930 177 924 q 345 969 269 969 m 105 663 l 105 650 q 163 505 105 574 q 227 452 192 470 q 254 437 229 452 q 252 435 254 435 l 254 422 l 254 416 q 252 408 254 412 l 254 405 q 252 403 254 403 l 254 394 l 254 392 q 252 391 254 391 l 254 387 l 254 371 q 252 369 254 369 q 254 362 254 366 l 306 362 l 306 496 q 239 606 306 503 q 264 623 239 608 l 267 623 q 292 600 281 600 l 297 600 q 317 611 305 600 l 318 611 q 342 598 332 598 l 349 598 q 368 611 356 598 l 372 611 q 395 598 383 598 l 399 598 q 433 623 422 598 l 435 623 q 462 606 457 611 q 395 496 404 518 l 395 362 q 444 366 426 366 l 446 369 l 446 439 q 487 464 446 441 q 587 661 587 542 l 587 667 q 488 858 587 780 q 356 903 422 903 l 334 903 q 170 829 250 903 l 138 787 q 107 699 107 723 q 105 663 105 679 m 317 591 q 292 584 315 584 l 338 511 l 338 362 l 354 362 q 356 360 356 362 q 363 362 359 362 l 363 505 q 406 581 373 530 l 406 582 l 392 582 q 370 591 381 582 q 347 581 358 581 q 317 591 335 581 m 202 279 q 200 274 200 276 q 202 269 202 271 q 499 297 499 292 l 501 304 q 499 307 499 304 q 202 279 412 301 m 202 167 l 200 159 q 202 154 202 156 q 499 182 499 179 q 501 186 499 186 q 499 192 499 190 q 202 167 397 184 m 435 93 l 437 90 l 437 77 q 385 7 437 35 q 347 0 363 0 q 292 20 322 0 q 261 75 264 49 q 435 93 277 79 z "},"i":{"ha":517,"x_min":34,"x_max":473,"o":"m 248 969 l 263 969 q 412 817 336 969 q 473 542 473 672 l 473 530 q 412 305 473 383 l 412 298 q 427 252 427 275 l 427 233 q 416 199 427 205 q 427 149 427 180 q 381 92 427 92 q 95 73 194 73 l 83 130 l 91 172 q 83 218 86 211 q 114 275 83 275 l 121 275 q 34 530 34 362 l 34 542 q 111 854 34 682 q 248 969 183 969 m 114 515 q 182 332 114 395 l 194 332 l 194 469 q 213 488 194 472 l 213 504 q 168 591 201 553 q 191 610 170 610 q 194 599 194 603 q 221 622 215 607 l 255 610 l 294 622 q 316 603 300 607 q 328 610 316 610 q 339 607 335 607 l 339 599 l 335 591 q 347 584 347 591 q 320 561 320 570 q 294 496 294 506 l 294 485 q 320 454 317 485 l 320 332 q 393 492 365 332 l 393 526 q 297 854 393 710 q 252 889 269 889 q 156 755 204 878 q 114 515 114 630 m 221 603 q 202 584 221 593 q 221 549 216 549 q 229 576 221 576 l 282 576 q 290 549 290 576 l 294 549 q 309 587 309 585 q 286 603 290 603 l 252 599 q 221 603 231 603 m 236 557 l 236 549 q 252 542 252 549 l 252 488 q 236 481 252 481 l 236 332 l 274 332 q 278 340 274 340 l 274 366 l 274 469 l 278 477 q 259 481 272 481 l 259 542 q 274 549 259 549 l 274 557 q 263 561 263 557 l 255 557 l 252 557 q 248 561 248 557 q 236 557 240 557 m 224 538 l 229 519 l 233 519 l 233 538 l 224 538 m 274 538 l 274 511 l 278 511 q 286 538 278 523 l 274 538 m 294 469 l 294 332 l 301 332 l 301 462 q 294 469 301 469 m 137 233 l 137 210 l 141 210 l 374 229 q 377 252 374 232 q 374 256 374 252 q 137 233 317 248 m 141 141 q 137 126 137 134 l 137 118 l 141 111 q 374 134 349 134 l 374 164 q 141 141 177 149 m 324 77 q 328 65 328 69 q 243 0 297 0 q 186 57 207 0 l 186 65 l 324 77 z "},"j":{"ha":675,"x_min":34,"x_max":631,"o":"m 311 971 l 357 971 q 366 963 366 970 l 307 786 q 395 736 395 746 q 307 643 307 646 l 307 639 q 357 601 326 639 q 320 492 356 580 q 437 618 330 503 q 416 673 416 650 l 500 723 q 458 816 458 807 q 509 908 484 849 q 627 753 554 908 q 631 706 631 724 l 631 639 q 505 425 631 526 q 492 404 492 425 l 492 391 l 526 391 q 551 315 551 366 q 538 265 551 304 q 551 210 551 224 q 496 139 551 139 l 147 109 q 131 185 131 148 q 139 235 131 193 q 131 294 131 281 q 177 361 131 361 l 181 361 l 181 412 q 34 673 34 514 q 160 916 34 814 q 311 971 250 971 m 194 290 l 198 290 q 488 315 272 290 q 479 323 488 323 q 194 294 238 302 l 194 290 m 194 176 q 488 206 435 197 l 488 214 q 194 185 326 202 l 194 176 m 420 88 q 425 84 420 84 q 328 0 425 0 q 252 67 275 0 l 252 71 q 420 88 266 79 z "},"k":{"ha":1076,"x_min":47,"x_max":1019,"o":"m 535 971 l 547 971 q 868 841 715 971 q 929 772 868 836 q 1019 516 1019 633 l 1019 467 q 795 73 1019 236 q 547 0 669 0 l 531 0 q 117 232 277 0 q 47 447 47 363 l 47 512 q 239 873 47 705 q 535 971 373 971 m 515 878 l 515 788 l 555 788 l 555 878 l 515 878 m 682 841 l 641 768 q 673 743 641 763 l 677 743 q 722 825 684 769 q 682 841 697 841 m 348 825 l 348 817 q 389 739 389 759 q 425 768 425 755 l 380 841 q 348 825 356 825 m 739 679 q 759 650 743 679 q 836 695 826 684 l 836 699 q 819 731 819 724 l 815 731 q 739 679 739 684 m 251 724 q 235 687 235 694 l 307 646 l 315 646 q 328 679 315 659 q 251 724 260 724 m 348 549 q 429 382 348 486 q 454 317 454 342 l 454 309 l 612 309 l 612 321 q 710 496 619 363 q 718 549 718 532 q 572 711 718 661 l 531 715 q 385 650 457 715 q 348 549 348 593 m 413 224 q 433 203 414 213 q 649 243 649 222 q 653 260 653 251 l 653 264 q 633 276 653 271 q 417 240 417 259 l 413 224 m 413 151 q 433 130 413 140 q 649 163 649 149 l 653 183 l 653 187 q 637 203 653 191 q 417 163 417 184 q 413 151 417 158 m 478 114 q 535 73 499 73 q 596 130 583 73 q 592 134 592 130 q 478 114 478 117 z "},"l":{"ha":1012,"x_min":41,"x_max":962,"o":"m 498 974 q 691 870 590 870 l 695 870 q 784 881 741 870 q 825 743 795 789 q 962 635 878 674 q 914 494 914 566 q 962 342 914 412 q 888 301 958 333 q 791 111 791 215 q 784 93 788 111 q 703 108 734 108 q 561 60 644 108 l 498 0 q 290 104 425 104 q 216 93 264 104 q 149 264 216 179 q 41 338 111 299 l 41 342 q 85 484 85 415 q 41 640 85 537 q 182 758 141 680 q 216 881 202 804 q 294 866 255 870 q 498 974 404 866 m 286 595 q 360 435 286 530 q 394 327 394 385 l 528 327 q 543 331 536 327 q 557 327 549 327 l 610 327 l 610 334 q 688 498 610 400 q 721 598 721 551 q 561 795 721 736 q 502 799 523 799 q 301 677 365 799 q 286 595 286 632 m 502 740 q 658 628 615 740 l 658 587 q 561 416 658 560 q 550 390 559 390 l 543 390 l 535 394 l 572 562 l 572 576 q 565 584 572 584 l 438 584 q 431 576 431 583 l 431 572 q 472 394 431 546 l 465 390 l 453 390 l 401 487 q 349 587 353 538 l 349 606 q 450 732 349 694 q 502 740 492 740 m 460 550 l 538 550 q 546 543 546 549 q 517 390 526 390 l 490 390 q 460 550 480 390 m 517 304 l 405 304 q 397 297 397 304 l 397 271 l 401 253 l 602 253 l 606 279 l 606 286 l 602 304 l 580 304 q 576 309 576 304 l 568 304 q 565 309 565 304 l 538 304 l 528 304 q 524 309 524 304 l 517 304 m 401 238 q 394 208 394 215 q 405 186 399 186 l 602 186 l 606 212 l 606 219 l 602 238 q 505 241 593 238 l 479 238 l 460 241 q 401 238 432 238 m 460 175 l 460 149 q 517 153 498 153 l 546 153 l 546 171 q 535 175 543 171 l 498 171 l 498 175 q 494 171 494 175 l 468 175 l 460 175 z "},"m":{"ha":766,"x_min":47,"x_max":713,"o":"m 382 970 q 442 965 418 970 q 444 964 442 964 q 546 932 481 961 q 608 890 589 909 q 661 836 630 876 q 700 763 687 798 q 711 712 705 745 l 711 712 q 713 676 713 686 q 711 640 713 671 q 705 603 709 640 q 697 572 703 603 q 665 493 684 531 q 577 351 648 457 q 540 264 540 288 q 538 262 538 264 l 538 102 q 424 9 464 26 q 391 1 416 5 q 389 0 391 0 l 368 0 l 368 3 l 366 3 q 273 54 328 3 q 220 104 237 83 l 220 248 q 170 370 220 299 q 157 390 170 372 q 140 415 157 392 q 62 576 78 513 q 47 684 47 619 q 79 805 47 746 q 128 871 97 838 q 382 970 233 970 m 355 920 q 326 916 355 918 q 296 909 326 913 q 176 848 226 889 q 130 793 139 812 q 105 715 112 765 q 103 709 105 711 l 103 646 q 109 611 105 644 q 136 525 119 561 q 187 431 157 477 q 199 412 189 430 q 253 321 233 364 q 268 264 268 281 q 269 262 269 264 l 269 254 l 332 254 l 332 258 q 323 300 330 262 q 285 497 317 326 q 279 509 282 509 q 237 522 237 517 q 214 555 214 538 l 212 563 q 240 600 212 589 l 256 600 q 294 566 276 600 q 300 539 300 548 l 305 539 q 363 570 341 554 q 351 581 363 573 q 328 634 328 606 q 341 668 328 652 q 378 685 360 685 l 383 685 q 428 657 408 685 q 433 634 431 650 q 434 633 434 634 l 434 631 q 429 608 432 629 q 411 583 421 592 q 399 570 401 575 q 455 539 424 551 l 461 539 q 483 589 461 565 q 506 600 483 593 l 520 600 q 545 581 536 596 q 548 568 548 571 l 548 553 q 531 527 545 538 q 495 511 511 511 q 494 510 495 510 l 486 510 q 477 497 477 510 l 460 412 q 459 410 459 412 q 437 294 459 404 l 436 294 q 430 254 436 289 l 496 254 l 496 255 q 506 314 496 285 q 599 471 520 360 q 618 505 600 475 q 663 654 663 591 l 663 656 l 666 659 l 666 703 q 660 741 664 703 q 652 763 658 741 q 554 875 624 835 q 460 911 513 899 l 425 918 q 412 920 414 918 q 383 922 410 920 q 355 920 361 920 m 355 626 q 380 586 355 609 q 406 627 406 608 l 406 629 q 382 651 399 651 l 377 651 q 355 626 355 645 m 235 562 q 271 536 235 541 l 277 536 l 277 538 q 248 578 271 578 q 235 562 235 578 m 484 536 l 486 536 q 525 557 517 536 l 526 563 q 512 578 526 578 q 486 545 492 578 q 484 536 484 543 m 380 556 q 317 517 341 525 q 305 511 305 513 l 304 511 q 340 275 326 380 q 345 254 342 275 l 416 254 q 427 315 418 254 q 442 422 442 412 q 444 424 444 422 q 455 503 444 436 q 456 504 456 503 l 456 514 q 380 556 437 514 m 275 208 l 275 178 l 487 178 l 487 208 l 275 208 m 275 144 l 275 113 l 486 113 l 487 119 l 487 144 l 275 144 m 311 79 q 372 45 348 45 l 387 45 q 430 64 406 45 q 448 79 448 77 l 429 79 q 425 78 425 79 l 419 79 l 311 79 z "},"n":{"ha":695,"x_min":47,"x_max":646,"o":"m 336 967 l 340 967 q 637 741 559 967 q 646 670 646 707 l 646 666 q 508 414 646 518 l 508 389 l 533 389 q 562 314 551 389 q 546 268 553 268 q 562 210 558 239 q 508 138 562 138 q 165 104 478 138 q 144 184 144 149 q 157 231 144 214 q 144 293 144 268 q 169 360 144 337 l 190 360 l 190 410 q 47 674 47 518 l 47 678 q 194 925 47 819 q 336 967 273 967 m 111 661 q 186 498 111 581 q 257 444 257 450 l 257 377 l 298 377 q 445 381 347 377 l 445 448 q 533 528 531 515 q 583 666 583 596 q 504 846 583 760 q 340 904 422 904 q 127 753 210 904 q 111 661 111 698 m 378 846 l 382 846 q 366 691 366 750 q 470 640 463 640 l 470 632 q 298 418 425 570 l 294 418 l 294 422 q 349 624 349 606 q 232 653 232 644 q 378 846 326 785 m 207 297 l 207 289 l 211 289 q 496 310 223 289 l 496 322 q 207 297 295 301 m 207 176 l 496 201 l 496 214 q 207 184 224 189 l 207 176 m 433 88 l 437 79 q 370 0 437 25 l 345 0 q 265 75 265 16 q 433 88 377 88 z "},"o":{"ha":751,"x_min":47,"x_max":695,"o":"m 370 970 q 675 782 574 970 q 695 690 695 718 l 695 656 q 583 422 695 559 q 536 288 536 349 l 536 272 q 528 263 536 263 l 215 263 q 190 368 208 263 q 81 539 190 377 q 47 656 47 602 l 47 690 q 110 848 47 755 q 370 970 222 970 m 144 665 q 256 452 144 603 q 294 359 294 375 l 319 359 l 319 372 q 265 614 265 599 l 265 635 q 273 644 266 644 l 478 644 l 478 614 q 424 359 478 578 l 445 359 q 478 439 449 359 q 600 656 600 597 l 600 686 q 424 869 600 807 l 332 869 q 185 786 269 869 q 144 665 144 724 m 311 593 q 349 359 311 587 l 395 359 l 436 593 l 311 593 m 227 238 l 515 238 q 532 197 527 238 q 515 151 532 172 q 511 155 511 151 l 482 151 l 227 151 q 210 197 214 151 q 227 238 214 238 m 227 134 l 515 134 q 532 100 526 134 l 532 92 q 515 50 527 50 l 227 50 q 210 87 210 56 l 210 96 q 227 134 210 128 m 315 37 l 432 37 q 445 17 441 37 q 432 0 438 0 l 315 0 q 307 8 307 0 l 307 29 q 315 37 308 37 z "},"p":{"ha":602,"x_min":34,"x_max":552,"o":"m 297 964 l 304 964 q 503 861 408 964 q 552 720 552 777 l 552 690 q 465 469 552 629 q 415 290 439 397 q 373 271 397 271 l 213 271 q 156 370 156 271 q 49 617 125 473 q 34 705 38 651 q 198 945 34 865 q 297 964 244 964 m 182 236 l 396 236 q 422 221 416 236 l 422 205 q 404 191 422 201 l 182 191 q 163 221 163 200 l 182 236 m 182 172 l 396 172 q 422 144 422 172 l 422 141 q 392 122 413 122 l 194 122 q 163 149 163 125 q 182 172 169 164 m 178 103 l 396 103 q 422 87 416 103 l 422 76 q 404 57 422 71 l 182 57 q 163 84 163 68 q 178 103 171 101 m 236 38 l 350 38 l 350 31 q 289 0 346 14 q 236 35 240 20 l 236 38 z "},"q":{"ha":694,"x_min":41,"x_max":637,"o":"m 324 970 l 340 970 q 624 764 540 970 q 637 678 637 720 l 637 649 q 522 435 637 536 q 501 423 508 423 l 501 395 l 530 395 q 550 317 546 395 q 542 267 550 300 q 550 205 550 237 q 513 140 550 140 q 156 111 456 140 q 135 168 135 145 l 135 197 q 148 234 138 233 q 135 279 135 262 l 135 317 q 160 361 148 361 l 184 361 l 184 411 q 57 583 62 511 q 41 674 41 614 q 234 954 41 865 q 324 970 296 970 m 106 690 l 106 653 q 201 481 106 564 q 250 452 250 459 l 250 439 q 246 435 250 435 l 250 427 l 250 382 l 279 382 q 283 378 283 382 q 300 382 290 382 l 300 501 q 242 526 300 507 q 160 686 160 589 l 160 690 q 193 703 163 703 l 201 703 q 300 670 266 703 q 275 596 278 640 q 332 509 290 509 l 332 387 l 336 378 q 353 382 344 382 l 353 501 q 316 608 316 557 q 480 768 316 730 q 505 674 504 715 q 390 493 505 550 l 390 382 l 431 387 l 435 387 l 435 456 q 550 579 550 529 q 575 662 563 592 l 571 670 l 575 678 q 526 818 575 732 q 361 904 444 904 l 324 904 q 131 785 210 904 q 106 690 106 719 m 418 719 l 418 715 l 431 662 q 444 674 437 662 q 423 719 423 692 l 418 719 m 382 694 l 382 686 q 398 612 382 677 l 402 612 l 406 629 l 386 694 l 382 694 m 456 653 l 423 653 q 418 641 423 649 l 427 641 q 476 653 439 641 l 476 657 l 456 653 m 349 633 l 349 629 l 366 559 l 374 559 l 378 575 q 353 633 357 614 l 349 633 m 439 608 l 402 608 q 394 592 402 602 q 468 608 408 592 l 468 612 l 439 608 m 370 538 q 448 555 382 538 l 448 559 l 444 559 q 370 538 370 551 m 472 325 q 201 300 447 325 l 201 288 q 488 317 217 292 l 488 321 l 484 329 q 472 325 477 325 m 205 193 l 201 185 l 201 181 q 488 205 481 205 l 488 214 q 205 193 359 201 m 423 90 l 427 82 q 378 8 410 8 q 336 0 378 0 q 258 74 258 15 q 423 90 286 82 z "},"r":{"ha":975,"x_min":41,"x_max":913,"o":"m 446 970 l 481 970 q 490 961 490 968 l 490 845 q 481 836 490 836 l 446 836 l 437 841 l 441 867 q 437 947 437 909 l 437 961 q 446 970 438 970 m 726 939 q 770 907 765 920 q 699 805 714 818 q 663 823 680 823 q 726 939 663 842 m 228 935 q 290 832 231 935 q 250 805 290 826 q 183 907 231 828 l 183 916 q 228 935 217 935 m 459 810 l 486 810 q 713 703 688 806 l 717 676 l 717 650 q 588 316 717 570 q 574 302 588 309 l 379 302 q 250 561 364 302 q 232 650 232 626 l 232 676 q 338 792 232 760 q 459 810 392 810 m 298 645 q 410 374 298 576 l 446 374 q 454 382 454 374 q 352 716 352 644 q 298 645 298 681 m 50 672 q 174 654 174 667 l 174 618 q 165 610 174 610 q 41 627 41 610 l 41 645 q 50 672 41 657 m 904 672 q 913 623 908 665 q 895 614 902 614 q 783 610 878 614 q 774 659 779 616 q 904 672 793 666 m 610 276 l 614 267 l 614 146 l 592 146 q 583 138 583 145 l 583 71 q 574 62 583 62 l 534 62 q 468 0 534 8 l 463 0 q 406 62 416 0 l 366 62 q 357 71 357 62 q 361 76 357 76 l 357 85 l 357 102 q 361 106 357 106 q 357 120 357 115 l 334 116 l 330 125 l 330 178 q 361 209 361 178 l 330 209 l 330 262 q 338 271 331 271 l 602 271 l 610 276 z "},"s":{"ha":850,"x_min":47,"x_max":776,"o":"m 393 970 l 439 970 l 439 851 l 389 851 l 385 883 l 385 943 q 389 947 385 947 l 385 956 l 385 961 q 393 970 386 970 m 230 929 q 284 829 260 892 l 284 824 q 248 806 273 824 q 189 906 189 876 q 230 929 224 924 m 598 924 q 635 897 613 920 q 580 802 623 857 q 539 829 549 814 l 539 833 q 598 924 585 924 m 66 787 l 71 787 q 170 733 84 787 q 143 688 150 688 q 47 751 93 709 q 66 787 66 777 m 744 783 l 749 783 q 776 747 755 783 l 776 742 q 680 678 776 738 q 653 733 653 717 q 744 783 703 755 m 407 770 l 430 770 q 635 564 635 740 q 553 391 635 488 q 507 282 521 342 l 326 282 q 302 346 317 282 q 189 578 189 496 q 302 747 189 669 q 407 770 361 770 m 289 246 q 553 210 553 224 l 557 182 q 534 155 551 155 q 271 205 271 177 q 266 218 271 210 q 289 246 272 246 m 298 159 q 553 119 553 134 l 557 91 q 539 68 549 71 q 271 119 271 81 q 266 136 266 126 q 298 159 269 150 m 348 73 q 480 50 480 64 l 480 45 q 412 0 456 0 q 334 68 334 16 q 348 73 343 73 z "},"t":{"ha":729,"x_min":41,"x_max":660,"o":"m 139 973 q 184 956 184 970 l 184 928 l 238 928 l 238 956 q 283 973 238 968 q 323 956 317 973 l 323 928 l 382 928 l 382 964 q 422 973 411 973 q 463 956 456 973 l 463 928 l 521 928 l 521 956 q 561 973 526 973 q 602 956 595 973 l 602 928 l 650 928 q 660 920 660 927 l 660 722 q 624 551 660 651 l 646 551 l 646 439 q 543 296 646 414 l 543 58 q 534 50 543 50 l 417 50 q 355 0 417 18 l 332 0 q 269 50 269 17 l 162 50 q 153 58 153 50 l 153 287 q 68 395 100 361 l 45 426 l 45 547 q 58 556 45 556 l 81 551 q 41 745 41 629 l 45 745 l 41 753 l 41 920 q 50 928 42 928 l 99 928 l 99 956 q 139 973 105 973 m 117 843 l 117 753 q 175 556 117 612 l 229 556 q 233 551 233 556 l 243 556 l 521 556 l 530 551 q 583 740 583 630 l 583 852 l 126 852 q 117 843 117 850 m 229 251 l 229 211 q 332 247 327 247 l 332 251 l 229 251 m 229 189 l 229 144 l 233 144 q 467 233 359 197 l 467 251 l 399 251 l 229 189 m 252 130 l 252 125 l 332 125 q 467 180 366 125 l 467 211 l 252 130 m 408 130 l 408 125 l 467 125 l 467 148 l 463 148 q 408 130 446 139 z "},"u":{"ha":574,"x_min":54,"x_max":513,"o":"m 268 970 l 298 970 q 390 920 349 970 l 413 920 q 486 848 486 907 l 486 428 l 505 428 q 513 420 513 427 l 513 321 q 436 218 436 234 l 436 42 q 429 35 436 35 l 337 35 q 287 0 328 0 l 268 0 q 226 35 226 9 l 142 35 q 134 42 134 35 l 134 214 q 54 321 134 230 l 54 428 l 77 428 l 77 848 q 157 920 77 911 l 176 920 q 268 970 214 970 m 253 871 l 256 863 l 256 428 l 310 428 l 310 874 q 302 882 310 882 l 264 882 l 253 871 m 131 836 l 131 428 l 165 428 l 165 867 l 161 867 q 131 836 131 867 m 401 867 l 398 859 l 398 469 q 401 454 398 461 l 398 447 l 401 439 q 398 428 398 432 l 432 428 l 432 836 q 401 867 432 867 m 195 191 l 195 164 l 199 164 q 260 187 245 187 l 260 191 l 195 191 m 195 145 l 195 107 q 375 183 344 162 l 375 191 l 337 191 q 195 145 297 191 m 214 99 l 214 96 l 283 96 q 375 126 296 96 l 375 160 q 214 99 297 126 m 345 99 l 345 96 l 375 96 l 375 111 q 345 99 356 99 z "},"v":{"ha":565,"x_min":47,"x_max":502,"o":"m 418 970 q 458 938 441 970 l 458 926 q 378 869 458 880 q 140 781 279 825 q 96 825 96 795 q 197 889 96 871 q 418 970 298 938 m 454 857 q 498 813 498 848 q 366 736 498 764 q 108 640 301 705 l 104 640 q 60 684 60 646 q 168 753 60 729 q 454 857 308 809 m 438 716 l 458 716 q 498 672 490 716 q 366 595 498 627 q 212 539 262 551 l 216 519 l 216 458 l 233 443 l 233 422 l 305 422 l 305 443 q 321 451 305 451 l 321 495 q 325 499 321 499 q 321 511 321 507 q 389 564 321 543 q 450 587 438 587 l 462 587 q 502 543 493 587 q 410 479 502 507 l 410 458 q 430 451 410 451 l 430 422 l 494 422 q 502 414 502 421 l 502 318 q 430 213 430 233 l 430 44 q 422 36 430 36 l 337 36 q 269 0 311 0 q 220 36 220 11 l 136 36 q 128 44 128 36 l 128 56 q 132 92 128 77 q 128 133 128 114 l 128 165 l 132 189 q 68 294 132 235 q 47 322 68 301 l 47 414 q 56 422 49 422 l 108 422 l 108 451 l 128 451 l 128 479 q 60 551 60 514 q 189 620 60 588 q 385 692 328 680 l 438 716 m 189 193 l 189 161 l 260 189 l 260 193 l 189 193 m 189 145 l 189 104 q 370 181 356 171 l 370 185 q 361 193 370 193 l 321 193 l 193 145 l 189 145 m 212 96 l 212 92 l 281 92 q 370 129 335 109 l 366 137 q 370 141 366 141 q 361 153 366 153 q 212 96 313 140 m 341 96 l 341 92 l 345 92 l 353 96 l 366 96 l 370 104 l 361 104 q 341 96 349 96 z "},"w":{"ha":745,"x_min":41,"x_max":683,"o":"m 363 973 q 591 882 471 973 q 639 818 591 874 q 683 658 683 743 l 683 630 q 583 407 683 517 q 499 191 499 300 l 484 180 l 252 180 q 224 231 224 180 q 89 479 224 315 q 41 650 41 572 q 128 869 41 766 q 363 973 240 973 m 100 650 q 220 407 100 536 q 284 239 284 298 l 320 239 l 320 243 q 280 507 295 507 q 248 498 265 498 q 220 530 220 498 q 336 578 220 564 l 388 578 q 507 538 462 578 l 507 519 q 488 498 507 513 l 479 498 q 444 503 456 503 q 408 252 408 321 l 408 239 l 439 239 q 456 311 446 239 q 579 498 483 377 q 627 642 614 545 q 623 658 623 649 l 627 658 q 543 838 627 751 q 384 909 465 909 l 340 909 q 149 798 241 909 q 100 650 100 719 m 312 515 q 352 239 352 333 l 368 239 q 376 248 376 239 l 376 259 q 412 519 376 319 q 363 522 385 519 q 312 515 321 519 m 240 168 l 484 168 q 503 148 489 168 l 503 127 q 484 108 503 122 l 252 108 q 224 136 224 108 l 224 140 q 240 168 224 161 m 292 96 l 328 96 q 332 92 332 96 l 340 96 l 435 96 q 475 60 475 96 q 368 0 439 0 l 359 0 q 252 60 285 0 l 252 64 q 292 96 252 96 z "},"x":{"ha":758,"x_min":54,"x_max":694,"o":"m 376 970 q 621 892 507 970 q 694 742 694 833 l 694 738 q 616 509 694 635 q 588 334 596 425 q 515 240 585 315 l 511 220 l 511 142 q 458 49 511 84 q 376 0 425 0 q 270 69 333 0 q 237 159 237 96 l 237 228 q 176 306 237 252 q 152 460 152 351 q 83 615 136 505 q 54 746 54 690 q 205 933 54 865 q 376 970 281 970 m 103 766 l 344 766 l 385 770 l 385 766 q 389 770 389 766 l 409 766 l 621 766 l 649 770 q 372 921 598 914 q 115 803 197 921 q 103 766 103 781 m 389 721 l 389 428 l 425 428 l 462 721 l 417 721 q 413 725 413 721 q 389 721 407 721 m 103 721 l 103 717 q 180 517 103 669 q 201 428 201 448 l 237 428 q 176 672 237 490 q 172 721 176 679 l 103 721 m 197 721 q 262 448 197 703 l 262 428 l 303 428 l 303 432 q 270 713 270 686 l 270 721 l 197 721 m 294 721 l 294 717 q 323 428 323 459 l 364 428 l 364 721 l 294 721 m 482 721 l 482 717 q 454 436 454 465 l 454 428 l 482 428 q 503 522 490 428 q 555 721 535 595 l 482 721 m 580 721 q 519 469 580 697 q 515 428 515 447 l 543 428 q 572 522 549 428 q 649 721 649 665 l 580 721 m 205 379 l 205 375 q 274 269 205 334 q 290 245 284 245 l 466 245 q 535 330 466 265 q 543 379 543 358 l 205 379 m 425 199 l 286 199 l 286 134 l 356 134 q 360 130 360 134 l 368 134 l 466 134 l 466 199 l 437 199 q 433 203 433 199 l 425 199 m 319 85 q 380 49 351 49 l 429 77 l 429 85 l 319 85 z "},"y":{"ha":779,"x_min":34,"x_max":699,"o":"m 368 973 q 618 859 505 973 q 699 635 699 772 l 699 626 q 563 364 699 469 q 470 170 470 269 q 431 30 470 60 q 372 0 404 0 l 364 0 q 267 114 294 0 q 224 296 267 264 q 98 440 224 309 q 34 639 34 534 q 165 901 34 793 q 368 973 262 973 m 81 631 q 229 372 81 503 q 313 195 313 277 l 334 195 l 334 203 q 279 465 334 302 l 258 461 l 241 461 q 170 533 170 483 q 220 588 180 588 l 224 588 q 279 546 262 588 q 296 508 288 511 q 342 537 334 524 q 296 622 296 585 q 359 694 313 694 l 368 694 q 436 643 414 694 q 440 622 436 629 q 393 533 438 591 q 448 512 418 512 q 512 588 460 588 l 516 588 q 563 542 563 581 l 563 525 q 491 461 563 476 l 465 461 l 457 465 q 402 208 402 307 l 402 195 l 423 195 l 423 199 q 601 465 423 307 q 652 614 652 559 l 652 652 q 512 884 652 788 q 368 922 434 922 q 93 720 177 922 q 81 631 81 662 m 334 614 q 364 563 334 610 l 368 563 q 402 622 391 583 q 376 660 391 655 l 359 660 q 334 614 334 647 m 470 499 q 482 495 474 499 q 533 533 528 495 l 533 542 q 512 563 533 545 q 470 499 498 563 m 203 537 q 258 495 203 500 l 262 503 q 229 559 237 559 l 220 559 q 203 537 216 559 m 304 474 q 355 224 355 323 l 355 195 l 381 195 l 381 224 q 431 478 381 334 l 427 478 q 368 508 420 478 l 304 474 m 313 148 l 313 119 q 330 76 313 109 l 406 76 q 423 140 423 106 l 423 148 l 313 148 z "},"z":{"ha":587,"x_min":54,"x_max":526,"o":"m 283 967 l 302 967 q 485 733 388 967 q 526 486 526 589 q 416 256 526 366 q 398 92 403 235 q 311 0 351 4 l 274 0 q 178 133 211 0 l 178 201 q 82 357 178 248 q 54 481 62 393 q 192 912 54 729 q 283 967 247 967 m 104 486 q 215 271 104 398 q 237 211 231 217 l 279 211 l 279 449 l 274 449 q 197 472 197 454 l 197 486 q 215 504 197 493 q 292 500 277 500 q 375 504 357 504 q 385 477 385 489 l 385 472 q 307 449 385 454 l 307 211 l 352 211 l 352 220 q 453 389 352 262 q 476 495 476 433 q 352 876 476 688 q 292 912 311 912 l 288 912 q 151 729 227 912 q 104 486 104 581 m 233 161 l 233 110 q 247 83 247 92 l 325 83 q 348 128 336 83 l 348 161 l 233 161 z "},"{":{"ha":596,"x_min":47,"x_max":534,"o":"m 284 973 l 298 973 q 395 906 326 938 q 534 567 534 770 l 534 509 q 440 214 534 369 l 440 147 q 315 0 440 38 l 279 0 q 150 102 191 0 q 146 134 146 109 l 146 205 q 83 317 146 214 q 47 545 47 432 q 267 951 47 850 q 284 973 267 964 m 288 906 q 195 848 288 900 q 96 540 96 720 q 177 254 96 384 l 271 254 q 279 263 279 254 l 279 294 q 213 406 213 332 q 226 455 213 431 q 213 513 213 486 q 226 572 213 534 q 213 629 213 593 q 298 728 227 728 l 320 728 q 369 683 369 719 l 369 679 q 307 629 369 637 l 307 616 q 369 572 369 616 l 369 567 q 307 522 369 522 l 307 509 q 369 460 369 502 l 369 446 q 307 406 369 423 l 307 397 q 369 348 369 387 l 369 344 q 307 294 369 304 l 307 254 l 395 254 q 485 545 485 353 q 355 871 485 762 q 288 906 341 871 m 307 701 l 307 656 q 342 688 342 656 l 342 692 l 311 701 l 307 701 m 257 683 q 279 665 259 674 l 279 696 l 275 696 q 257 683 257 690 m 239 656 q 235 616 239 640 q 239 598 239 608 l 244 598 q 279 612 263 612 l 279 634 q 239 656 272 634 m 307 593 l 307 545 l 311 545 q 342 576 342 545 q 307 593 342 589 m 257 576 l 257 572 q 275 553 257 564 l 279 553 l 279 585 l 275 585 q 257 576 264 576 m 239 545 q 235 513 239 531 q 239 482 239 496 q 279 509 279 505 l 279 527 q 239 545 258 527 m 307 482 l 307 437 q 342 451 339 437 q 307 482 342 482 m 257 455 q 275 442 257 449 l 279 451 l 279 473 l 275 473 q 257 455 268 473 m 239 433 q 235 401 239 420 q 239 370 239 384 l 244 370 q 279 397 279 393 l 279 415 q 244 433 267 415 l 239 433 m 307 370 l 307 321 q 342 344 329 321 l 342 353 q 307 370 342 361 m 257 348 q 279 330 259 339 l 279 361 l 275 361 q 257 348 257 355 m 195 201 l 195 187 l 391 187 l 391 201 l 195 201 m 195 161 l 195 138 l 391 138 l 391 152 q 382 161 391 161 l 195 161 m 203 116 l 199 107 q 279 49 243 49 l 302 49 q 382 107 339 49 l 382 112 l 213 112 l 203 116 z "},"|":{"ha":773,"x_min":47,"x_max":713,"o":"m 380 973 q 667 847 558 973 q 713 720 713 783 l 713 594 q 583 375 713 488 q 524 249 524 275 q 435 8 524 45 q 397 0 408 0 l 363 0 q 241 164 266 0 q 182 358 241 303 q 73 489 182 368 q 47 594 47 549 l 47 720 q 237 948 47 866 q 380 973 319 973 m 98 703 l 98 607 q 170 455 98 503 q 288 240 288 316 l 330 240 q 267 476 307 476 q 182 564 265 488 l 182 581 q 212 615 186 615 q 283 552 228 615 l 296 543 q 368 611 304 543 l 393 611 q 469 543 454 543 q 549 615 533 615 q 578 581 578 607 l 578 577 q 498 489 578 556 q 473 463 498 475 q 431 240 431 321 l 473 240 q 650 518 473 334 q 663 607 663 567 l 663 703 q 401 927 663 888 l 376 927 q 111 788 210 927 q 98 703 98 746 m 321 472 q 359 249 359 321 l 359 240 l 401 240 l 401 249 q 439 476 401 315 l 380 535 q 321 472 355 516 m 288 194 l 288 160 l 473 160 l 473 194 l 288 194 m 300 114 l 300 110 q 317 84 310 84 l 444 84 q 460 114 450 84 l 300 114 z "},"}":{"ha":749,"x_min":34,"x_max":711,"o":"m 341 966 l 395 966 q 684 763 569 966 q 711 628 703 717 q 567 357 711 515 q 540 248 540 297 l 540 117 q 458 50 540 64 q 372 0 404 0 q 273 54 338 0 q 201 117 201 66 l 201 253 q 97 447 201 347 q 34 623 34 546 l 34 637 q 269 953 34 859 q 341 966 317 966 m 83 650 q 219 389 83 527 q 246 321 246 325 l 345 321 l 345 488 q 241 623 345 536 q 228 659 228 648 l 246 673 q 355 583 267 673 l 372 578 q 486 673 382 578 l 499 673 q 513 655 506 673 q 409 533 513 635 q 395 488 395 510 l 395 321 l 490 321 l 535 402 q 657 632 657 539 q 504 880 657 787 q 395 912 443 912 l 359 912 q 355 917 355 912 q 156 817 261 917 q 83 650 102 757 m 255 253 l 255 203 l 278 203 q 296 199 288 203 l 305 203 q 309 199 309 203 l 341 203 l 486 203 l 486 253 l 255 253 z "},"~":{"ha":362,"x_min":34,"x_max":323,"o":"m 130 972 l 149 972 q 198 911 189 972 l 198 786 q 195 686 198 740 l 198 671 q 195 625 195 627 q 198 393 198 481 l 231 393 l 231 457 q 234 568 231 502 l 231 575 q 234 578 231 578 l 231 593 q 234 643 231 633 q 231 768 231 714 l 231 922 q 202 936 231 926 q 188 961 202 945 q 209 972 191 972 l 227 972 q 277 901 277 972 l 277 393 l 295 393 q 323 357 323 393 l 323 332 q 259 214 323 291 q 95 186 108 186 q 37 296 95 220 l 34 332 l 34 375 q 52 393 34 380 l 80 393 l 80 911 q 130 972 90 972 m 123 918 l 123 393 l 155 393 l 155 918 q 144 929 155 924 l 134 929 q 123 918 129 929 m 77 350 l 77 325 q 138 229 77 304 l 223 229 q 281 339 281 313 l 281 350 l 77 350 m 259 182 l 262 175 l 262 150 q 95 115 262 141 l 91 121 l 91 146 q 259 182 91 153 m 259 111 l 262 104 l 262 82 q 113 46 262 69 q 95 79 95 66 q 259 111 132 90 m 209 32 q 212 28 209 28 q 191 0 209 17 l 163 0 q 152 22 152 3 q 209 32 171 22 z "},"":{"ha":995,"x_min":41,"x_max":949,"o":"m 258 972 q 463 740 404 972 q 477 627 477 685 q 386 354 477 529 q 368 273 368 308 l 368 132 q 317 45 368 65 l 268 0 l 245 0 q 159 73 206 45 q 150 113 150 102 l 150 222 q 73 468 150 351 q 41 627 41 564 l 41 645 q 199 963 41 865 q 258 972 241 972 m 740 972 q 930 758 862 972 q 949 635 945 714 q 854 350 949 521 q 840 277 840 301 l 840 136 q 781 45 831 45 q 731 0 755 0 l 726 0 q 667 50 709 0 q 617 150 617 50 l 617 281 q 536 495 617 333 q 513 622 513 565 l 513 650 q 672 963 513 865 q 740 972 705 972 m 568 645 l 568 627 q 654 372 568 528 q 676 263 667 341 l 708 263 l 708 404 q 613 554 708 444 l 613 572 q 627 586 613 578 l 631 586 l 667 559 l 699 559 l 713 568 l 736 568 q 772 559 768 559 l 795 559 q 836 586 819 586 l 844 572 l 844 563 q 758 441 844 545 q 749 399 749 411 l 749 273 q 758 263 751 263 l 785 263 q 858 481 785 361 q 895 635 895 576 q 795 895 895 791 q 736 918 760 918 l 722 918 q 572 699 618 918 q 568 645 568 686 m 150 581 q 140 568 145 568 q 231 441 153 541 q 241 399 241 411 l 241 263 l 273 263 l 273 327 q 277 332 273 332 l 273 340 l 273 359 q 349 522 273 462 q 372 568 372 553 l 372 572 q 363 581 372 581 l 354 581 l 322 554 l 304 554 l 258 568 q 204 554 216 554 l 195 554 q 150 581 168 581 m 263 541 l 300 527 q 268 490 292 507 l 245 490 q 218 522 239 490 l 218 531 q 263 541 227 531 m 690 527 q 731 490 710 490 q 767 522 751 498 l 767 527 q 731 536 763 527 l 690 527 z "},"":{"ha":433,"x_min":27,"x_max":391,"o":"m 214 974 q 387 505 314 974 l 391 441 q 318 223 391 328 q 255 210 263 214 l 250 218 l 250 414 q 259 423 252 423 l 296 423 q 350 505 340 423 q 286 578 338 578 q 232 492 239 578 l 232 455 q 223 446 232 446 l 195 446 q 186 455 186 446 l 186 514 q 132 578 171 578 l 127 578 q 68 500 68 565 q 127 423 81 423 l 159 423 q 168 414 168 422 l 168 200 q 118 186 168 190 q 32 423 32 319 q 27 460 32 442 q 214 974 94 974 m 127 555 q 168 500 162 555 q 141 450 168 465 l 127 450 q 91 492 91 450 l 91 510 q 127 555 91 543 m 291 551 q 332 496 332 551 q 286 446 323 446 q 250 496 250 464 q 291 551 250 551 m 195 423 l 223 423 q 232 414 232 422 l 232 214 q 195 200 229 200 q 186 210 186 200 l 186 414 q 195 423 188 423 m 300 173 l 304 164 l 304 127 q 123 91 304 115 l 118 91 q 113 136 118 97 q 300 173 142 146 m 282 68 l 282 64 q 218 0 258 47 l 200 0 q 163 45 193 0 l 163 50 q 282 68 267 68 z "},"":{"ha":500,"x_min":41,"x_max":463,"o":"m 245 972 l 258 972 q 450 758 378 972 q 463 654 463 695 l 463 613 q 372 354 463 515 q 349 222 359 304 l 140 186 l 136 195 l 136 268 q 73 450 136 338 q 41 559 41 515 l 41 726 q 140 931 41 821 q 245 972 194 972 m 236 827 l 236 781 q 231 777 236 777 q 236 754 236 769 l 250 754 q 258 763 258 754 l 258 813 l 254 836 l 245 836 q 236 827 236 834 m 145 800 q 186 736 176 736 l 191 736 q 199 749 199 736 q 159 813 176 802 q 145 800 152 813 m 295 745 q 304 736 296 736 q 345 790 315 736 l 345 804 q 336 813 345 813 q 295 745 319 813 m 81 736 l 81 726 q 136 695 86 726 l 154 695 q 159 709 154 700 q 91 745 111 745 q 81 736 81 743 m 336 709 l 336 704 q 345 695 337 695 q 413 736 373 695 q 404 745 413 745 l 391 745 q 336 709 344 719 m 59 650 l 59 645 q 68 635 60 635 l 140 635 l 140 650 q 132 659 140 659 l 68 659 q 59 650 59 657 m 349 650 q 354 635 354 641 l 427 635 q 436 645 436 635 q 431 659 431 654 l 363 659 l 349 650 m 81 559 l 81 549 q 95 545 86 549 q 159 595 159 576 l 150 600 q 81 559 81 575 m 336 591 l 336 586 q 404 545 336 574 l 413 559 q 354 600 404 574 l 345 600 q 336 591 336 598 m 182 559 q 145 486 145 504 l 154 481 l 159 481 q 199 549 196 518 l 199 554 l 182 559 m 295 549 l 295 536 q 332 481 321 489 l 336 481 q 345 490 345 481 q 304 559 345 519 q 295 549 295 557 m 231 490 q 245 458 237 458 l 250 458 q 258 468 258 458 l 258 531 q 250 541 258 541 l 245 541 q 231 490 236 541 m 349 177 l 354 168 l 354 136 q 140 91 354 117 l 136 123 l 136 132 q 349 177 136 143 m 340 77 l 340 73 q 295 41 336 58 q 250 0 275 0 l 245 0 q 195 45 219 0 q 340 77 195 56 z "},"":{"ha":688,"x_min":27,"x_max":658,"o":"m 340 970 l 353 970 q 635 769 540 970 q 658 653 658 717 q 510 407 658 535 q 470 300 470 361 q 430 286 453 286 l 246 286 q 201 362 201 286 q 63 524 201 376 q 27 635 27 585 l 27 675 q 121 881 27 783 q 340 970 214 970 m 197 738 q 210 720 203 720 q 286 787 286 730 q 260 867 280 863 l 251 867 q 197 738 227 867 m 94 680 l 103 675 l 112 675 q 188 787 188 703 q 206 841 200 801 q 94 680 137 841 m 201 657 q 233 564 212 564 l 237 564 q 277 684 258 564 q 264 702 271 702 l 255 702 q 201 657 201 698 m 108 635 l 108 626 q 188 559 133 559 l 201 559 l 201 577 q 170 671 180 668 l 161 671 q 108 635 133 671 m 264 269 l 408 269 q 474 224 474 269 l 474 183 q 304 130 474 130 q 242 125 304 125 q 206 179 206 125 l 206 219 q 264 269 206 269 m 425 121 l 430 112 l 430 94 q 389 50 423 50 l 282 50 q 255 76 276 50 l 255 94 q 425 121 255 107 m 309 40 l 372 40 q 380 31 380 39 q 345 0 380 5 l 340 0 q 300 36 300 7 l 309 40 z "},"":{"ha":580,"x_min":27,"x_max":545,"o":"m 357 970 q 389 930 389 958 l 389 922 q 273 868 389 878 q 143 850 181 850 l 139 850 q 112 890 112 865 l 112 895 q 210 948 112 941 q 357 970 333 970 m 505 881 q 545 832 536 881 q 429 779 545 787 q 58 716 90 716 q 27 756 27 729 l 27 774 q 205 827 27 809 q 505 881 255 841 m 500 765 q 545 716 538 765 q 407 658 545 668 q 67 600 98 600 q 27 640 27 606 l 27 644 q 112 698 27 688 q 500 765 138 698 m 509 644 q 545 595 545 634 q 420 542 545 553 q 63 479 77 479 q 27 519 27 491 l 27 528 q 188 591 27 577 q 509 644 481 644 m 429 519 q 474 475 474 509 l 474 470 q 340 412 474 421 q 148 381 161 381 q 112 426 112 393 q 224 484 112 475 q 429 519 314 497 m 170 354 l 420 354 q 474 278 467 354 l 469 269 q 474 252 474 262 q 402 176 474 176 l 197 176 q 112 243 112 176 q 170 354 112 354 m 183 149 l 402 149 q 411 140 411 147 l 411 122 q 362 68 399 68 l 224 68 q 174 144 174 68 l 183 149 m 250 55 l 345 55 l 345 33 q 300 1 324 1 l 295 1 q 241 46 241 6 q 250 55 243 55 z "}}}
